<?xml version="1.0" standalone="no"?>
<!DOCTYPE svg PUBLIC "-//W3C//DTD SVG 1.1//EN" "http://www.w3.org/Graphics/SVG/1.1/DTD/svg11.dtd" >
<svg>
<metadata>
Created by FontForge 20110222 at Wed Jun  5 09:06:57 2013
 By www-data
2009 Albert-Jan Pool published by FSI FontShop International GmbH
</metadata>
<defs>
<font id="Flirgoyqukkgrfzzuspnqztqksn" horiz-adv-x="514" >
  <font-face 
    font-family="Flirgoyqukkgrfzzuspnqztqksn"
    font-weight="400"
    font-stretch="normal"
    units-per-em="1000"
    panose-1="2 0 5 3 0 0 0 0 0 0"
    ascent="764"
    descent="-236"
    x-height="482"
    cap-height="712"
    bbox="-100 -236 1099 975"
    underline-thickness="38"
    underline-position="-103"
    unicode-range="U+000D-FEFF"
  />
<missing-glyph horiz-adv-x="559" 
d="M97 0v712h365v-712h-365zM424 674h-289v-636h289v636z" />
    <glyph glyph-name=".notdef" horiz-adv-x="559" 
d="M97 0v712h365v-712h-365zM424 674h-289v-636h289v636z" />
    <glyph glyph-name=".null" horiz-adv-x="0" 
 />
    <glyph glyph-name="nonmarkingreturn" unicode="&#xd;" horiz-adv-x="255" 
 />
    <glyph glyph-name="space" unicode=" " horiz-adv-x="255" 
 />
    <glyph glyph-name="exclam" unicode="!" horiz-adv-x="304" 
d="M191 192h-49l-3 520h55zM133 0v67h67v-67h-67z" />
    <glyph glyph-name="quotedbl" unicode="&#x22;" horiz-adv-x="408" 
d="M95 556v156h63v-156h-63zM250 556v156h63v-156h-63z" />
    <glyph glyph-name="numbersign" unicode="#" horiz-adv-x="639" 
d="M488 437l-25 -153h96v-44h-103l-38 -240h-51l39 240h-176l-37 -240h-51l38 240h-96v44h103l25 153h-99v45h105l36 230h52l-37 -230h175l36 230h50l-36 -230h94v-45h-100zM437 437h-175l-25 -153h175z" />
    <glyph glyph-name="dollar" unicode="$" horiz-adv-x="587" 
d="M528 191c0 -58 -19 -104 -58 -139c-38 -35 -91 -54 -160 -57v-109h-45v108c-47 2 -86 10 -119 26c-33 14 -64 37 -95 68l38 38c29 -29 56 -50 83 -62c27 -11 58 -18 93 -21v295c-34 3 -63 10 -87 21s-43 22 -56 33c-37 32 -56 76 -56 131c0 57 18 102 52 137
c36 34 84 53 147 57v89h45v-89c38 -2 71 -9 98 -21c28 -13 56 -31 84 -55l-35 -35c-19 17 -40 32 -63 44c-22 11 -50 18 -84 21v-290c25 -4 45 -8 62 -11c17 -4 31 -8 42 -12s21 -8 29 -13s16 -10 23 -16c19 -16 34 -36 46 -59c10 -24 16 -50 16 -79zM265 671
c-46 -3 -82 -18 -107 -44c-26 -26 -39 -60 -39 -102c0 -41 12 -72 37 -93c16 -13 33 -23 52 -30s38 -11 57 -14v283zM474 189c0 45 -13 78 -39 100c-9 7 -17 13 -25 17c-9 5 -18 8 -27 11s-20 5 -31 7c-12 1 -26 3 -42 6v-287c51 3 91 17 120 43c29 24 44 59 44 103z" />
    <glyph glyph-name="percent" unicode="%" horiz-adv-x="828" 
d="M288 583c0 30 -6 54 -20 71c-12 18 -35 27 -67 27s-55 -9 -68 -27c-13 -17 -20 -41 -20 -71v-103c0 -30 7 -54 20 -71s36 -26 68 -26s55 9 67 26c14 17 20 41 20 71v103zM332 478c0 -40 -12 -72 -36 -96c-24 -25 -56 -37 -95 -37s-71 12 -95 37c-25 24 -37 56 -37 96v107
c0 40 12 72 37 97c24 25 56 37 95 37s71 -12 95 -37s36 -57 36 -97v-107zM226 0l332 712h45l-332 -712h-45zM715 231c0 30 -7 54 -19 71c-14 18 -36 27 -68 27s-55 -9 -68 -27c-13 -17 -20 -41 -20 -71v-103c0 -30 7 -54 20 -71s36 -26 68 -26s54 9 68 26c12 17 19 41 19 71
v103zM759 126c0 -40 -12 -72 -36 -96c-24 -25 -56 -37 -95 -37s-71 12 -96 37c-24 24 -36 56 -36 96v107c0 40 12 72 36 97c25 25 57 37 96 37s71 -12 95 -37s36 -57 36 -97v-107z" />
    <glyph glyph-name="ampersand" unicode="&#x26;" horiz-adv-x="746" 
d="M593 0l-69 84c-7 -7 -16 -15 -29 -26c-13 -10 -28 -20 -47 -29c-18 -9 -39 -18 -63 -25c-24 -6 -51 -10 -80 -10c-33 0 -63 5 -89 14c-28 10 -51 24 -70 42c-20 18 -35 40 -46 64c-11 26 -16 53 -16 83c0 27 4 51 13 72s20 39 35 57c15 16 32 32 52 47s41 30 63 45
c-9 11 -19 23 -28 35s-18 25 -25 37c-8 14 -14 27 -19 42c-5 14 -7 29 -7 44c0 20 4 39 12 56c7 17 18 32 30 45c14 13 29 23 46 30c18 7 37 11 57 11s39 -4 57 -11c17 -7 32 -17 46 -31c12 -12 23 -28 30 -45c8 -17 12 -36 12 -56c0 -29 -8 -54 -24 -75
c-16 -20 -35 -38 -58 -53l-53 -36l204 -247c8 12 15 24 20 35s10 24 13 37c3 14 6 29 7 46s2 36 2 59h53c0 -45 -5 -85 -14 -121s-25 -68 -48 -96l102 -124h-69zM278 382c-19 -13 -37 -25 -54 -38c-16 -12 -31 -25 -44 -39s-23 -29 -30 -47c-8 -16 -12 -36 -12 -58
c0 -23 4 -45 12 -64s19 -36 34 -50s32 -25 52 -32c21 -8 43 -12 68 -12c29 0 58 5 90 16c30 10 64 31 100 63zM405 575c0 28 -9 51 -27 69c-17 17 -39 26 -65 26s-48 -9 -65 -26s-26 -39 -26 -66c0 -9 1 -18 3 -26c2 -9 6 -18 11 -28s12 -21 22 -34c8 -12 20 -26 34 -43
c17 11 32 21 46 30c13 9 25 19 35 29s18 20 23 32c6 10 9 23 9 37z" />
    <glyph glyph-name="quotesingle" unicode="'" horiz-adv-x="253" 
d="M95 556v156h63v-156h-63z" />
    <glyph glyph-name="parenleft" unicode="(" horiz-adv-x="284" 
d="M97 633c0 16 1 32 3 47c3 15 8 31 16 46c4 7 8 14 12 20s9 12 14 18s11 12 18 19c6 7 13 14 22 23l37 -37l-31 -31c-9 -10 -17 -21 -23 -34c-5 -11 -9 -22 -11 -35s-3 -27 -3 -42v-542c0 -15 1 -29 3 -42s6 -24 11 -35c6 -13 14 -24 23 -34l31 -31l-37 -37
c-17 17 -31 31 -40 42c-10 11 -19 23 -26 38c-9 17 -14 32 -16 46s-3 30 -3 47v554z" />
    <glyph glyph-name="parenright" unicode=")" horiz-adv-x="284" 
d="M187 79c0 -17 -1 -33 -3 -47s-7 -29 -16 -46c-7 -15 -16 -27 -26 -38c-9 -11 -23 -25 -40 -42l-37 37l31 31c9 10 17 21 23 34c5 11 9 22 11 35s3 27 3 42v542c0 15 -1 29 -3 42s-6 24 -11 35c-6 13 -14 24 -23 34l-31 31l37 37c17 -17 30 -31 40 -42s19 -23 26 -38
c8 -15 13 -31 16 -46c2 -15 3 -31 3 -47v-554z" />
    <glyph glyph-name="asterisk" unicode="*" horiz-adv-x="467" 
d="M373 438l-120 73l3 -141h-45l3 141l-120 -73l-22 38l123 68l-123 68l22 38l120 -73l-3 141h45l-3 -141l120 73l22 -38l-123 -68l123 -68z" />
    <glyph glyph-name="plus" unicode="+" 
d="M281 240v-181h-47v181h-181v47h181v180h47v-180h180v-47h-180z" />
    <glyph glyph-name="comma" unicode="," horiz-adv-x="258" 
d="M95 -136v204h68v-136z" />
    <glyph glyph-name="hyphen" unicode="-" horiz-adv-x="426" 
d="M82 240v47h262v-47h-262z" />
    <glyph glyph-name="period" unicode="." horiz-adv-x="264" 
d="M95 0v74h74v-74h-74z" />
    <glyph glyph-name="slash" unicode="/" horiz-adv-x="338" 
d="M53 -74h-53l285 860h53z" />
    <glyph glyph-name="zero" unicode="0" 
d="M444 184c0 -28 -5 -54 -14 -76c-9 -24 -22 -44 -38 -60c-17 -18 -36 -31 -60 -40c-22 -9 -48 -14 -75 -14s-53 5 -75 14c-24 9 -43 22 -60 40c-17 16 -30 36 -38 60c-10 22 -14 48 -14 76v344c0 28 4 54 14 76c8 24 21 44 38 60c17 18 36 31 60 40c22 9 48 14 75 14
s53 -5 75 -14c24 -9 43 -22 60 -40c16 -16 29 -36 38 -60c9 -22 14 -48 14 -76v-344zM393 523c0 21 -3 40 -9 59c-5 18 -14 34 -26 48c-11 13 -26 24 -42 32c-18 7 -37 11 -59 11s-41 -4 -59 -11c-16 -8 -31 -19 -42 -32c-12 -14 -21 -30 -26 -48c-6 -19 -9 -38 -9 -59v-334
c0 -21 3 -41 9 -59c5 -18 14 -34 26 -48c11 -13 26 -24 42 -32c18 -7 37 -11 59 -11s41 4 59 11c16 8 31 19 42 32c12 14 21 30 26 48c6 18 9 38 9 59v334z" />
    <glyph glyph-name="one" unicode="1" 
d="M262 0v654l-129 -114v61l129 111h51v-712h-51z" />
    <glyph glyph-name="two" unicode="2" 
d="M72 0v45l286 375c14 18 24 36 30 54c7 17 10 36 10 57c0 43 -12 77 -36 103c-23 26 -57 39 -101 39c-19 0 -36 -3 -53 -8s-31 -14 -44 -25c-12 -12 -22 -27 -29 -45s-11 -39 -11 -64h-51c0 27 4 51 13 74s21 42 37 59s36 30 59 40c23 9 50 14 79 14s55 -4 77 -14
c24 -8 43 -21 60 -38c16 -16 28 -36 38 -58c8 -24 13 -49 13 -77c0 -27 -4 -50 -11 -71s-20 -43 -38 -66l-267 -349h316v-45h-377z" />
    <glyph glyph-name="three" unicode="3" 
d="M447 190c0 -32 -5 -60 -15 -84c-11 -25 -25 -45 -43 -62s-39 -29 -64 -38s-51 -13 -80 -13c-28 0 -54 4 -77 11c-24 7 -45 18 -63 33s-33 33 -43 56c-12 23 -18 49 -20 80h51c2 -24 7 -45 17 -62c8 -17 20 -31 34 -42s30 -19 47 -23c17 -6 35 -8 54 -8c21 0 41 4 59 10
c19 8 35 18 48 30c14 14 25 29 32 48c8 19 12 40 12 64c0 48 -12 85 -36 112c-25 27 -64 40 -119 40h-12v45h12c48 0 83 12 107 37c22 25 34 60 34 106c0 23 -4 44 -10 62c-8 18 -17 33 -30 45s-27 21 -44 27c-17 7 -35 10 -54 10c-42 0 -75 -12 -99 -35s-38 -55 -43 -95
h-51c3 28 9 53 20 74c11 22 25 40 41 56c18 14 37 26 60 34c22 7 46 11 72 11c28 0 54 -5 77 -13c23 -10 43 -22 59 -38c17 -17 30 -37 39 -60s14 -49 14 -78c0 -38 -8 -71 -23 -98c-16 -27 -42 -49 -78 -64c40 -13 69 -35 88 -64c18 -30 27 -68 27 -114z" />
    <glyph glyph-name="four" unicode="4" 
d="M376 117v-117h-51v117h-282v45l262 550h54l-262 -550h228v226h51v-226h95v-45h-95z" />
    <glyph glyph-name="five" unicode="5" 
d="M451 233c0 -17 -1 -35 -1 -51c-2 -18 -4 -34 -8 -50c-3 -16 -9 -32 -16 -46c-7 -16 -17 -29 -30 -42c-34 -34 -80 -51 -137 -51c-61 0 -106 16 -137 48c-28 28 -44 67 -48 116h51c5 -38 19 -67 39 -88c22 -21 53 -31 95 -31c19 0 38 3 55 10c17 6 32 15 43 26
s19 22 25 35c5 13 9 26 12 40s4 28 5 43c1 14 1 28 1 41c0 22 -2 44 -4 67c-4 23 -10 43 -19 62c-9 18 -23 33 -41 44c-17 11 -40 17 -69 17c-33 0 -61 -7 -83 -19c-24 -14 -39 -32 -46 -56h-45v364h342v-45h-297v-252c31 35 76 53 135 53c51 0 91 -14 120 -43
c13 -13 23 -27 31 -42c7 -15 13 -31 17 -48s7 -34 8 -51s2 -34 2 -51z" />
    <glyph glyph-name="six" unicode="6" 
d="M448 201c0 -29 -4 -55 -12 -81c-9 -24 -21 -46 -37 -65s-36 -34 -59 -45c-23 -10 -50 -16 -80 -16s-57 5 -80 15s-43 24 -60 41c-16 18 -28 39 -36 64c-9 24 -13 51 -13 80c0 23 3 46 9 70c6 22 16 49 31 79l183 369h51l-164 -329c25 11 52 17 83 17c29 0 54 -5 78 -16
c22 -10 42 -24 58 -42c15 -18 27 -39 36 -63c8 -24 12 -50 12 -78zM397 197c0 21 -3 41 -9 61c-6 18 -15 35 -26 50s-26 26 -43 34c-17 9 -37 13 -60 13c-42 0 -75 -14 -100 -43s-37 -67 -37 -115s12 -86 37 -115s58 -43 100 -43s75 14 101 43c24 29 37 67 37 115z" />
    <glyph glyph-name="seven" unicode="7" 
d="M207 0h-52l252 667h-270v-112h-51v157h373v-45z" />
    <glyph glyph-name="eight" unicode="8" 
d="M460 192c0 -29 -5 -55 -16 -79c-10 -24 -24 -45 -42 -63c-19 -17 -40 -31 -65 -41s-51 -15 -80 -15s-55 5 -80 15s-46 24 -65 41c-18 18 -32 39 -42 63c-11 24 -16 50 -16 79c0 42 10 78 31 107s48 53 82 71c-65 36 -98 90 -98 162c0 26 5 50 14 73s22 42 39 59
c16 17 36 30 58 40c24 9 49 14 77 14s53 -5 77 -14c22 -10 42 -23 58 -40c17 -17 30 -36 39 -59s14 -47 14 -73c0 -73 -32 -127 -97 -162c34 -18 61 -42 82 -71c20 -29 30 -65 30 -107zM409 192c0 22 -4 42 -11 61c-8 19 -19 35 -32 49c-14 13 -30 24 -49 32s-39 12 -60 12
s-41 -4 -60 -12s-35 -19 -49 -32c-13 -14 -24 -30 -32 -49c-7 -19 -11 -39 -11 -61s4 -42 11 -61c8 -19 19 -35 32 -49c14 -13 30 -24 49 -32c19 -7 39 -11 60 -11s41 4 60 11c19 8 35 19 49 32c13 14 24 30 32 49c7 19 11 39 11 61zM394 532c0 21 -3 40 -10 57
s-16 32 -28 45c-12 12 -26 22 -44 28c-16 8 -35 11 -55 11s-39 -3 -55 -11c-18 -6 -32 -16 -44 -28c-12 -13 -21 -28 -28 -45s-10 -36 -10 -57s3 -40 10 -57s16 -32 28 -45c12 -12 26 -22 44 -28c16 -8 35 -11 55 -11s39 3 55 11c18 6 32 16 44 28c12 13 21 28 28 45
s10 36 10 57z" />
    <glyph glyph-name="nine" unicode="9" 
d="M443 518c0 -23 -3 -46 -9 -70c-6 -22 -16 -49 -31 -79l-183 -369h-51l164 329c-25 -11 -53 -17 -84 -17c-29 0 -55 5 -78 16c-23 10 -42 24 -57 42c-16 18 -28 39 -36 63s-12 50 -12 78c0 29 4 55 12 81c9 24 21 46 37 65s36 33 59 45c23 10 50 16 80 16s57 -5 80 -15
s43 -24 60 -41c16 -18 28 -39 36 -64c9 -25 13 -51 13 -80zM392 515c0 48 -12 86 -38 115c-24 29 -58 43 -100 43s-75 -14 -100 -43s-37 -67 -37 -115c0 -21 3 -41 9 -61c5 -18 14 -35 26 -50c11 -15 26 -26 42 -34c18 -9 37 -13 60 -13c42 0 76 14 100 43
c26 29 38 67 38 115z" />
    <glyph glyph-name="colon" unicode=":" horiz-adv-x="292" 
d="M123 0v74h74v-74h-74zM123 312v74h74v-74h-74z" />
    <glyph glyph-name="semicolon" unicode=";" horiz-adv-x="292" 
d="M125 -136v204h68v-136zM123 312v74h74v-74h-74z" />
    <glyph glyph-name="less" unicode="&#x3c;" 
d="M105 239v48l304 161v-55l-254 -130l254 -130v-55z" />
    <glyph glyph-name="equal" unicode="=" 
d="M53 163v47h408v-47h-408zM53 316v47h408v-47h-408z" />
    <glyph glyph-name="greater" unicode="&#x3e;" 
d="M105 78v55l254 130l-254 130v55l304 -161v-48z" />
    <glyph glyph-name="question" unicode="?" horiz-adv-x="488" 
d="M438 542c0 -23 -4 -44 -12 -62c-8 -19 -19 -38 -32 -57l-85 -125c-7 -9 -11 -20 -14 -31s-4 -21 -4 -29v-47h-51v45c0 19 2 36 7 48c5 14 12 27 22 42l84 124c10 15 18 30 25 43c6 13 9 30 9 49s-3 36 -9 52c-7 16 -16 30 -28 42c-11 11 -25 20 -40 27
c-16 7 -33 10 -51 10c-19 0 -37 -3 -53 -11c-16 -6 -30 -16 -40 -28c-12 -12 -20 -26 -26 -42s-9 -33 -9 -50h-51c0 24 4 47 13 68s21 40 37 56c15 16 34 29 56 38s46 14 73 14c25 0 49 -4 71 -14c22 -8 41 -21 57 -36c16 -16 29 -35 37 -56c10 -22 14 -45 14 -70zM232 0v67
h67v-67h-67z" />
    <glyph glyph-name="at" unicode="@" horiz-adv-x="697" 
d="M569 0v59c-17 -23 -36 -39 -58 -50s-49 -16 -81 -16c-59 0 -106 22 -139 65c-15 21 -26 45 -33 73s-10 65 -10 110c0 44 3 80 9 109c6 28 16 52 30 72c15 21 35 38 59 50c26 11 53 17 83 17c31 0 57 -5 80 -17c23 -10 43 -28 60 -51v89c0 29 -3 52 -9 70
c-6 17 -17 34 -32 49s-31 25 -49 32s-40 10 -65 10h-132c-25 0 -47 -3 -64 -10c-18 -7 -34 -17 -49 -32s-26 -32 -32 -49s-9 -41 -9 -70v-353c0 -17 1 -32 2 -44c2 -12 5 -23 10 -32s11 -18 19 -27c8 -8 18 -17 31 -26l-35 -35c-15 11 -28 21 -38 31c-10 11 -18 22 -24 34
c-6 13 -10 27 -13 42c-2 16 -3 35 -3 57v350c0 32 5 61 15 86c9 25 23 47 40 65c35 36 82 54 141 54h150c58 0 105 -18 141 -54c37 -37 56 -88 56 -151v-507h-51zM569 241c0 25 -1 49 -4 73s-9 46 -19 65c-9 19 -23 35 -40 47c-18 12 -42 18 -72 18s-54 -6 -72 -18
c-17 -12 -31 -28 -40 -47c-10 -19 -16 -41 -19 -65s-4 -48 -4 -73s1 -49 4 -73s9 -46 19 -65c9 -19 23 -35 40 -47c18 -12 42 -18 72 -18s54 6 72 18c17 12 31 28 40 47c10 19 16 41 19 65s4 48 4 73z" />
    <glyph glyph-name="A" unicode="A" horiz-adv-x="602" 
d="M529 0l-62 173h-332l-62 -173h-58l262 712h48l262 -712h-58zM152 221h298l-149 419z" />
    <glyph glyph-name="B" unicode="B" horiz-adv-x="671" 
d="M589 194c0 -32 -5 -60 -15 -84s-24 -44 -42 -60c-19 -17 -41 -29 -66 -38c-26 -8 -55 -12 -86 -12h-270v712h262c29 0 57 -4 82 -12c25 -9 47 -21 66 -37c18 -16 32 -35 42 -59c11 -22 16 -49 16 -78c0 -38 -10 -71 -30 -100c-19 -29 -46 -49 -81 -60
c39 -13 69 -35 90 -64c21 -30 32 -66 32 -108zM535 194c0 46 -15 82 -44 108c-29 25 -68 38 -117 38h-210v-292h210c49 0 88 13 117 38c29 26 44 62 44 108zM524 526c0 25 -4 46 -12 63c-9 17 -20 31 -34 43c-15 10 -32 19 -51 24s-40 8 -61 8h-202v-276h202c21 0 42 3 61 8
s36 14 51 24c14 12 25 26 34 43c8 17 12 38 12 63z" />
    <glyph glyph-name="C" unicode="C" horiz-adv-x="644" 
d="M568 202c-6 -32 -16 -61 -30 -86c-14 -26 -32 -48 -52 -66c-22 -18 -46 -32 -72 -42c-28 -9 -57 -14 -88 -14c-36 0 -68 6 -98 18c-28 12 -54 29 -75 50c-17 17 -30 33 -39 50c-9 16 -16 35 -21 57s-8 48 -9 77c-1 30 -2 67 -2 110s1 80 2 110c1 29 4 55 9 77
s12 41 21 57c9 17 22 33 39 50c21 21 47 38 75 50c30 12 62 18 98 18c65 0 118 -18 160 -56c43 -36 70 -87 82 -152h-55c-11 50 -33 89 -65 118c-34 28 -74 42 -122 42c-53 0 -98 -18 -135 -55c-13 -13 -23 -26 -30 -41s-13 -32 -17 -52c-3 -19 -6 -42 -6 -70
c-2 -26 -2 -59 -2 -96s0 -70 2 -96c0 -28 3 -51 6 -70c4 -20 10 -37 17 -52s17 -28 30 -41c37 -37 82 -55 135 -55c48 0 89 14 122 42c34 29 56 68 67 118h53z" />
    <glyph glyph-name="D" unicode="D" horiz-adv-x="678" 
d="M596 356c0 -27 0 -54 -1 -81s-3 -54 -8 -79s-12 -49 -21 -72s-22 -42 -39 -59c-43 -43 -103 -65 -178 -65h-239v712h239c75 0 135 -22 178 -65c17 -17 30 -37 39 -59c9 -23 16 -47 21 -72c5 -26 7 -52 8 -80c1 -26 1 -53 1 -80zM542 356c0 23 0 47 -1 71s-3 47 -6 69
c-3 23 -9 44 -15 63c-8 19 -18 36 -31 50c-21 21 -44 36 -71 43c-26 8 -53 12 -82 12h-172v-616h172c29 0 56 4 82 12c27 7 50 22 71 43c13 14 23 31 31 50c6 19 12 40 15 63c3 22 5 45 6 69s1 48 1 71z" />
    <glyph glyph-name="E" unicode="E" horiz-adv-x="598" 
d="M110 0v712h432v-48h-378v-281h322v-48h-322v-287h378v-48h-432z" />
    <glyph glyph-name="F" unicode="F" horiz-adv-x="576" 
d="M164 664v-293h322v-48h-322v-323h-54v712h432v-48h-378z" />
    <glyph glyph-name="G" unicode="G" horiz-adv-x="651" 
d="M571 248c0 -38 -4 -70 -13 -97s-24 -52 -45 -75c-23 -25 -51 -45 -84 -60s-67 -22 -103 -22s-68 6 -98 18c-28 12 -54 29 -75 50c-17 17 -30 33 -39 50c-9 16 -16 35 -21 57s-8 48 -9 77c-1 30 -2 67 -2 110s1 80 2 110c1 29 4 55 9 77s12 41 21 57c9 17 22 33 39 50
c21 21 47 38 75 50c30 12 62 18 98 18c31 0 60 -5 87 -15s52 -24 73 -42s39 -40 54 -65c14 -26 24 -55 29 -86h-54c-11 50 -33 89 -67 118c-33 28 -74 42 -122 42c-53 0 -98 -18 -135 -55c-13 -13 -23 -26 -30 -41s-13 -32 -17 -52c-3 -19 -6 -42 -6 -70
c-2 -26 -2 -59 -2 -96s0 -70 2 -96c0 -28 3 -51 6 -70c4 -20 10 -37 17 -52s17 -28 30 -41c37 -37 82 -55 135 -55c28 0 55 6 81 18c26 11 48 28 67 51c15 19 26 40 33 62s10 48 10 79v64h-191v48h245v-116z" />
    <glyph glyph-name="H" unicode="H" horiz-adv-x="699" 
d="M535 0v335h-371v-335h-54v712h54v-329h371v329h54v-712h-54z" />
    <glyph glyph-name="I" unicode="I" horiz-adv-x="274" 
d="M110 0v712h54v-712h-54z" />
    <glyph glyph-name="J" unicode="J" horiz-adv-x="498" 
d="M398 210c0 -33 -5 -62 -15 -88c-10 -27 -24 -50 -43 -68c-18 -20 -40 -34 -66 -44c-27 -11 -56 -16 -88 -16c-63 0 -115 20 -156 61l37 37c13 -13 29 -25 46 -35s42 -15 73 -15c52 0 91 15 118 46s40 75 40 133v491h54v-502z" />
    <glyph glyph-name="K" unicode="K" horiz-adv-x="645" 
d="M563 0l-229 399l-170 -206v-193h-54v712h54v-445l361 445h65l-220 -272l257 -440h-64z" />
    <glyph glyph-name="L" unicode="L" horiz-adv-x="572" 
d="M110 0v712h54v-664h378v-48h-432z" />
    <glyph glyph-name="M" unicode="M" horiz-adv-x="818" 
d="M654 0v587l-216 -487h-54l-220 487v-587h-54v712h54l248 -549l242 549h54v-712h-54z" />
    <glyph glyph-name="N" unicode="N" horiz-adv-x="739" 
d="M575 0l-411 619v-619h-54v712h54l411 -617v617h54v-712h-54z" />
    <glyph glyph-name="O" unicode="O" horiz-adv-x="652" 
d="M570 356c0 -43 -1 -80 -2 -110c-1 -29 -4 -55 -9 -77s-12 -41 -21 -57c-9 -17 -22 -33 -39 -50c-21 -21 -47 -38 -75 -50c-30 -12 -62 -18 -98 -18s-68 6 -98 18c-28 12 -54 29 -75 50c-17 17 -30 33 -39 50c-9 16 -16 35 -21 57s-8 48 -9 77c-1 30 -2 67 -2 110
s1 80 2 110c1 29 4 55 9 77s12 41 21 57c9 17 22 33 39 50c21 21 47 38 75 50c30 12 62 18 98 18s68 -6 98 -18c28 -12 54 -29 75 -50c17 -17 30 -33 39 -50c9 -16 16 -35 21 -57s8 -48 9 -77c1 -30 2 -67 2 -110zM516 356c0 37 0 70 -2 96c0 28 -3 51 -6 70
c-4 20 -10 37 -17 52s-17 28 -30 41c-37 37 -82 55 -135 55s-98 -18 -135 -55c-13 -13 -23 -26 -30 -41s-13 -32 -17 -52c-3 -19 -6 -42 -6 -70c-2 -26 -2 -59 -2 -96s0 -70 2 -96c0 -28 3 -51 6 -70c4 -20 10 -37 17 -52s17 -28 30 -41c37 -37 82 -55 135 -55s98 18 135 55
c13 13 23 26 30 41s13 32 17 52c3 19 6 42 6 70c2 26 2 59 2 96z" />
    <glyph glyph-name="P" unicode="P" horiz-adv-x="631" 
d="M586 507c0 -33 -6 -62 -16 -87c-12 -25 -26 -47 -46 -64c-18 -18 -41 -32 -68 -40c-26 -10 -54 -14 -85 -14h-207v-302h-54v712h261c31 0 59 -5 85 -14c27 -9 50 -23 68 -40c20 -17 34 -39 46 -64c10 -25 16 -54 16 -87zM532 507c0 53 -16 93 -46 119
c-32 25 -72 38 -121 38h-201v-314h201c49 0 89 13 121 38c30 26 46 66 46 119z" />
    <glyph glyph-name="Q" unicode="Q" horiz-adv-x="651" 
d="M570 356c0 -39 0 -72 -2 -100c0 -27 -3 -51 -6 -72s-8 -39 -15 -54c-7 -16 -16 -31 -28 -46l84 -84l-36 -36l-84 83c-20 -17 -43 -30 -70 -39s-56 -14 -87 -14c-36 0 -68 6 -98 18c-28 12 -54 29 -75 50c-17 17 -30 33 -39 50c-9 16 -16 35 -21 57s-8 48 -9 77
c-1 30 -2 67 -2 110s1 80 2 110c1 29 4 55 9 77s12 41 21 57c9 17 22 33 39 50c21 21 47 38 75 50c30 12 62 18 98 18s68 -6 98 -18c28 -12 54 -29 75 -50c17 -17 30 -33 39 -50c9 -16 16 -35 21 -57s8 -48 9 -77c1 -30 2 -67 2 -110zM516 356c0 37 0 70 -2 96
c0 28 -3 51 -6 70c-4 20 -10 37 -17 52s-17 28 -30 41c-37 37 -82 55 -135 55s-98 -18 -135 -55c-13 -13 -23 -26 -30 -41s-13 -32 -17 -52c-3 -19 -6 -42 -6 -70c-2 -26 -2 -59 -2 -96s0 -70 2 -96c0 -28 3 -51 6 -70c4 -20 10 -37 17 -52s17 -28 30 -41
c37 -37 82 -55 135 -55c47 0 87 14 121 42l-100 100l36 36l98 -99c8 12 14 25 19 39s8 30 10 48c3 19 4 40 5 64s1 52 1 84z" />
    <glyph glyph-name="R" unicode="R" horiz-adv-x="657" 
d="M530 0l-170 328h-196v-328h-54v712h271c29 0 55 -4 81 -12c24 -9 46 -21 64 -37c19 -16 33 -36 44 -60c10 -24 15 -51 15 -82c0 -54 -15 -97 -45 -130c-29 -33 -69 -53 -119 -62l172 -329h-63zM531 520c0 49 -15 86 -44 109s-67 35 -113 35h-210v-288h210
c46 0 84 12 113 35s44 60 44 109z" />
    <glyph glyph-name="S" unicode="S" horiz-adv-x="587" 
d="M528 191c0 -30 -6 -57 -16 -81c-12 -25 -27 -46 -48 -62c-21 -18 -46 -31 -76 -40c-29 -9 -63 -14 -100 -14c-53 0 -97 8 -134 22c-36 16 -70 39 -103 72l38 38c16 -16 31 -29 47 -40c14 -11 30 -19 46 -26s33 -11 50 -14c18 -3 38 -4 59 -4c57 0 101 13 134 38
c33 26 49 62 49 109c0 45 -13 78 -39 100c-6 5 -12 10 -19 14c-6 4 -13 7 -20 10c-8 3 -17 5 -28 7c-10 3 -22 5 -36 7l-83 13c-55 8 -97 25 -127 51c-37 31 -56 75 -56 132c0 30 5 57 16 81c10 24 24 44 44 62c18 16 42 30 69 38c27 10 58 14 92 14c44 0 81 -6 113 -18
c30 -13 61 -32 92 -59l-35 -35c-11 10 -22 19 -33 27s-24 15 -38 21c-13 6 -28 10 -46 14c-16 2 -35 4 -56 4c-52 0 -92 -13 -122 -39c-28 -26 -43 -62 -43 -108c0 -43 12 -74 36 -94c13 -11 28 -19 45 -26c18 -7 37 -12 57 -15l83 -13c17 -3 31 -5 43 -8s23 -6 33 -9
c9 -4 18 -9 26 -14c9 -5 17 -11 25 -18c19 -17 34 -36 45 -59s16 -49 16 -78z" />
    <glyph glyph-name="T" unicode="T" horiz-adv-x="539" 
d="M296 664v-664h-54v664h-212v48h479v-48h-213z" />
    <glyph glyph-name="U" unicode="U" horiz-adv-x="688" 
d="M588 231c0 -35 -6 -67 -18 -95c-12 -30 -29 -54 -50 -76c-22 -20 -48 -37 -78 -48c-29 -12 -62 -18 -98 -18s-69 6 -98 18c-30 11 -56 28 -78 48c-21 22 -38 46 -50 76c-12 28 -18 60 -18 95v481h54v-474c0 -29 4 -56 14 -80c8 -25 21 -46 38 -62c17 -18 37 -31 60 -40
s49 -14 78 -14s55 5 78 14s43 22 60 40c17 16 30 37 38 62c10 24 14 51 14 80v474h54v-481z" />
    <glyph glyph-name="V" unicode="V" horiz-adv-x="534" 
d="M290 0h-46l-234 712h57l200 -617l200 617h57z" />
    <glyph glyph-name="W" unicode="W" horiz-adv-x="842" 
d="M644 0h-55l-168 620l-168 -620h-55l-178 712h57l150 -619l166 619h56l166 -619l150 619h57z" />
    <glyph glyph-name="X" unicode="X" horiz-adv-x="532" 
d="M451 0l-186 317l-186 -317h-61l218 365l-204 347h63l170 -299l171 299h62l-204 -347l220 -365h-63z" />
    <glyph glyph-name="Y" unicode="Y" horiz-adv-x="494" 
d="M274 295v-295h-54v295l-210 417h58l181 -360l177 360h58z" />
    <glyph glyph-name="Z" unicode="Z" horiz-adv-x="559" 
d="M63 0v57l375 607h-360v48h418v-48l-378 -616h378v-48h-433z" />
    <glyph glyph-name="bracketleft" unicode="[" horiz-adv-x="290" 
d="M97 -74v860h148v-45h-97v-770h97v-45h-148z" />
    <glyph glyph-name="backslash" unicode="\" horiz-adv-x="338" 
d="M285 -74l-285 860h53l285 -860h-53z" />
    <glyph glyph-name="bracketright" unicode="]" horiz-adv-x="293" 
d="M45 -74v42h100v776h-100v42h151v-860h-151z" />
    <glyph glyph-name="asciicircum" unicode="^" 
d="M387 422l-130 242l-130 -242h-51l158 296h46l158 -296h-51z" />
    <glyph glyph-name="underscore" unicode="_" 
d="M0 -160v38h514v-38h-514z" />
    <glyph glyph-name="grave" unicode="`" horiz-adv-x="500" 
d="M239 590l-106 147h67l97 -147h-58z" />
    <glyph glyph-name="a" unicode="a" horiz-adv-x="524" 
d="M380 0v48c-21 -21 -42 -35 -64 -42c-21 -8 -49 -12 -83 -12c-36 0 -65 3 -87 10c-21 7 -40 18 -55 34c-11 11 -20 25 -26 42s-9 34 -9 52c0 44 15 78 44 102c30 25 71 37 124 37h156v54c0 39 -10 68 -30 88c-21 20 -56 30 -106 30c-34 0 -61 -5 -80 -14
c-20 -9 -38 -25 -53 -47l-37 32c21 29 44 48 70 58c27 11 60 16 100 16c65 0 112 -14 142 -41s45 -66 45 -117v-330h-51zM380 230h-150c-82 0 -123 -32 -123 -97c0 -32 10 -56 30 -71s52 -23 96 -23c22 0 43 2 63 6c21 4 40 14 57 31c18 17 27 47 27 92v62z" />
    <glyph glyph-name="b" unicode="b" horiz-adv-x="540" 
d="M471 241c0 -38 -4 -75 -13 -113c-8 -37 -24 -67 -49 -92c-13 -13 -29 -23 -49 -30c-21 -8 -44 -12 -69 -12c-28 0 -53 4 -77 13c-22 9 -45 27 -66 55v-62h-51v712h51v-292c21 28 44 46 66 55c24 9 49 13 77 13c25 0 48 -4 69 -12c20 -7 36 -17 49 -30
c25 -25 41 -56 49 -92c9 -38 13 -75 13 -113zM420 241c0 25 -2 49 -4 73c-4 25 -10 46 -20 66c-9 18 -23 34 -41 46c-18 11 -42 17 -71 17s-53 -6 -71 -17c-18 -12 -32 -28 -41 -46c-10 -20 -16 -41 -20 -66c-2 -24 -4 -48 -4 -73s2 -50 4 -74c4 -24 10 -45 20 -65
c9 -18 23 -34 41 -46c18 -11 42 -17 71 -17s53 6 71 17c18 12 32 28 41 46c10 20 16 41 20 65c2 24 4 49 4 74z" />
    <glyph glyph-name="c" unicode="c" horiz-adv-x="493" 
d="M440 68c-25 -29 -50 -48 -74 -58c-24 -11 -52 -16 -85 -16s-63 6 -89 17s-48 28 -66 49c-19 21 -33 47 -42 78c-10 31 -15 65 -15 103s5 72 15 103c9 31 23 57 42 78c18 21 40 38 66 49s56 17 89 17s61 -5 85 -16c24 -10 49 -29 74 -58l-35 -32c-21 23 -40 38 -59 48
c-18 8 -40 13 -65 13c-57 0 -99 -21 -128 -64c-12 -17 -21 -37 -25 -57c-6 -22 -8 -48 -8 -81s2 -59 8 -81c4 -20 13 -40 25 -57c29 -43 71 -64 128 -64c25 0 47 5 65 13c19 10 38 25 59 48z" />
    <glyph glyph-name="d" unicode="d" horiz-adv-x="540" 
d="M392 0v62c-21 -28 -44 -46 -66 -55c-24 -9 -49 -13 -77 -13c-25 0 -48 4 -69 12c-20 7 -36 17 -49 30c-25 25 -41 56 -49 92c-9 38 -13 75 -13 113s4 75 13 113c8 36 24 67 49 92c13 13 29 23 49 30c21 8 44 12 69 12c28 0 53 -4 77 -13c22 -9 45 -27 66 -55v292h51v-712
h-51zM392 241c0 25 -2 49 -4 73c-4 25 -10 46 -20 66c-9 18 -23 34 -41 46c-18 11 -42 17 -71 17s-53 -6 -71 -17c-18 -12 -32 -28 -41 -46c-10 -20 -16 -41 -20 -66c-2 -24 -4 -48 -4 -73s2 -50 4 -74c3 -24 10 -45 20 -65c9 -18 23 -34 41 -46c18 -11 42 -17 71 -17
s53 6 71 17c18 12 32 28 41 46c10 20 16 41 20 65c2 24 4 49 4 74z" />
    <glyph glyph-name="e" unicode="e" horiz-adv-x="523" 
d="M120 230c0 -62 13 -109 40 -142c26 -32 65 -48 117 -48c29 0 53 4 73 14c19 8 39 23 60 44l38 -30c-12 -12 -24 -23 -36 -32c-13 -9 -26 -17 -40 -24c-13 -6 -28 -10 -44 -14c-16 -2 -34 -4 -54 -4c-67 0 -118 21 -152 63c-36 42 -53 103 -53 184c0 79 17 139 51 183
c34 42 81 64 142 64s108 -20 142 -62c34 -40 51 -98 51 -173v-23h-335zM404 271c-1 11 -1 21 -2 29c-1 9 -2 16 -2 23c-2 7 -3 13 -5 19s-5 13 -8 20c-11 25 -27 45 -49 60c-23 14 -48 21 -76 21s-53 -7 -75 -21c-22 -15 -39 -35 -50 -60c-3 -7 -6 -14 -8 -20s-3 -12 -5 -19
c0 -7 -1 -14 -2 -23c-1 -8 -1 -18 -2 -29h284z" />
    <glyph glyph-name="f" unicode="f" horiz-adv-x="304" 
d="M163 444v-444h-51v444h-66v38h66v104c0 37 10 67 30 90c19 24 48 36 86 36h44v-45h-35c-25 0 -44 -7 -56 -21s-18 -34 -18 -59v-105h109v-38h-109z" />
    <glyph glyph-name="g" unicode="g" horiz-adv-x="540" 
d="M443 -27c0 -30 -4 -58 -13 -83c-9 -26 -22 -48 -38 -67c-18 -19 -38 -33 -62 -43c-25 -11 -53 -16 -84 -16c-18 0 -34 1 -48 4c-14 2 -27 6 -40 11c-12 5 -24 12 -35 20s-23 18 -36 29l34 34c9 -9 18 -16 27 -23s18 -12 27 -17c9 -4 20 -7 31 -10c11 -2 25 -3 40 -3
c25 0 47 4 66 13c18 8 33 20 45 34c12 16 21 33 27 54c5 20 8 42 8 66v86c-21 -28 -44 -46 -66 -55c-24 -9 -49 -13 -77 -13c-25 0 -48 4 -69 12c-20 7 -36 17 -49 30c-25 25 -41 56 -49 92c-9 38 -13 75 -13 113s4 75 13 113c8 36 24 67 49 92c13 13 29 23 49 30
c21 8 44 12 69 12c28 0 53 -4 77 -13c22 -9 45 -27 66 -55v62h51v-509zM392 241c0 25 -2 49 -4 73c-4 25 -10 46 -20 66c-9 18 -23 34 -41 46c-18 11 -42 17 -71 17s-53 -6 -71 -17c-18 -12 -32 -28 -41 -46c-10 -20 -16 -41 -20 -66c-2 -24 -4 -48 -4 -73s2 -50 4 -74
c3 -24 10 -45 20 -65c9 -18 23 -34 41 -46c18 -11 42 -17 71 -17s53 6 71 17c18 12 32 28 41 46c10 20 16 41 20 65c2 24 4 49 4 74z" />
    <glyph glyph-name="h" unicode="h" horiz-adv-x="559" 
d="M417 0v299c0 47 -11 82 -33 107c-23 25 -56 37 -100 37s-78 -12 -101 -37s-35 -60 -35 -107v-299h-51v712h51v-287c36 42 83 63 142 63c56 0 100 -16 131 -48c31 -31 47 -75 47 -132v-308h-51z" />
    <glyph glyph-name="i" unicode="i" horiz-adv-x="245" 
d="M97 0v482h51v-482h-51zM91 649v63h63v-63h-63z" />
    <glyph glyph-name="j" unicode="j" horiz-adv-x="245" 
d="M148 -105c0 -38 -9 -68 -28 -91s-48 -34 -88 -34h-44v45h35c29 0 48 7 59 19c10 14 15 34 15 62v586h51v-587zM91 649v63h63v-63h-63z" />
    <glyph glyph-name="k" unicode="k" horiz-adv-x="527" 
d="M424 0l-166 265l-110 -127v-138h-51v712h51v-502l239 272h65l-159 -180l194 -302h-63z" />
    <glyph glyph-name="l" unicode="l" horiz-adv-x="287" 
d="M211 0c-40 0 -69 11 -88 34s-28 53 -28 91v587h51v-586c0 -28 5 -48 16 -62c10 -12 29 -19 58 -19h35v-45h-44z" />
    <glyph glyph-name="m" unicode="m" horiz-adv-x="878" 
d="M737 0v299c0 47 -11 82 -33 107c-23 25 -56 37 -100 37c-42 0 -75 -12 -100 -36c-24 -24 -36 -57 -36 -99v-308h-51v299c0 47 -11 82 -33 107c-23 25 -56 37 -100 37s-78 -13 -101 -37c-23 -26 -35 -61 -35 -107v-299h-51v482h51v-57c36 42 84 63 143 63
c36 0 67 -8 93 -22c27 -16 47 -37 62 -66c18 29 41 50 68 66c28 14 60 22 96 22c27 0 51 -4 72 -12s40 -19 55 -34c34 -33 51 -77 51 -134v-308h-51z" />
    <glyph glyph-name="n" unicode="n" horiz-adv-x="559" 
d="M417 0v299c0 47 -11 82 -33 107c-23 25 -56 37 -100 37s-78 -13 -101 -37c-23 -26 -35 -61 -35 -107v-299h-51v482h51v-57c36 42 83 63 142 63c54 0 97 -15 128 -46c33 -32 50 -77 50 -134v-308h-51z" />
    <glyph glyph-name="o" unicode="o" horiz-adv-x="526" 
d="M457 241c0 -35 -4 -69 -11 -104s-24 -65 -49 -90c-35 -35 -80 -53 -134 -53s-99 18 -134 53c-25 25 -42 55 -49 90s-11 69 -11 104s4 69 11 104s24 65 49 90c35 35 80 53 134 53s99 -18 134 -53c25 -25 42 -55 49 -90s11 -69 11 -104zM406 241c0 14 0 28 -1 43
s-3 29 -5 44c-4 14 -8 27 -14 40c-5 13 -13 24 -23 34c-27 27 -61 41 -100 41s-73 -14 -100 -41c-10 -10 -18 -21 -23 -34c-6 -13 -10 -26 -14 -40c-2 -15 -4 -29 -5 -44s-1 -29 -1 -43s0 -28 1 -43s3 -29 5 -44c4 -14 8 -27 14 -40c5 -13 13 -24 23 -34
c27 -27 61 -41 100 -41s73 14 100 41c10 10 18 21 23 34c6 13 10 26 14 40c2 15 4 29 5 44s1 29 1 43z" />
    <glyph glyph-name="p" unicode="p" horiz-adv-x="540" 
d="M471 241c0 -38 -4 -75 -13 -113c-8 -37 -24 -67 -49 -92c-13 -13 -29 -23 -49 -30c-21 -8 -44 -12 -69 -12c-28 0 -53 4 -77 13c-22 9 -45 27 -66 55v-292h-51v712h51v-62c21 28 44 46 66 55c24 9 49 13 77 13c25 0 48 -4 69 -12c20 -7 36 -17 49 -30
c25 -25 41 -56 49 -92c9 -38 13 -75 13 -113zM420 241c0 25 -2 49 -4 73c-4 25 -10 46 -20 66c-9 18 -23 34 -41 46c-18 11 -42 17 -71 17s-53 -6 -71 -17c-18 -12 -32 -28 -41 -46c-10 -20 -16 -41 -20 -66c-2 -24 -4 -48 -4 -73s2 -50 4 -74c4 -24 10 -45 20 -65
c9 -18 23 -34 41 -46c18 -11 42 -17 71 -17s53 6 71 17c18 12 32 28 41 46c10 20 16 41 20 65c2 24 4 49 4 74z" />
    <glyph glyph-name="q" unicode="q" horiz-adv-x="540" 
d="M392 -230v292c-21 -28 -44 -46 -66 -55c-24 -9 -49 -13 -77 -13c-25 0 -48 4 -69 12c-20 7 -36 17 -49 30c-25 25 -41 56 -49 92c-9 38 -13 75 -13 113s4 75 13 113c8 36 24 67 49 92c13 13 29 23 49 30c21 8 44 12 69 12c28 0 53 -4 77 -13c22 -9 45 -27 66 -55v62h51
v-712h-51zM392 241c0 25 -2 49 -4 73c-4 25 -10 46 -20 66c-9 18 -23 34 -41 46c-18 11 -42 17 -71 17s-53 -6 -71 -17c-18 -12 -32 -28 -41 -46c-10 -20 -16 -41 -20 -66c-2 -24 -4 -48 -4 -73s2 -50 4 -74c3 -24 10 -45 20 -65c9 -18 23 -34 41 -46c18 -11 42 -17 71 -17
s53 6 71 17c18 12 32 28 41 46c10 20 16 41 20 65c2 24 4 49 4 74z" />
    <glyph glyph-name="r" unicode="r" horiz-adv-x="409" 
d="M368 405c-15 15 -28 25 -42 30c-12 5 -29 8 -49 8c-21 0 -39 -4 -55 -12s-30 -19 -40 -32c-12 -13 -20 -29 -26 -47c-5 -17 -8 -36 -8 -55v-297h-51v482h51v-64c14 23 34 40 60 52c25 12 52 18 81 18c23 0 44 -3 63 -10c18 -7 36 -19 53 -36z" />
    <glyph glyph-name="s" unicode="s" horiz-adv-x="494" 
d="M438 137c0 -44 -17 -79 -52 -105c-34 -25 -81 -38 -141 -38c-42 0 -79 6 -111 17c-31 11 -59 29 -84 52l35 35c37 -39 90 -59 158 -59c97 0 145 33 145 98c0 25 -7 44 -22 57s-38 21 -70 24l-80 7c-97 8 -145 50 -145 126c0 42 16 75 47 100s73 37 126 37
c34 0 65 -4 94 -14c29 -8 54 -21 75 -37l-34 -34c-37 27 -82 41 -135 41c-40 0 -70 -8 -92 -24c-20 -16 -31 -39 -31 -69c0 -25 8 -44 23 -57c16 -13 41 -21 75 -24l78 -7c20 -2 39 -5 56 -10s32 -12 45 -21c12 -9 22 -22 29 -37s11 -35 11 -58z" />
    <glyph glyph-name="t" unicode="t" horiz-adv-x="325" 
d="M225 0c-38 0 -67 12 -87 36c-19 23 -29 53 -29 90v318h-66v38h66v154h51v-154h109v-38h-109v-319c0 -25 6 -45 18 -59s31 -21 56 -21h35v-45h-44z" />
    <glyph glyph-name="u" unicode="u" horiz-adv-x="559" 
d="M411 0v57c-36 -42 -83 -63 -142 -63c-54 0 -97 15 -128 46c-33 32 -50 77 -50 134v308h51v-299c0 -47 11 -82 34 -107c22 -25 55 -37 99 -37s78 13 101 37c23 26 35 61 35 107v299h51v-482h-51z" />
    <glyph glyph-name="v" unicode="v" horiz-adv-x="430" 
d="M240 0h-50l-176 482h56l145 -422l145 422h56z" />
    <glyph glyph-name="w" unicode="w" horiz-adv-x="712" 
d="M544 0h-52l-136 402l-136 -402h-52l-154 482h56l123 -422l138 422h50l138 -422l123 422h56z" />
    <glyph glyph-name="x" unicode="x" horiz-adv-x="460" 
d="M358 0l-127 203l-129 -203h-62l163 246l-156 236h62l122 -194l120 194h62l-156 -236l163 -246h-62z" />
    <glyph glyph-name="y" unicode="y" horiz-adv-x="430" 
d="M192 -131c-9 -27 -20 -45 -33 -56c-12 -11 -26 -19 -43 -24c-16 -5 -32 -7 -48 -7h-24v45h19c14 0 25 1 35 3c8 3 16 7 23 12s12 12 17 20c5 9 9 19 13 31l39 107l-176 482h56l145 -422l145 422h56z" />
    <glyph glyph-name="z" unicode="z" horiz-adv-x="452" 
d="M54 0v48l290 389h-274v45h328v-48l-291 -389h291v-45h-344z" />
    <glyph glyph-name="braceleft" unicode="{" horiz-adv-x="316" 
d="M252 -74c-25 0 -44 2 -60 6c-14 4 -27 11 -37 21c-9 9 -16 21 -20 34s-6 34 -6 61v207c0 28 -6 48 -18 60c-5 5 -11 10 -19 13c-6 4 -15 6 -24 6h-18v44h18c9 0 18 2 24 6c8 3 14 8 19 13c12 12 18 32 18 60v207c0 27 2 48 6 61s11 25 20 34c10 10 23 17 37 21
c16 4 35 6 60 6h14v-45h-13c-18 0 -31 -1 -39 -3c-8 -1 -15 -5 -20 -10s-9 -13 -11 -22c-2 -10 -3 -24 -3 -43v-207c0 -26 -5 -46 -14 -62c-10 -14 -26 -27 -47 -38c21 -11 37 -24 47 -38c9 -16 14 -36 14 -62v-207c0 -19 1 -33 3 -43c2 -9 6 -17 11 -22s12 -9 20 -10
c8 -2 21 -3 39 -3h13v-45h-14z" />
    <glyph glyph-name="bar" unicode="|" horiz-adv-x="317" 
d="M133 -74v860h51v-860h-51z" />
    <glyph glyph-name="braceright" unicode="}" horiz-adv-x="316" 
d="M248 334c-9 0 -18 -2 -24 -6c-8 -3 -14 -8 -19 -13c-12 -12 -18 -32 -18 -60v-207c0 -27 -2 -48 -6 -61s-11 -25 -20 -34c-10 -10 -23 -17 -37 -21c-16 -4 -35 -6 -60 -6h-14v45h13c18 0 31 1 39 3c8 1 15 5 20 10s9 13 11 22c2 10 3 24 3 43v207c0 26 5 46 14 62
c10 14 26 27 47 38c-21 11 -37 24 -47 38c-9 16 -14 36 -14 62v207c0 19 -1 33 -3 43c-2 9 -6 17 -11 22s-12 9 -20 10c-8 2 -21 3 -39 3h-13v45h14c25 0 44 -2 60 -6c14 -4 27 -11 37 -21c9 -9 16 -21 20 -34s6 -34 6 -61v-207c0 -28 6 -48 18 -60c5 -5 11 -10 19 -13
c6 -4 15 -6 24 -6h18v-44h-18z" />
    <glyph glyph-name="asciitilde" unicode="~" 
d="M461 277c-13 -13 -25 -24 -35 -33c-11 -8 -20 -14 -29 -18c-9 -5 -17 -8 -25 -9s-17 -2 -27 -2c-17 0 -33 3 -50 10s-34 14 -52 21c-14 6 -27 11 -39 16c-11 5 -24 7 -37 7c-7 0 -14 -1 -19 -1l-18 -6c-6 -4 -13 -8 -20 -14s-16 -14 -26 -24l-31 31c13 13 25 24 35 33
c11 8 20 14 29 18c9 5 17 8 25 9s17 2 27 2c17 0 33 -3 50 -10s34 -14 52 -21c14 -6 27 -11 39 -16c11 -5 24 -7 37 -7c7 0 14 1 19 1l18 6c6 4 13 8 20 14s16 14 26 24z" />
    <glyph glyph-name="uni00A0" unicode="&#xa0;" horiz-adv-x="255" 
 />
    <glyph glyph-name="exclamdown" unicode="&#xa1;" horiz-adv-x="304" 
d="M110 -230l3 520h49l3 -520h-55zM104 415v67h67v-67h-67z" />
    <glyph glyph-name="cent" unicode="&#xa2;" horiz-adv-x="498" 
d="M440 193c-12 -13 -24 -25 -35 -34s-23 -17 -35 -23c-11 -5 -23 -9 -36 -12s-27 -4 -42 -5v-119h-43v121c-57 7 -101 32 -133 75c-31 43 -47 99 -47 170s16 127 47 170c32 43 76 68 133 75v101h43v-99c31 -1 57 -7 78 -18c22 -11 45 -29 70 -56l-35 -32
c-19 21 -37 37 -54 45c-17 10 -36 15 -59 16v-404c23 1 42 6 59 16c17 8 35 24 54 45zM249 565c-41 -7 -73 -27 -96 -61c-12 -17 -21 -36 -25 -58c-6 -20 -8 -47 -8 -80s2 -60 8 -80c4 -22 13 -41 25 -58c23 -34 55 -54 96 -61v398z" />
    <glyph glyph-name="sterling" unicode="&#xa3;" horiz-adv-x="537" 
d="M114 0v342h-64v38h64v122c0 33 5 62 15 88c10 27 24 50 43 68c18 20 40 34 66 44c27 11 56 16 88 16c63 0 115 -20 156 -61l-37 -37c-13 13 -29 25 -46 35s-42 15 -73 15c-52 0 -91 -15 -118 -46s-40 -75 -40 -133v-111h158v-38h-158v-294h314v-48h-368z" />
    <glyph glyph-name="currency" unicode="&#xa4;" horiz-adv-x="657" 
d="M545 265c0 -26 -4 -51 -12 -74s-20 -44 -35 -63l74 -74l-32 -32l-75 74c-38 -32 -84 -48 -137 -48s-99 16 -137 48l-74 -74l-32 32l74 74c-32 38 -48 84 -48 137c0 26 4 51 13 75c8 23 20 44 35 63l-74 73l32 32l74 -73c19 15 40 27 63 35s48 12 74 12s51 -4 74 -12
s44 -20 63 -35l75 73l32 -32l-74 -73c15 -19 27 -40 35 -63c8 -24 12 -49 12 -75zM497 265c0 23 -4 45 -13 66s-21 39 -36 54s-33 27 -54 36s-43 13 -66 13s-45 -4 -66 -13s-39 -21 -54 -36s-27 -33 -36 -54s-13 -43 -13 -66s4 -45 13 -66s21 -39 36 -54s33 -27 54 -36
s43 -13 66 -13s45 4 66 13s39 21 54 36s27 33 36 54s13 43 13 66z" />
    <glyph glyph-name="yen" unicode="&#xa5;" horiz-adv-x="493" 
d="M320 386h108v-38h-127l-27 -53v-53h154v-38h-154v-204h-54v204h-155v38h155v53l-27 53h-128v38h109l-164 326h57l181 -361l179 361h56z" />
    <glyph glyph-name="brokenbar" unicode="&#xa6;" horiz-adv-x="328" 
d="M133 -74v350h51v-350h-51zM133 436v350h51v-350h-51z" />
    <glyph glyph-name="section" unicode="&#xa7;" horiz-adv-x="566" 
d="M469 247c0 -21 -3 -41 -9 -59c-6 -17 -14 -33 -24 -48c-10 -14 -22 -26 -35 -37s-27 -19 -42 -26c32 -11 57 -29 75 -54c19 -25 28 -56 28 -92c0 -24 -4 -46 -13 -67s-21 -38 -37 -53s-35 -26 -57 -35c-22 -8 -46 -12 -72 -12c-25 0 -49 4 -70 10c-21 8 -40 18 -57 30
c-16 14 -29 30 -39 49s-16 41 -18 66h54c3 -36 16 -63 39 -81c23 -17 53 -26 91 -26s68 10 91 30c23 21 34 50 34 89c0 27 -8 50 -26 70c-16 20 -39 34 -68 42l-83 23c-43 12 -76 34 -99 66c-23 33 -35 71 -35 115c0 21 3 40 9 58s14 34 24 49c10 14 22 26 35 37
s27 19 42 26c-32 13 -57 31 -73 53c-18 22 -26 51 -26 88c0 25 5 47 14 67s22 37 38 51c15 13 34 24 55 31s44 11 68 11c23 0 45 -3 67 -10c20 -7 39 -16 55 -29s29 -29 39 -47c10 -20 16 -41 17 -65h-53c-3 38 -16 65 -38 81c-21 15 -50 23 -87 23c-38 0 -68 -9 -89 -28
c-22 -19 -33 -47 -33 -85c0 -31 9 -54 26 -71s39 -29 65 -36l83 -23c42 -12 75 -34 99 -67c23 -33 35 -71 35 -114zM415 247c0 19 -2 37 -7 54c-4 17 -13 32 -28 47c-27 27 -60 41 -97 41c-39 0 -72 -14 -97 -41c-13 -15 -22 -30 -28 -46c-4 -15 -7 -34 -7 -55
c0 -23 3 -42 9 -59c6 -16 15 -30 26 -42c25 -27 58 -41 97 -41s72 14 97 41c11 13 20 27 26 42c6 16 9 36 9 59z" />
    <glyph glyph-name="dieresis" unicode="&#xa8;" horiz-adv-x="500" 
d="M117 600v77h58v-77h-58zM325 600v77h58v-77h-58z" />
    <glyph glyph-name="copyright" unicode="&#xa9;" horiz-adv-x="894" 
d="M809 356c0 -50 -9 -97 -29 -141c-18 -44 -44 -82 -77 -115s-71 -58 -115 -78c-44 -18 -91 -28 -141 -28s-97 10 -141 28c-44 20 -82 45 -115 78s-59 71 -77 115c-20 44 -29 91 -29 141s9 97 29 141c18 44 44 82 77 115s71 58 115 78c44 18 91 28 141 28s97 -10 141 -28
c44 -20 82 -45 115 -78s59 -71 77 -115c20 -44 29 -91 29 -141zM761 356c0 43 -8 83 -25 122s-39 72 -68 102c-28 28 -61 52 -100 68c-38 18 -78 26 -121 26s-84 -8 -122 -26c-38 -16 -71 -40 -99 -68c-29 -30 -51 -63 -68 -102s-25 -79 -25 -122s8 -84 25 -122
c17 -39 39 -72 68 -102c28 -28 61 -52 99 -68c38 -18 79 -26 122 -26s83 8 121 26c39 16 72 40 100 68c29 30 51 63 68 102c17 38 25 79 25 122zM582 202c-19 -17 -39 -30 -59 -39s-44 -13 -72 -13c-31 0 -57 6 -79 16c-23 12 -41 26 -56 45c-14 19 -24 41 -32 65
c-6 26 -10 52 -10 80s4 54 10 80c8 24 18 46 32 66c15 18 33 34 56 44c22 12 48 17 79 17c28 0 52 -4 71 -13c19 -8 39 -21 60 -40l-30 -30c-18 16 -34 27 -49 33s-32 9 -52 9c-25 0 -47 -4 -63 -14c-18 -8 -31 -21 -41 -36s-17 -33 -21 -53c-5 -20 -7 -41 -7 -63
s2 -43 7 -63c4 -20 11 -37 21 -53c10 -14 23 -26 41 -36c16 -8 38 -13 63 -13c20 0 37 3 52 9c15 5 31 16 49 32z" />
    <glyph glyph-name="ordfeminine" unicode="&#xaa;" horiz-adv-x="447" 
d="M313 327v36c-16 -15 -33 -26 -49 -32c-18 -6 -39 -9 -65 -9c-28 0 -51 2 -67 8c-18 4 -32 14 -45 27c-9 9 -16 21 -21 33c-5 14 -7 27 -7 42c0 36 12 64 35 82c23 20 56 29 98 29h121v42c0 30 -8 53 -24 68s-43 23 -81 23c-27 0 -48 -4 -63 -10c-15 -8 -29 -20 -41 -38
l-32 27c17 23 37 39 58 47c21 9 47 13 78 13c50 0 87 -11 112 -33c24 -22 36 -53 36 -93v-262h-43zM313 508h-116c-63 0 -95 -25 -95 -75c0 -25 8 -43 23 -55c15 -11 40 -17 74 -17c17 0 34 1 50 5c16 2 31 10 44 23s20 37 20 72v47z" />
    <glyph glyph-name="guillemotleft" unicode="&#xab;" horiz-adv-x="527" 
d="M42 265l196 196v-66l-130 -130l130 -130v-66zM249 265l196 196v-66l-130 -130l130 -130v-66z" />
    <glyph glyph-name="logicalnot" unicode="&#xac;" 
d="M414 107v133h-361v47h408v-180h-47z" />
    <glyph glyph-name="uni00AD" unicode="&#xad;" horiz-adv-x="426" 
d="M82 240v47h262v-47h-262z" />
    <glyph glyph-name="registered" unicode="&#xae;" horiz-adv-x="894" 
d="M809 356c0 -50 -9 -97 -29 -141c-18 -44 -44 -82 -77 -115s-71 -58 -115 -78c-44 -18 -91 -28 -141 -28s-97 10 -141 28c-44 20 -82 45 -115 78s-59 71 -77 115c-20 44 -29 91 -29 141s9 97 29 141c18 44 44 82 77 115s71 58 115 78c44 18 91 28 141 28s97 -10 141 -28
c44 -20 82 -45 115 -78s59 -71 77 -115c20 -44 29 -91 29 -141zM762 356c0 43 -8 84 -25 123s-39 73 -67 101c-29 30 -62 52 -100 70c-39 16 -80 25 -123 25s-84 -9 -123 -25c-38 -18 -71 -40 -100 -70c-28 -28 -50 -62 -67 -101s-25 -80 -25 -123s8 -84 25 -123
s39 -73 67 -101c29 -30 62 -52 100 -70c39 -16 80 -25 123 -25s84 9 123 25c38 18 71 40 100 70c28 28 50 62 67 101s25 80 25 123zM444 323h-66v-167h-45v401h128c17 0 33 -3 47 -9c16 -6 29 -14 40 -24c11 -11 20 -23 27 -38s10 -30 10 -47c0 -30 -9 -54 -25 -73
c-18 -19 -39 -32 -66 -39l101 -171h-52zM540 439c0 22 -8 40 -24 55s-36 22 -60 22h-78v-153h78c24 0 44 7 60 21c16 15 24 33 24 55z" />
    <glyph glyph-name="macron" unicode="&#xaf;" horiz-adv-x="500" 
d="M102 610v46h296v-46h-296z" />
    <glyph glyph-name="degree" unicode="&#xb0;" horiz-adv-x="458" 
d="M386 562c0 -22 -4 -42 -12 -62c-9 -18 -20 -35 -34 -49s-30 -25 -50 -33c-18 -9 -39 -13 -61 -13s-43 4 -61 13c-20 8 -36 19 -50 33s-25 31 -34 49c-8 20 -12 40 -12 62s4 42 12 62c9 18 20 35 34 49s30 25 50 33c18 9 39 13 61 13s43 -4 61 -13c20 -8 36 -19 50 -33
s25 -31 34 -49c8 -20 12 -40 12 -62zM341 562c0 16 -3 31 -9 45c-5 14 -13 26 -24 37c-10 10 -22 18 -36 24c-13 6 -28 9 -44 9s-31 -3 -44 -9c-14 -5 -26 -13 -36 -24c-9 -10 -17 -22 -22 -36c-6 -14 -9 -29 -9 -46s3 -32 9 -46c5 -14 13 -26 23 -36c10 -11 22 -19 35 -24
c14 -6 29 -9 45 -9s31 3 45 9c13 5 25 13 35 24c10 10 18 22 23 36c6 14 9 29 9 46z" />
    <glyph glyph-name="plusminus" unicode="&#xb1;" 
d="M281 270v-182h-47v182h-181v47h181v181h47v-181h180v-47h-180zM53 0v47h408v-47h-408z" />
    <glyph glyph-name="twosuperior" unicode="&#xb2;" horiz-adv-x="313" 
d="M44 285v40l168 213c15 21 23 41 23 62c0 23 -6 42 -19 56c-13 13 -31 20 -54 20c-19 0 -37 -6 -52 -17c-14 -11 -22 -31 -22 -59h-44c0 34 11 62 32 84c21 21 50 32 86 32s65 -10 86 -31s32 -49 32 -85c0 -17 -3 -32 -8 -45s-14 -27 -26 -42l-149 -188h183v-40h-236z" />
    <glyph glyph-name="threesuperior" unicode="&#xb3;" horiz-adv-x="313" 
d="M282 403c0 -20 -3 -37 -10 -53c-6 -14 -15 -27 -26 -38c-11 -10 -25 -18 -40 -23s-32 -8 -49 -8s-34 2 -49 7c-14 5 -28 12 -39 21s-21 21 -27 35c-8 15 -11 32 -12 51h45c1 -27 10 -46 27 -57c16 -11 34 -17 55 -17c23 0 42 7 57 22c16 15 24 35 24 60s-7 45 -20 59
c-14 15 -35 22 -64 22h-8v39h8c25 0 44 7 57 21c13 13 19 32 19 55c0 25 -8 45 -22 57c-16 14 -33 20 -52 20c-23 0 -40 -6 -54 -19c-12 -13 -20 -30 -22 -51h-44c3 35 15 62 38 81c22 19 49 29 82 29c36 0 65 -10 86 -31s32 -49 32 -85c0 -46 -19 -77 -57 -94
c43 -16 65 -50 65 -103z" />
    <glyph glyph-name="acute" unicode="&#xb4;" horiz-adv-x="500" 
d="M261 590h-58l97 147h67z" />
    <glyph glyph-name="mu" unicode="&#x3bc;" horiz-adv-x="556" 
d="M408 0v57c-36 -42 -83 -63 -142 -63c-53 0 -95 15 -127 45v-269h-51v712h51v-299c0 -47 11 -82 33 -107c23 -25 56 -37 100 -37s78 13 101 37c23 26 35 61 35 107v299h51v-482h-51z" />
    <glyph glyph-name="paragraph" unicode="&#xb6;" horiz-adv-x="579" 
d="M418 -230v894h-123v-894h-51v562c-32 0 -60 6 -85 16c-25 12 -45 26 -63 44c-16 18 -29 38 -38 61s-13 46 -13 69c0 25 5 48 13 71c10 23 23 43 41 61c18 17 40 31 67 42c26 11 56 16 90 16h213v-942h-51z" />
    <glyph glyph-name="periodcentered" unicode="&#xb7;" horiz-adv-x="264" 
d="M95 227v74h74v-74h-74z" />
    <glyph glyph-name="cedilla" unicode="&#xb8;" horiz-adv-x="500" 
d="M244 -220h-63l72 150h55z" />
    <glyph glyph-name="onesuperior" unicode="&#xb9;" horiz-adv-x="313" 
d="M152 285v378l-80 -71v51l80 69h44v-427h-44z" />
    <glyph glyph-name="ordmasculine" unicode="&#xba;" horiz-adv-x="452" 
d="M380 519c0 -28 -3 -55 -8 -83c-6 -26 -19 -50 -40 -71c-28 -28 -63 -42 -106 -42s-78 14 -106 42c-21 21 -34 45 -40 71c-5 28 -8 55 -8 83s3 55 8 83c6 26 19 50 40 71c28 28 63 42 106 42s78 -14 106 -42c21 -21 34 -45 40 -71c5 -28 8 -55 8 -83zM337 519
c0 21 -2 44 -5 67s-13 43 -28 58c-21 21 -47 32 -78 32s-57 -11 -78 -32c-15 -15 -25 -35 -28 -58s-5 -46 -5 -67s2 -44 5 -67s13 -43 28 -58c10 -10 22 -18 35 -24c13 -5 28 -8 43 -8s30 3 43 8c13 6 25 14 35 24c15 15 25 35 28 58s5 46 5 67z" />
    <glyph glyph-name="guillemotright" unicode="&#xbb;" horiz-adv-x="527" 
d="M82 69v66l130 130l-130 130v66l196 -196zM289 69v66l130 130l-130 130v66l196 -196z" />
    <glyph glyph-name="onequarter" unicode="&#xbc;" horiz-adv-x="803" 
d="M152 285v378l-80 -71v51l80 69h44v-427h-44zM258 0h-45l332 712h45zM728 67v-67h-44v67h-170v40l154 320h47l-153 -320h122v120h44v-120h52v-40h-52z" />
    <glyph glyph-name="onehalf" unicode="&#xbd;" horiz-adv-x="803" 
d="M152 285v378l-80 -71v51l80 69h44v-427h-44zM258 0h-45l332 712h45zM534 0v40l168 213c15 21 23 41 23 62c0 23 -6 42 -19 55c-13 14 -31 21 -54 21c-19 0 -36 -6 -52 -17c-14 -11 -22 -31 -22 -59h-44c0 34 11 62 32 83c21 22 50 33 86 33s65 -10 86 -31s32 -49 32 -85
c0 -17 -3 -32 -8 -45s-14 -27 -26 -42l-149 -188h183v-40h-236z" />
    <glyph glyph-name="threequarters" unicode="&#xbe;" horiz-adv-x="803" 
d="M282 403c0 -20 -3 -37 -10 -53c-6 -14 -15 -27 -26 -38c-11 -10 -25 -18 -40 -23s-32 -8 -49 -8s-34 2 -49 7c-14 5 -28 12 -39 21s-21 21 -27 35c-8 15 -11 32 -12 51h45c1 -27 10 -46 27 -57c16 -11 34 -17 55 -17c23 0 42 7 57 22c16 15 24 35 24 60s-7 45 -20 59
c-14 15 -35 22 -64 22h-8v39h8c25 0 44 7 57 21c13 13 19 32 19 55c0 25 -8 45 -22 57c-16 14 -33 20 -52 20c-23 0 -40 -6 -54 -19c-12 -13 -20 -30 -22 -51h-44c3 35 15 62 38 81c22 19 49 29 82 29c36 0 65 -10 86 -31s32 -49 32 -85c0 -46 -19 -77 -57 -94
c43 -16 65 -50 65 -103zM258 0h-45l332 712h45zM728 67v-67h-44v67h-170v40l154 320h47l-153 -320h122v120h44v-120h52v-40h-52z" />
    <glyph glyph-name="questiondown" unicode="&#xbf;" horiz-adv-x="488" 
d="M408 -60c0 -24 -4 -47 -13 -68s-21 -40 -37 -56c-15 -16 -34 -29 -56 -38s-46 -14 -73 -14c-25 0 -49 4 -71 14c-22 8 -41 21 -57 36c-16 16 -29 35 -37 56c-10 21 -14 45 -14 70c0 23 4 44 12 62c8 19 19 38 32 57l85 125c7 9 11 20 14 31s4 21 4 29v47h51v-45
c0 -19 -2 -36 -7 -48c-5 -14 -12 -27 -22 -42l-84 -124c-10 -15 -18 -30 -25 -43c-6 -13 -9 -30 -9 -49s3 -36 9 -52c7 -16 16 -30 28 -42c11 -11 25 -20 40 -27c16 -7 33 -10 51 -10c19 0 37 3 53 11c16 6 30 16 40 28c12 12 20 26 26 42s9 33 9 50h51zM189 415v67h67v-67
h-67z" />
    <glyph glyph-name="Agrave" unicode="&#xc0;" horiz-adv-x="602" 
d="M529 0l-62 173h-332l-62 -173h-58l262 712h48l262 -712h-58zM152 221h298l-149 419zM291 780l-106 147h67l97 -147h-58z" />
    <glyph glyph-name="Aacute" unicode="&#xc1;" horiz-adv-x="602" 
d="M529 0l-62 173h-332l-62 -173h-58l262 712h48l262 -712h-58zM152 221h298l-149 419zM313 780h-58l97 147h67z" />
    <glyph glyph-name="Acircumflex" unicode="&#xc2;" horiz-adv-x="602" 
d="M529 0l-62 173h-332l-62 -173h-58l262 712h48l262 -712h-58zM152 221h298l-149 419zM395 780l-93 109l-93 -109h-57l123 147h54l123 -147h-57z" />
    <glyph glyph-name="Atilde" unicode="&#xc3;" horiz-adv-x="602" 
d="M529 0l-62 173h-332l-62 -173h-58l262 712h48l262 -712h-58zM152 221h298l-149 419zM451 843c-11 -11 -21 -20 -31 -27c-8 -7 -17 -12 -24 -14c-7 -4 -14 -5 -19 -6s-10 -1 -15 -1c-11 0 -22 2 -32 5c-9 3 -22 10 -37 19c-9 5 -19 10 -27 15c-10 4 -19 6 -29 6
c-8 0 -16 -2 -24 -5s-20 -13 -35 -28l-30 29c11 11 22 20 30 27c10 7 18 11 24 15c8 2 14 4 20 5c5 1 10 1 15 1c15 0 27 -2 37 -6c9 -5 20 -11 32 -18c11 -7 20 -12 28 -16c9 -3 18 -5 28 -5c7 0 15 2 24 5c8 3 20 13 35 28l30 -29v0z" />
    <glyph glyph-name="Adieresis" unicode="&#xc4;" horiz-adv-x="602" 
d="M529 0l-62 173h-332l-62 -173h-58l262 712h48l262 -712h-58zM152 221h298l-149 419zM169 790v77h58v-77h-58zM377 790v77h58v-77h-58z" />
    <glyph glyph-name="Aring" unicode="&#xc5;" horiz-adv-x="602" 
d="M529 0l-62 173h-332l-62 -173h-58l262 712h48l262 -712h-58zM152 221h298l-149 419zM415 861c0 -16 -3 -31 -9 -45c-6 -13 -14 -25 -24 -36c-11 -11 -23 -19 -36 -25c-14 -6 -29 -9 -45 -9s-31 3 -45 9c-13 6 -25 14 -36 25c-10 11 -18 23 -24 36c-6 14 -9 29 -9 45
s3 31 9 45c6 13 14 25 24 36c11 10 23 18 36 24c14 6 29 9 45 9s31 -3 45 -9c13 -6 25 -14 36 -24c10 -11 18 -23 24 -36c6 -14 9 -29 9 -45zM374 861c0 20 -7 37 -22 51c-14 14 -31 21 -51 21s-37 -7 -51 -21c-15 -14 -22 -31 -22 -51s7 -37 22 -51c14 -15 31 -22 51 -22
s37 7 51 22c15 14 22 31 22 51z" />
    <glyph glyph-name="AE" unicode="&#xc6;" horiz-adv-x="901" 
d="M414 0v173h-255l-90 -173h-59l377 712h458v-48h-378v-284h322v-48h-322v-284h378v-48h-431zM414 664l-232 -443h232v443z" />
    <glyph glyph-name="Ccedilla" unicode="&#xc7;" horiz-adv-x="644" 
d="M568 202c-6 -32 -16 -61 -30 -86c-14 -26 -32 -48 -52 -66c-22 -18 -46 -32 -72 -42c-28 -9 -57 -14 -88 -14c-36 0 -68 6 -98 18c-28 12 -54 29 -75 50c-17 17 -30 33 -39 50c-9 16 -16 35 -21 57s-8 48 -9 77c-1 30 -2 67 -2 110s1 80 2 110c1 29 4 55 9 77
s12 41 21 57c9 17 22 33 39 50c21 21 47 38 75 50c30 12 62 18 98 18c65 0 118 -18 160 -56c43 -36 70 -87 82 -152h-55c-11 50 -33 89 -65 118c-34 28 -74 42 -122 42c-53 0 -98 -18 -135 -55c-13 -13 -23 -26 -30 -41s-13 -32 -17 -52c-3 -19 -6 -42 -6 -70
c-2 -26 -2 -59 -2 -96s0 -70 2 -96c0 -28 3 -51 6 -70c4 -20 10 -37 17 -52s17 -28 30 -41c37 -37 82 -55 135 -55c48 0 89 14 122 42c34 29 56 68 67 118h53zM302 -220h-63l72 150h55z" />
    <glyph glyph-name="Egrave" unicode="&#xc8;" horiz-adv-x="598" 
d="M110 0v712h432v-48h-378v-281h322v-48h-322v-287h378v-48h-432zM304 780l-106 147h67l97 -147h-58z" />
    <glyph glyph-name="Eacute" unicode="&#xc9;" horiz-adv-x="598" 
d="M110 0v712h432v-48h-378v-281h322v-48h-322v-287h378v-48h-432zM326 780h-58l97 147h67z" />
    <glyph glyph-name="Ecircumflex" unicode="&#xca;" horiz-adv-x="598" 
d="M110 0v712h432v-48h-378v-281h322v-48h-322v-287h378v-48h-432zM408 780l-93 109l-93 -109h-57l123 147h54l123 -147h-57z" />
    <glyph glyph-name="Edieresis" unicode="&#xcb;" horiz-adv-x="598" 
d="M110 0v712h432v-48h-378v-281h322v-48h-322v-287h378v-48h-432zM182 790v77h58v-77h-58zM390 790v77h58v-77h-58z" />
    <glyph glyph-name="Igrave" unicode="&#xcc;" horiz-adv-x="274" 
d="M110 0v712h54v-712h-54zM114 780l-106 147h67l97 -147h-58z" />
    <glyph glyph-name="Iacute" unicode="&#xcd;" horiz-adv-x="274" 
d="M162 780h-58l97 147h67zM110 0v712h54v-712h-54z" />
    <glyph glyph-name="Icircumflex" unicode="&#xce;" horiz-adv-x="274" 
d="M110 0v712h54v-712h-54zM233 780l-93 109l-93 -109h-57l123 147h54l123 -147h-57z" />
    <glyph glyph-name="Idieresis" unicode="&#xcf;" horiz-adv-x="274" 
d="M110 0v712h54v-712h-54zM5 790v77h58v-77h-58zM213 790v77h58v-77h-58z" />
    <glyph glyph-name="Eth" unicode="&#xd0;" horiz-adv-x="689" 
d="M607 356c0 -27 0 -54 -1 -81s-3 -54 -8 -79s-12 -49 -21 -72s-22 -42 -39 -59c-43 -43 -103 -65 -178 -65h-239v338h-81v42h81v332h239c75 0 135 -22 178 -65c17 -17 30 -37 39 -59c9 -23 16 -47 21 -72c5 -26 7 -52 8 -80c1 -26 1 -53 1 -80zM553 356c0 23 0 47 -1 71
s-3 47 -6 69c-3 23 -8 44 -16 63c-6 19 -17 36 -30 50c-21 21 -44 36 -70 43c-27 8 -54 12 -83 12h-172v-284h178v-42h-178v-290h172c29 0 56 4 83 12c26 7 49 22 70 43c13 14 24 31 30 50c8 19 13 40 16 63c3 22 5 45 6 69s1 48 1 71z" />
    <glyph glyph-name="Ntilde" unicode="&#xd1;" horiz-adv-x="739" 
d="M575 0l-411 619v-619h-54v712h54l411 -617v617h54v-712h-54zM519 843c-11 -11 -21 -20 -31 -27c-8 -7 -17 -12 -24 -14c-7 -4 -14 -5 -19 -6s-10 -1 -15 -1c-11 0 -22 2 -32 5c-9 3 -22 10 -37 19c-9 5 -19 10 -27 15c-10 4 -19 6 -29 6c-8 0 -16 -2 -24 -5
s-20 -13 -35 -28l-30 29c11 11 22 20 30 27c10 7 18 11 24 15c8 2 14 4 20 5c5 1 10 1 15 1c15 0 27 -2 37 -6c9 -5 20 -11 32 -18c11 -7 20 -12 28 -16c9 -3 18 -5 28 -5c7 0 15 2 24 5c8 3 20 13 35 28l30 -29v0z" />
    <glyph glyph-name="Ograve" unicode="&#xd2;" horiz-adv-x="652" 
d="M570 356c0 -43 -1 -80 -2 -110c-1 -29 -4 -55 -9 -77s-12 -41 -21 -57c-9 -17 -22 -33 -39 -50c-21 -21 -47 -38 -75 -50c-30 -12 -62 -18 -98 -18s-68 6 -98 18c-28 12 -54 29 -75 50c-17 17 -30 33 -39 50c-9 16 -16 35 -21 57s-8 48 -9 77c-1 30 -2 67 -2 110
s1 80 2 110c1 29 4 55 9 77s12 41 21 57c9 17 22 33 39 50c21 21 47 38 75 50c30 12 62 18 98 18s68 -6 98 -18c28 -12 54 -29 75 -50c17 -17 30 -33 39 -50c9 -16 16 -35 21 -57s8 -48 9 -77c1 -30 2 -67 2 -110zM516 356c0 37 0 70 -2 96c0 28 -3 51 -6 70
c-4 20 -10 37 -17 52s-17 28 -30 41c-37 37 -82 55 -135 55s-98 -18 -135 -55c-13 -13 -23 -26 -30 -41s-13 -32 -17 -52c-3 -19 -6 -42 -6 -70c-2 -26 -2 -59 -2 -96s0 -70 2 -96c0 -28 3 -51 6 -70c4 -20 10 -37 17 -52s17 -28 30 -41c37 -37 82 -55 135 -55s98 18 135 55
c13 13 23 26 30 41s13 32 17 52c3 19 6 42 6 70c2 26 2 59 2 96zM315 780l-106 147h67l97 -147h-58z" />
    <glyph glyph-name="Oacute" unicode="&#xd3;" horiz-adv-x="652" 
d="M570 356c0 -43 -1 -80 -2 -110c-1 -29 -4 -55 -9 -77s-12 -41 -21 -57c-9 -17 -22 -33 -39 -50c-21 -21 -47 -38 -75 -50c-30 -12 -62 -18 -98 -18s-68 6 -98 18c-28 12 -54 29 -75 50c-17 17 -30 33 -39 50c-9 16 -16 35 -21 57s-8 48 -9 77c-1 30 -2 67 -2 110
s1 80 2 110c1 29 4 55 9 77s12 41 21 57c9 17 22 33 39 50c21 21 47 38 75 50c30 12 62 18 98 18s68 -6 98 -18c28 -12 54 -29 75 -50c17 -17 30 -33 39 -50c9 -16 16 -35 21 -57s8 -48 9 -77c1 -30 2 -67 2 -110zM516 356c0 37 0 70 -2 96c0 28 -3 51 -6 70
c-4 20 -10 37 -17 52s-17 28 -30 41c-37 37 -82 55 -135 55s-98 -18 -135 -55c-13 -13 -23 -26 -30 -41s-13 -32 -17 -52c-3 -19 -6 -42 -6 -70c-2 -26 -2 -59 -2 -96s0 -70 2 -96c0 -28 3 -51 6 -70c4 -20 10 -37 17 -52s17 -28 30 -41c37 -37 82 -55 135 -55s98 18 135 55
c13 13 23 26 30 41s13 32 17 52c3 19 6 42 6 70c2 26 2 59 2 96zM337 780h-58l97 147h67z" />
    <glyph glyph-name="Ocircumflex" unicode="&#xd4;" horiz-adv-x="652" 
d="M570 356c0 -43 -1 -80 -2 -110c-1 -29 -4 -55 -9 -77s-12 -41 -21 -57c-9 -17 -22 -33 -39 -50c-21 -21 -47 -38 -75 -50c-30 -12 -62 -18 -98 -18s-68 6 -98 18c-28 12 -54 29 -75 50c-17 17 -30 33 -39 50c-9 16 -16 35 -21 57s-8 48 -9 77c-1 30 -2 67 -2 110
s1 80 2 110c1 29 4 55 9 77s12 41 21 57c9 17 22 33 39 50c21 21 47 38 75 50c30 12 62 18 98 18s68 -6 98 -18c28 -12 54 -29 75 -50c17 -17 30 -33 39 -50c9 -16 16 -35 21 -57s8 -48 9 -77c1 -30 2 -67 2 -110zM516 356c0 37 0 70 -2 96c0 28 -3 51 -6 70
c-4 20 -10 37 -17 52s-17 28 -30 41c-37 37 -82 55 -135 55s-98 -18 -135 -55c-13 -13 -23 -26 -30 -41s-13 -32 -17 -52c-3 -19 -6 -42 -6 -70c-2 -26 -2 -59 -2 -96s0 -70 2 -96c0 -28 3 -51 6 -70c4 -20 10 -37 17 -52s17 -28 30 -41c37 -37 82 -55 135 -55s98 18 135 55
c13 13 23 26 30 41s13 32 17 52c3 19 6 42 6 70c2 26 2 59 2 96zM419 780l-93 109l-93 -109h-57l123 147h54l123 -147h-57z" />
    <glyph glyph-name="Otilde" unicode="&#xd5;" horiz-adv-x="652" 
d="M570 356c0 -43 -1 -80 -2 -110c-1 -29 -4 -55 -9 -77s-12 -41 -21 -57c-9 -17 -22 -33 -39 -50c-21 -21 -47 -38 -75 -50c-30 -12 -62 -18 -98 -18s-68 6 -98 18c-28 12 -54 29 -75 50c-17 17 -30 33 -39 50c-9 16 -16 35 -21 57s-8 48 -9 77c-1 30 -2 67 -2 110
s1 80 2 110c1 29 4 55 9 77s12 41 21 57c9 17 22 33 39 50c21 21 47 38 75 50c30 12 62 18 98 18s68 -6 98 -18c28 -12 54 -29 75 -50c17 -17 30 -33 39 -50c9 -16 16 -35 21 -57s8 -48 9 -77c1 -30 2 -67 2 -110zM516 356c0 37 0 70 -2 96c0 28 -3 51 -6 70
c-4 20 -10 37 -17 52s-17 28 -30 41c-37 37 -82 55 -135 55s-98 -18 -135 -55c-13 -13 -23 -26 -30 -41s-13 -32 -17 -52c-3 -19 -6 -42 -6 -70c-2 -26 -2 -59 -2 -96s0 -70 2 -96c0 -28 3 -51 6 -70c4 -20 10 -37 17 -52s17 -28 30 -41c37 -37 82 -55 135 -55s98 18 135 55
c13 13 23 26 30 41s13 32 17 52c3 19 6 42 6 70c2 26 2 59 2 96zM475 843c-11 -11 -21 -20 -31 -27c-8 -7 -17 -12 -24 -14c-7 -4 -14 -5 -19 -6s-10 -1 -15 -1c-11 0 -22 2 -32 5c-9 3 -22 10 -37 19c-9 5 -19 10 -27 15c-10 4 -19 6 -29 6c-8 0 -16 -2 -24 -5
s-20 -13 -35 -28l-30 29c11 11 22 20 30 27c10 7 18 11 24 15c8 2 14 4 20 5c5 1 10 1 15 1c15 0 27 -2 37 -6c9 -5 20 -11 32 -18c11 -7 20 -12 28 -16c9 -3 18 -5 28 -5c7 0 15 2 24 5c8 3 20 13 35 28l30 -29v0z" />
    <glyph glyph-name="Odieresis" unicode="&#xd6;" horiz-adv-x="652" 
d="M570 356c0 -43 -1 -80 -2 -110c-1 -29 -4 -55 -9 -77s-12 -41 -21 -57c-9 -17 -22 -33 -39 -50c-21 -21 -47 -38 -75 -50c-30 -12 -62 -18 -98 -18s-68 6 -98 18c-28 12 -54 29 -75 50c-17 17 -30 33 -39 50c-9 16 -16 35 -21 57s-8 48 -9 77c-1 30 -2 67 -2 110
s1 80 2 110c1 29 4 55 9 77s12 41 21 57c9 17 22 33 39 50c21 21 47 38 75 50c30 12 62 18 98 18s68 -6 98 -18c28 -12 54 -29 75 -50c17 -17 30 -33 39 -50c9 -16 16 -35 21 -57s8 -48 9 -77c1 -30 2 -67 2 -110zM516 356c0 37 0 70 -2 96c0 28 -3 51 -6 70
c-4 20 -10 37 -17 52s-17 28 -30 41c-37 37 -82 55 -135 55s-98 -18 -135 -55c-13 -13 -23 -26 -30 -41s-13 -32 -17 -52c-3 -19 -6 -42 -6 -70c-2 -26 -2 -59 -2 -96s0 -70 2 -96c0 -28 3 -51 6 -70c4 -20 10 -37 17 -52s17 -28 30 -41c37 -37 82 -55 135 -55s98 18 135 55
c13 13 23 26 30 41s13 32 17 52c3 19 6 42 6 70c2 26 2 59 2 96zM193 790v77h58v-77h-58zM401 790v77h58v-77h-58z" />
    <glyph glyph-name="multiply" unicode="&#xd7;" 
d="M412 78l-155 155l-155 -155l-31 31l155 155l-155 155l31 31l155 -155l155 155l31 -31l-155 -155l155 -155z" />
    <glyph glyph-name="Oslash" unicode="&#xd8;" horiz-adv-x="652" 
d="M570 356c0 -43 -1 -80 -2 -110c-1 -29 -4 -55 -9 -77s-12 -41 -21 -57c-9 -17 -22 -33 -39 -50c-21 -21 -47 -38 -75 -50c-30 -12 -62 -18 -98 -18c-25 0 -49 3 -70 9s-41 15 -60 26l-35 -73h-53l49 102c-18 17 -32 34 -42 52c-10 16 -17 36 -23 58c-4 22 -8 48 -8 78
c-2 30 -2 67 -2 110s1 80 2 110c1 29 4 55 9 77s12 41 21 57c9 17 22 33 39 50c21 21 47 38 75 50c30 12 62 18 98 18c25 0 48 -3 70 -9s42 -15 60 -26l35 73h53l-49 -102c18 -17 32 -34 42 -52c10 -16 17 -36 23 -58c4 -22 8 -48 8 -78c2 -30 2 -67 2 -110zM434 637
c-32 22 -68 33 -108 33c-53 0 -98 -18 -135 -55c-13 -13 -23 -26 -30 -41s-13 -32 -17 -52c-3 -19 -6 -42 -6 -70c-2 -26 -2 -59 -2 -96c0 -35 0 -66 1 -92c1 -25 3 -48 5 -66c4 -20 8 -36 14 -50c6 -15 14 -28 25 -40zM516 356c0 35 0 65 -2 90c0 26 -2 49 -6 68
c-2 19 -7 36 -13 50c-6 15 -14 28 -24 40l-253 -529c32 -22 68 -33 108 -33c53 0 98 18 135 55c13 13 23 26 30 41s13 32 17 52c3 19 6 42 6 70c2 26 2 59 2 96z" />
    <glyph glyph-name="Ugrave" unicode="&#xd9;" horiz-adv-x="688" 
d="M588 231c0 -35 -6 -67 -18 -95c-12 -30 -29 -54 -50 -76c-22 -20 -48 -37 -78 -48c-29 -12 -62 -18 -98 -18s-69 6 -98 18c-30 11 -56 28 -78 48c-21 22 -38 46 -50 76c-12 28 -18 60 -18 95v481h54v-474c0 -29 4 -56 14 -80c8 -25 21 -46 38 -62c17 -18 37 -31 60 -40
s49 -14 78 -14s55 5 78 14s43 22 60 40c17 16 30 37 38 62c10 24 14 51 14 80v474h54v-481zM333 780l-106 147h67l97 -147h-58z" />
    <glyph glyph-name="Uacute" unicode="&#xda;" horiz-adv-x="688" 
d="M588 231c0 -35 -6 -67 -18 -95c-12 -30 -29 -54 -50 -76c-22 -20 -48 -37 -78 -48c-29 -12 -62 -18 -98 -18s-69 6 -98 18c-30 11 -56 28 -78 48c-21 22 -38 46 -50 76c-12 28 -18 60 -18 95v481h54v-474c0 -29 4 -56 14 -80c8 -25 21 -46 38 -62c17 -18 37 -31 60 -40
s49 -14 78 -14s55 5 78 14s43 22 60 40c17 16 30 37 38 62c10 24 14 51 14 80v474h54v-481zM355 780h-58l97 147h67z" />
    <glyph glyph-name="Ucircumflex" unicode="&#xdb;" horiz-adv-x="688" 
d="M588 231c0 -35 -6 -67 -18 -95c-12 -30 -29 -54 -50 -76c-22 -20 -48 -37 -78 -48c-29 -12 -62 -18 -98 -18s-69 6 -98 18c-30 11 -56 28 -78 48c-21 22 -38 46 -50 76c-12 28 -18 60 -18 95v481h54v-474c0 -29 4 -56 14 -80c8 -25 21 -46 38 -62c17 -18 37 -31 60 -40
s49 -14 78 -14s55 5 78 14s43 22 60 40c17 16 30 37 38 62c10 24 14 51 14 80v474h54v-481zM437 780l-93 109l-93 -109h-57l123 147h54l123 -147h-57z" />
    <glyph glyph-name="Udieresis" unicode="&#xdc;" horiz-adv-x="688" 
d="M588 231c0 -35 -6 -67 -18 -95c-12 -30 -29 -54 -50 -76c-22 -20 -48 -37 -78 -48c-29 -12 -62 -18 -98 -18s-69 6 -98 18c-30 11 -56 28 -78 48c-21 22 -38 46 -50 76c-12 28 -18 60 -18 95v481h54v-474c0 -29 4 -56 14 -80c8 -25 21 -46 38 -62c17 -18 37 -31 60 -40
s49 -14 78 -14s55 5 78 14s43 22 60 40c17 16 30 37 38 62c10 24 14 51 14 80v474h54v-481zM211 790v77h58v-77h-58zM419 790v77h58v-77h-58z" />
    <glyph glyph-name="Yacute" unicode="&#xdd;" horiz-adv-x="494" 
d="M274 295v-295h-54v295l-210 417h58l181 -360l177 360h58zM259 780h-58l97 147h67z" />
    <glyph glyph-name="Thorn" unicode="&#xde;" horiz-adv-x="646" 
d="M586 359c0 -33 -6 -62 -16 -87c-12 -25 -26 -47 -46 -64c-18 -18 -41 -32 -68 -40c-26 -10 -54 -14 -85 -14h-207v-154h-54v712h54v-148h207c31 0 59 -4 85 -14c27 -8 50 -22 68 -40c20 -17 34 -39 46 -64c10 -25 16 -54 16 -87zM532 359c0 53 -16 93 -46 119
c-32 25 -72 38 -121 38h-201v-314h201c49 0 89 13 121 38c30 26 46 66 46 119z" />
    <glyph glyph-name="germandbls" unicode="&#xdf;" horiz-adv-x="550" 
d="M473 134c0 -21 -3 -40 -11 -58c-6 -16 -16 -31 -28 -42c-13 -12 -27 -21 -42 -26c-14 -5 -32 -8 -53 -8h-54v45h44c16 0 29 2 37 5c10 4 19 10 28 17c19 15 28 39 28 73v178c0 16 -2 29 -5 40s-9 20 -18 28c-15 15 -37 23 -65 23h-49v45h39c30 0 54 9 72 28
c17 19 26 43 26 74c0 17 -3 32 -8 46c-6 15 -15 28 -27 39c-23 21 -58 32 -104 32c-48 0 -83 -14 -103 -41c-22 -28 -32 -64 -32 -108v-524h-51v524c0 61 17 108 51 142c33 35 80 52 141 52c25 0 48 -3 71 -10c22 -6 41 -16 58 -29s30 -30 40 -51c9 -20 14 -44 14 -72
c0 -53 -21 -94 -63 -122c26 -13 43 -29 51 -48c9 -19 13 -44 13 -76v-176z" />
    <glyph glyph-name="agrave" unicode="&#xe0;" horiz-adv-x="524" 
d="M380 0v48c-21 -21 -42 -35 -64 -42c-21 -8 -49 -12 -83 -12c-36 0 -65 3 -87 10c-21 7 -40 18 -55 34c-11 11 -20 25 -26 42s-9 34 -9 52c0 44 15 78 44 102c30 25 71 37 124 37h156v54c0 39 -10 68 -30 88c-21 20 -56 30 -106 30c-34 0 -61 -5 -80 -14
c-20 -9 -38 -25 -53 -47l-37 32c21 29 44 48 70 58c27 11 60 16 100 16c65 0 112 -14 142 -41s45 -66 45 -117v-330h-51zM380 230h-150c-82 0 -123 -32 -123 -97c0 -32 10 -56 30 -71s52 -23 96 -23c22 0 43 2 63 6c21 4 40 14 57 31c18 17 27 47 27 92v62zM239 590
l-106 147h67l97 -147h-58z" />
    <glyph glyph-name="aacute" unicode="&#xe1;" horiz-adv-x="524" 
d="M380 0v48c-21 -21 -42 -35 -64 -42c-21 -8 -49 -12 -83 -12c-36 0 -65 3 -87 10c-21 7 -40 18 -55 34c-11 11 -20 25 -26 42s-9 34 -9 52c0 44 15 78 44 102c30 25 71 37 124 37h156v54c0 39 -10 68 -30 88c-21 20 -56 30 -106 30c-34 0 -61 -5 -80 -14
c-20 -9 -38 -25 -53 -47l-37 32c21 29 44 48 70 58c27 11 60 16 100 16c65 0 112 -14 142 -41s45 -66 45 -117v-330h-51zM380 230h-150c-82 0 -123 -32 -123 -97c0 -32 10 -56 30 -71s52 -23 96 -23c22 0 43 2 63 6c21 4 40 14 57 31c18 17 27 47 27 92v62zM261 590h-58
l97 147h67z" />
    <glyph glyph-name="acircumflex" unicode="&#xe2;" horiz-adv-x="524" 
d="M380 0v48c-21 -21 -42 -35 -64 -42c-21 -8 -49 -12 -83 -12c-36 0 -65 3 -87 10c-21 7 -40 18 -55 34c-11 11 -20 25 -26 42s-9 34 -9 52c0 44 15 78 44 102c30 25 71 37 124 37h156v54c0 39 -10 68 -30 88c-21 20 -56 30 -106 30c-34 0 -61 -5 -80 -14
c-20 -9 -38 -25 -53 -47l-37 32c21 29 44 48 70 58c27 11 60 16 100 16c65 0 112 -14 142 -41s45 -66 45 -117v-330h-51zM380 230h-150c-82 0 -123 -32 -123 -97c0 -32 10 -56 30 -71s52 -23 96 -23c22 0 43 2 63 6c21 4 40 14 57 31c18 17 27 47 27 92v62zM343 590l-93 109
l-93 -109h-57l123 147h54l123 -147h-57z" />
    <glyph glyph-name="atilde" unicode="&#xe3;" horiz-adv-x="524" 
d="M380 0v48c-21 -21 -42 -35 -64 -42c-21 -8 -49 -12 -83 -12c-36 0 -65 3 -87 10c-21 7 -40 18 -55 34c-11 11 -20 25 -26 42s-9 34 -9 52c0 44 15 78 44 102c30 25 71 37 124 37h156v54c0 39 -10 68 -30 88c-21 20 -56 30 -106 30c-34 0 -61 -5 -80 -14
c-20 -9 -38 -25 -53 -47l-37 32c21 29 44 48 70 58c27 11 60 16 100 16c65 0 112 -14 142 -41s45 -66 45 -117v-330h-51zM380 230h-150c-82 0 -123 -32 -123 -97c0 -32 10 -56 30 -71s52 -23 96 -23c22 0 43 2 63 6c21 4 40 14 57 31c18 17 27 47 27 92v62zM399 653
c-11 -11 -21 -20 -31 -27c-8 -7 -17 -12 -24 -14c-7 -4 -14 -5 -19 -6s-10 -1 -15 -1c-11 0 -22 2 -32 5c-9 3 -22 10 -37 19c-9 5 -19 10 -27 15c-10 4 -19 6 -29 6c-8 0 -16 -2 -24 -5s-20 -13 -35 -28l-30 29c11 11 22 20 30 27c10 7 18 11 24 15c8 2 14 4 20 5
c5 1 10 1 15 1c15 0 27 -2 37 -6c9 -5 20 -11 32 -18c11 -7 20 -12 28 -16c9 -3 18 -5 28 -5c7 0 15 2 24 5c8 3 20 13 35 28l30 -29v0z" />
    <glyph glyph-name="adieresis" unicode="&#xe4;" horiz-adv-x="524" 
d="M380 0v48c-21 -21 -42 -35 -64 -42c-21 -8 -49 -12 -83 -12c-36 0 -65 3 -87 10c-21 7 -40 18 -55 34c-11 11 -20 25 -26 42s-9 34 -9 52c0 44 15 78 44 102c30 25 71 37 124 37h156v54c0 39 -10 68 -30 88c-21 20 -56 30 -106 30c-34 0 -61 -5 -80 -14
c-20 -9 -38 -25 -53 -47l-37 32c21 29 44 48 70 58c27 11 60 16 100 16c65 0 112 -14 142 -41s45 -66 45 -117v-330h-51zM380 230h-150c-82 0 -123 -32 -123 -97c0 -32 10 -56 30 -71s52 -23 96 -23c22 0 43 2 63 6c21 4 40 14 57 31c18 17 27 47 27 92v62zM117 600v77h58
v-77h-58zM325 600v77h58v-77h-58z" />
    <glyph glyph-name="aring" unicode="&#xe5;" horiz-adv-x="524" 
d="M380 0v48c-21 -21 -42 -35 -64 -42c-21 -8 -49 -12 -83 -12c-36 0 -65 3 -87 10c-21 7 -40 18 -55 34c-11 11 -20 25 -26 42s-9 34 -9 52c0 44 15 78 44 102c30 25 71 37 124 37h156v54c0 39 -10 68 -30 88c-21 20 -56 30 -106 30c-34 0 -61 -5 -80 -14
c-20 -9 -38 -25 -53 -47l-37 32c21 29 44 48 70 58c27 11 60 16 100 16c65 0 112 -14 142 -41s45 -66 45 -117v-330h-51zM380 230h-150c-82 0 -123 -32 -123 -97c0 -32 10 -56 30 -71s52 -23 96 -23c22 0 43 2 63 6c21 4 40 14 57 31c18 17 27 47 27 92v62zM363 677
c0 -16 -3 -31 -9 -45c-6 -13 -14 -25 -24 -36c-11 -11 -23 -19 -36 -25c-14 -6 -29 -9 -45 -9s-31 3 -45 9c-13 6 -25 14 -36 25c-10 11 -18 23 -24 36c-6 14 -9 29 -9 45s3 31 9 45c6 13 14 25 24 36c11 10 23 18 36 24c14 6 29 9 45 9s31 -3 45 -9c13 -6 25 -14 36 -24
c10 -11 18 -23 24 -36c6 -14 9 -29 9 -45zM322 677c0 20 -7 37 -22 51c-14 14 -31 21 -51 21s-37 -7 -51 -21c-15 -14 -22 -31 -22 -51s7 -37 22 -51c14 -15 31 -22 51 -22s37 7 51 22c15 14 22 31 22 51z" />
    <glyph glyph-name="ae" unicode="&#xe6;" horiz-adv-x="834" 
d="M431 230c0 -62 13 -109 39 -142c27 -32 66 -48 118 -48c29 0 53 4 72 14c20 8 40 23 61 44l38 -30c-25 -25 -50 -43 -76 -56c-26 -12 -59 -18 -99 -18c-82 0 -139 30 -172 90c-20 -33 -44 -56 -71 -70c-27 -13 -63 -20 -108 -20c-36 0 -65 3 -87 10c-21 7 -40 18 -55 34
c-11 11 -20 25 -26 42s-9 34 -9 52c0 44 15 78 44 102c30 25 71 37 124 37h156v54c0 39 -10 68 -30 88c-21 20 -56 30 -106 30c-34 0 -61 -5 -80 -14c-20 -9 -38 -25 -53 -47l-37 32c21 29 44 48 70 58c27 11 60 16 100 16c91 0 148 -28 173 -85c33 57 85 85 156 85
c61 0 108 -20 142 -62c34 -40 51 -98 51 -173v-23h-335zM230 230c-82 0 -123 -32 -123 -97c0 -32 10 -56 30 -71s52 -23 96 -23c22 0 43 2 63 6c21 4 40 14 57 31c18 17 27 47 27 92v62h-150zM715 271c-1 11 -1 21 -2 29c-1 9 -1 16 -3 23c0 7 -2 13 -4 19s-5 13 -8 20
c-11 25 -27 45 -50 60c-22 14 -47 21 -75 21s-53 -7 -76 -21s-39 -34 -49 -60c-3 -8 -6 -15 -8 -21c-1 -6 -3 -12 -4 -19c-1 -6 -2 -13 -3 -21s-1 -18 -2 -30h284z" />
    <glyph glyph-name="ccedilla" unicode="&#xe7;" horiz-adv-x="493" 
d="M440 68c-25 -29 -50 -48 -74 -58c-24 -11 -52 -16 -85 -16s-63 6 -89 17s-48 28 -66 49c-19 21 -33 47 -42 78c-10 31 -15 65 -15 103s5 72 15 103c9 31 23 57 42 78c18 21 40 38 66 49s56 17 89 17s61 -5 85 -16c24 -10 49 -29 74 -58l-35 -32c-21 23 -40 38 -59 48
c-18 8 -40 13 -65 13c-57 0 -99 -21 -128 -64c-12 -17 -21 -37 -25 -57c-6 -22 -8 -48 -8 -81s2 -59 8 -81c4 -20 13 -40 25 -57c29 -43 71 -64 128 -64c25 0 47 5 65 13c19 10 38 25 59 48zM244 -220h-63l72 150h55z" />
    <glyph glyph-name="egrave" unicode="&#xe8;" horiz-adv-x="523" 
d="M120 230c0 -62 13 -109 40 -142c26 -32 65 -48 117 -48c29 0 53 4 73 14c19 8 39 23 60 44l38 -30c-12 -12 -24 -23 -36 -32c-13 -9 -26 -17 -40 -24c-13 -6 -28 -10 -44 -14c-16 -2 -34 -4 -54 -4c-67 0 -118 21 -152 63c-36 42 -53 103 -53 184c0 79 17 139 51 183
c34 42 81 64 142 64s108 -20 142 -62c34 -40 51 -98 51 -173v-23h-335zM404 271c-1 11 -1 21 -2 29c-1 9 -2 16 -2 23c-2 7 -3 13 -5 19s-5 13 -8 20c-11 25 -27 45 -49 60c-23 14 -48 21 -76 21s-53 -7 -75 -21c-22 -15 -39 -35 -50 -60c-3 -7 -6 -14 -8 -20s-3 -12 -5 -19
c0 -7 -1 -14 -2 -23c-1 -8 -1 -18 -2 -29h284zM253 590l-106 147h67l97 -147h-58z" />
    <glyph glyph-name="eacute" unicode="&#xe9;" horiz-adv-x="523" 
d="M120 230c0 -62 13 -109 40 -142c26 -32 65 -48 117 -48c29 0 53 4 73 14c19 8 39 23 60 44l38 -30c-12 -12 -24 -23 -36 -32c-13 -9 -26 -17 -40 -24c-13 -6 -28 -10 -44 -14c-16 -2 -34 -4 -54 -4c-67 0 -118 21 -152 63c-36 42 -53 103 -53 184c0 79 17 139 51 183
c34 42 81 64 142 64s108 -20 142 -62c34 -40 51 -98 51 -173v-23h-335zM404 271c-1 11 -1 21 -2 29c-1 9 -2 16 -2 23c-2 7 -3 13 -5 19s-5 13 -8 20c-11 25 -27 45 -49 60c-23 14 -48 21 -76 21s-53 -7 -75 -21c-22 -15 -39 -35 -50 -60c-3 -7 -6 -14 -8 -20s-3 -12 -5 -19
c0 -7 -1 -14 -2 -23c-1 -8 -1 -18 -2 -29h284zM275 590h-58l97 147h67z" />
    <glyph glyph-name="ecircumflex" unicode="&#xea;" horiz-adv-x="523" 
d="M120 230c0 -62 13 -109 40 -142c26 -32 65 -48 117 -48c29 0 53 4 73 14c19 8 39 23 60 44l38 -30c-12 -12 -24 -23 -36 -32c-13 -9 -26 -17 -40 -24c-13 -6 -28 -10 -44 -14c-16 -2 -34 -4 -54 -4c-67 0 -118 21 -152 63c-36 42 -53 103 -53 184c0 79 17 139 51 183
c34 42 81 64 142 64s108 -20 142 -62c34 -40 51 -98 51 -173v-23h-335zM404 271c-1 11 -1 21 -2 29c-1 9 -2 16 -2 23c-2 7 -3 13 -5 19s-5 13 -8 20c-11 25 -27 45 -49 60c-23 14 -48 21 -76 21s-53 -7 -75 -21c-22 -15 -39 -35 -50 -60c-3 -7 -6 -14 -8 -20s-3 -12 -5 -19
c0 -7 -1 -14 -2 -23c-1 -8 -1 -18 -2 -29h284zM357 590l-93 109l-93 -109h-57l123 147h54l123 -147h-57z" />
    <glyph glyph-name="edieresis" unicode="&#xeb;" horiz-adv-x="523" 
d="M120 230c0 -62 13 -109 40 -142c26 -32 65 -48 117 -48c29 0 53 4 73 14c19 8 39 23 60 44l38 -30c-12 -12 -24 -23 -36 -32c-13 -9 -26 -17 -40 -24c-13 -6 -28 -10 -44 -14c-16 -2 -34 -4 -54 -4c-67 0 -118 21 -152 63c-36 42 -53 103 -53 184c0 79 17 139 51 183
c34 42 81 64 142 64s108 -20 142 -62c34 -40 51 -98 51 -173v-23h-335zM404 271c-1 11 -1 21 -2 29c-1 9 -2 16 -2 23c-2 7 -3 13 -5 19s-5 13 -8 20c-11 25 -27 45 -49 60c-23 14 -48 21 -76 21s-53 -7 -75 -21c-22 -15 -39 -35 -50 -60c-3 -7 -6 -14 -8 -20s-3 -12 -5 -19
c0 -7 -1 -14 -2 -23c-1 -8 -1 -18 -2 -29h284zM131 600v77h58v-77h-58zM339 600v77h58v-77h-58z" />
    <glyph glyph-name="igrave" unicode="&#xec;" horiz-adv-x="245" 
d="M97 0v482h51v-482h-51zM91 590l-106 147h67l97 -147h-58z" />
    <glyph glyph-name="iacute" unicode="&#xed;" horiz-adv-x="245" 
d="M97 0v482h51v-482h-51zM156 590h-58l97 147h67z" />
    <glyph glyph-name="icircumflex" unicode="&#xee;" horiz-adv-x="245" 
d="M97 0v482h51v-482h-51zM216 590l-93 109l-93 -109h-57l123 147h54l123 -147h-57z" />
    <glyph glyph-name="idieresis" unicode="&#xef;" horiz-adv-x="245" 
d="M97 0v482h51v-482h-51zM-10 600v77h58v-77h-58zM198 600v77h58v-77h-58z" />
    <glyph glyph-name="eth" unicode="&#xf0;" horiz-adv-x="526" 
d="M457 241c0 -35 -4 -69 -11 -104s-24 -65 -49 -90c-35 -35 -80 -53 -134 -53s-99 18 -134 53c-25 25 -42 55 -49 90s-11 69 -11 104s4 69 11 104s24 65 49 90c35 35 80 53 134 53c13 0 26 -1 39 -4c14 -3 26 -7 36 -13l-67 113h-117v38h95l-53 90h53l52 -90h79v-38h-57
l72 -123c13 -23 24 -44 33 -62c8 -18 14 -35 18 -51c5 -17 8 -33 9 -50s2 -36 2 -57zM406 241c0 14 0 28 -1 43s-3 29 -5 44c-4 14 -8 27 -14 40c-5 13 -13 24 -23 34c-27 27 -61 41 -100 41s-73 -14 -100 -41c-10 -10 -18 -21 -23 -34c-6 -13 -10 -26 -14 -40
c-2 -15 -4 -29 -5 -44s-1 -29 -1 -43s0 -28 1 -43s3 -29 5 -44c4 -14 8 -27 14 -40c5 -13 13 -24 23 -34c27 -27 61 -41 100 -41s73 14 100 41c10 10 18 21 23 34c6 13 10 26 14 40c2 15 4 29 5 44s1 29 1 43z" />
    <glyph glyph-name="ntilde" unicode="&#xf1;" horiz-adv-x="559" 
d="M417 0v299c0 47 -11 82 -33 107c-23 25 -56 37 -100 37s-78 -13 -101 -37c-23 -26 -35 -61 -35 -107v-299h-51v482h51v-57c36 42 83 63 142 63c54 0 97 -15 128 -46c33 -32 50 -77 50 -134v-308h-51zM433 653c-11 -11 -21 -20 -31 -27c-8 -7 -17 -12 -24 -14
c-7 -4 -14 -5 -19 -6s-10 -1 -15 -1c-11 0 -22 2 -32 5c-9 3 -22 10 -37 19c-9 5 -19 10 -27 15c-10 4 -19 6 -29 6c-8 0 -16 -2 -24 -5s-20 -13 -35 -28l-30 29c11 11 22 20 30 27c10 7 18 11 24 15c8 2 14 4 20 5c5 1 10 1 15 1c15 0 27 -2 37 -6c9 -5 20 -11 32 -18
c11 -7 20 -12 28 -16c9 -3 18 -5 28 -5c7 0 15 2 24 5c8 3 20 13 35 28l30 -29v0z" />
    <glyph glyph-name="ograve" unicode="&#xf2;" horiz-adv-x="526" 
d="M457 241c0 -35 -4 -69 -11 -104s-24 -65 -49 -90c-35 -35 -80 -53 -134 -53s-99 18 -134 53c-25 25 -42 55 -49 90s-11 69 -11 104s4 69 11 104s24 65 49 90c35 35 80 53 134 53s99 -18 134 -53c25 -25 42 -55 49 -90s11 -69 11 -104zM406 241c0 14 0 28 -1 43
s-3 29 -5 44c-4 14 -8 27 -14 40c-5 13 -13 24 -23 34c-27 27 -61 41 -100 41s-73 -14 -100 -41c-10 -10 -18 -21 -23 -34c-6 -13 -10 -26 -14 -40c-2 -15 -4 -29 -5 -44s-1 -29 -1 -43s0 -28 1 -43s3 -29 5 -44c4 -14 8 -27 14 -40c5 -13 13 -24 23 -34
c27 -27 61 -41 100 -41s73 14 100 41c10 10 18 21 23 34c6 13 10 26 14 40c2 15 4 29 5 44s1 29 1 43zM257 590l-106 147h67l97 -147h-58z" />
    <glyph glyph-name="oacute" unicode="&#xf3;" horiz-adv-x="526" 
d="M457 241c0 -35 -4 -69 -11 -104s-24 -65 -49 -90c-35 -35 -80 -53 -134 -53s-99 18 -134 53c-25 25 -42 55 -49 90s-11 69 -11 104s4 69 11 104s24 65 49 90c35 35 80 53 134 53s99 -18 134 -53c25 -25 42 -55 49 -90s11 -69 11 -104zM406 241c0 14 0 28 -1 43
s-3 29 -5 44c-4 14 -8 27 -14 40c-5 13 -13 24 -23 34c-27 27 -61 41 -100 41s-73 -14 -100 -41c-10 -10 -18 -21 -23 -34c-6 -13 -10 -26 -14 -40c-2 -15 -4 -29 -5 -44s-1 -29 -1 -43s0 -28 1 -43s3 -29 5 -44c4 -14 8 -27 14 -40c5 -13 13 -24 23 -34
c27 -27 61 -41 100 -41s73 14 100 41c10 10 18 21 23 34c6 13 10 26 14 40c2 15 4 29 5 44s1 29 1 43zM274 590h-58l97 147h67z" />
    <glyph glyph-name="ocircumflex" unicode="&#xf4;" horiz-adv-x="526" 
d="M457 241c0 -35 -4 -69 -11 -104s-24 -65 -49 -90c-35 -35 -80 -53 -134 -53s-99 18 -134 53c-25 25 -42 55 -49 90s-11 69 -11 104s4 69 11 104s24 65 49 90c35 35 80 53 134 53s99 -18 134 -53c25 -25 42 -55 49 -90s11 -69 11 -104zM406 241c0 14 0 28 -1 43
s-3 29 -5 44c-4 14 -8 27 -14 40c-5 13 -13 24 -23 34c-27 27 -61 41 -100 41s-73 -14 -100 -41c-10 -10 -18 -21 -23 -34c-6 -13 -10 -26 -14 -40c-2 -15 -4 -29 -5 -44s-1 -29 -1 -43s0 -28 1 -43s3 -29 5 -44c4 -14 8 -27 14 -40c5 -13 13 -24 23 -34
c27 -27 61 -41 100 -41s73 14 100 41c10 10 18 21 23 34c6 13 10 26 14 40c2 15 4 29 5 44s1 29 1 43zM356 590l-93 109l-93 -109h-57l123 147h54l123 -147h-57z" />
    <glyph glyph-name="otilde" unicode="&#xf5;" horiz-adv-x="526" 
d="M457 241c0 -35 -4 -69 -11 -104s-24 -65 -49 -90c-35 -35 -80 -53 -134 -53s-99 18 -134 53c-25 25 -42 55 -49 90s-11 69 -11 104s4 69 11 104s24 65 49 90c35 35 80 53 134 53s99 -18 134 -53c25 -25 42 -55 49 -90s11 -69 11 -104zM406 241c0 14 0 28 -1 43
s-3 29 -5 44c-4 14 -8 27 -14 40c-5 13 -13 24 -23 34c-27 27 -61 41 -100 41s-73 -14 -100 -41c-10 -10 -18 -21 -23 -34c-6 -13 -10 -26 -14 -40c-2 -15 -4 -29 -5 -44s-1 -29 -1 -43s0 -28 1 -43s3 -29 5 -44c4 -14 8 -27 14 -40c5 -13 13 -24 23 -34
c27 -27 61 -41 100 -41s73 14 100 41c10 10 18 21 23 34c6 13 10 26 14 40c2 15 4 29 5 44s1 29 1 43zM412 653c-11 -11 -22 -20 -30 -27c-10 -7 -18 -12 -25 -14c-7 -4 -14 -5 -19 -6s-10 -1 -15 -1c-11 0 -22 2 -31 5c-10 3 -23 10 -38 19c-9 5 -18 10 -28 15
c-8 4 -18 6 -28 6c-8 0 -16 -2 -24 -5s-20 -13 -35 -28l-30 29c11 11 21 20 31 27c8 7 16 11 24 15c6 2 13 4 18 5c6 1 11 1 16 1c15 0 27 -2 36 -6c10 -5 21 -11 33 -18c11 -7 20 -12 29 -16c8 -3 17 -5 27 -5c7 0 15 2 23 5c9 3 21 13 36 28l30 -29v0z" />
    <glyph glyph-name="odieresis" unicode="&#xf6;" horiz-adv-x="526" 
d="M457 241c0 -35 -4 -69 -11 -104s-24 -65 -49 -90c-35 -35 -80 -53 -134 -53s-99 18 -134 53c-25 25 -42 55 -49 90s-11 69 -11 104s4 69 11 104s24 65 49 90c35 35 80 53 134 53s99 -18 134 -53c25 -25 42 -55 49 -90s11 -69 11 -104zM406 241c0 14 0 28 -1 43
s-3 29 -5 44c-4 14 -8 27 -14 40c-5 13 -13 24 -23 34c-27 27 -61 41 -100 41s-73 -14 -100 -41c-10 -10 -18 -21 -23 -34c-6 -13 -10 -26 -14 -40c-2 -15 -4 -29 -5 -44s-1 -29 -1 -43s0 -28 1 -43s3 -29 5 -44c4 -14 8 -27 14 -40c5 -13 13 -24 23 -34
c27 -27 61 -41 100 -41s73 14 100 41c10 10 18 21 23 34c6 13 10 26 14 40c2 15 4 29 5 44s1 29 1 43zM130 600v77h58v-77h-58zM338 600v77h58v-77h-58z" />
    <glyph glyph-name="divide" unicode="&#xf7;" 
d="M222 130h70v-70h-70v70zM53 287h408v-47h-408v47zM222 467h70v-70h-70v70z" />
    <glyph glyph-name="oslash" unicode="&#xf8;" horiz-adv-x="526" 
d="M457 241c0 -35 -4 -69 -11 -104s-24 -65 -49 -90c-35 -35 -80 -53 -134 -53c-39 0 -74 10 -105 29l-40 -67h-48l56 94c-24 25 -40 55 -46 89c-8 34 -11 68 -11 102c0 35 4 69 11 104s24 65 49 90c35 35 80 53 134 53c40 0 75 -10 105 -30l40 68h48l-56 -94
c24 -25 40 -55 46 -89c8 -34 11 -68 11 -102zM344 418c-23 17 -50 25 -81 25c-39 0 -73 -14 -100 -41c-10 -10 -18 -21 -23 -34c-6 -13 -10 -26 -14 -40c-2 -15 -4 -29 -5 -44s-1 -29 -1 -43c0 -25 2 -51 4 -77c4 -27 13 -50 28 -71zM406 241c0 25 -2 51 -4 77
c-4 27 -13 50 -28 71l-192 -325c23 -17 50 -25 81 -25c39 0 73 14 100 41c10 10 18 21 23 34c6 13 10 26 14 40c2 15 4 29 5 44s1 29 1 43z" />
    <glyph glyph-name="ugrave" unicode="&#xf9;" horiz-adv-x="559" 
d="M411 0v57c-36 -42 -83 -63 -142 -63c-54 0 -97 15 -128 46c-33 32 -50 77 -50 134v308h51v-299c0 -47 11 -82 34 -107c22 -25 55 -37 99 -37s78 13 101 37c23 26 35 61 35 107v299h51v-482h-51zM265 590l-106 147h67l97 -147h-58z" />
    <glyph glyph-name="uacute" unicode="&#xfa;" horiz-adv-x="559" 
d="M411 0v57c-36 -42 -83 -63 -142 -63c-54 0 -97 15 -128 46c-33 32 -50 77 -50 134v308h51v-299c0 -47 11 -82 34 -107c22 -25 55 -37 99 -37s78 13 101 37c23 26 35 61 35 107v299h51v-482h-51zM287 590h-58l97 147h67z" />
    <glyph glyph-name="ucircumflex" unicode="&#xfb;" horiz-adv-x="559" 
d="M411 0v57c-36 -42 -83 -63 -142 -63c-54 0 -97 15 -128 46c-33 32 -50 77 -50 134v308h51v-299c0 -47 11 -82 34 -107c22 -25 55 -37 99 -37s78 13 101 37c23 26 35 61 35 107v299h51v-482h-51zM369 590l-93 109l-93 -109h-57l123 147h54l123 -147h-57z" />
    <glyph glyph-name="udieresis" unicode="&#xfc;" horiz-adv-x="559" 
d="M411 0v57c-36 -42 -83 -63 -142 -63c-54 0 -97 15 -128 46c-33 32 -50 77 -50 134v308h51v-299c0 -47 11 -82 34 -107c22 -25 55 -37 99 -37s78 13 101 37c23 26 35 61 35 107v299h51v-482h-51zM143 600v77h58v-77h-58zM351 600v77h58v-77h-58z" />
    <glyph glyph-name="yacute" unicode="&#xfd;" horiz-adv-x="430" 
d="M192 -131c-9 -27 -20 -45 -33 -56c-12 -11 -26 -19 -43 -24c-16 -5 -32 -7 -48 -7h-24v45h19c14 0 25 1 35 3c8 3 16 7 23 12s12 12 17 20c5 9 9 19 13 31l39 107l-176 482h56l145 -422l145 422h56zM227 590h-58l97 147h67z" />
    <glyph glyph-name="thorn" unicode="&#xfe;" horiz-adv-x="540" 
d="M471 241c0 -38 -4 -75 -13 -113c-8 -37 -24 -67 -49 -92c-13 -13 -29 -23 -49 -30c-21 -8 -44 -12 -69 -12c-28 0 -53 4 -77 13c-22 9 -45 27 -66 55v-292h-51v942h51v-292c21 28 44 46 66 55c24 9 49 13 77 13c25 0 48 -4 69 -12c20 -7 36 -17 49 -30
c25 -25 41 -56 49 -92c9 -38 13 -75 13 -113zM420 241c0 25 -2 49 -4 73c-4 25 -10 46 -20 66c-9 18 -23 34 -41 46c-18 11 -42 17 -71 17s-53 -6 -71 -17c-18 -12 -32 -28 -41 -46c-10 -20 -16 -41 -20 -66c-2 -24 -4 -48 -4 -73s2 -50 4 -74c4 -24 10 -45 20 -65
c9 -18 23 -34 41 -46c18 -11 42 -17 71 -17s53 6 71 17c18 12 32 28 41 46c10 20 16 41 20 65c2 24 4 49 4 74z" />
    <glyph glyph-name="ydieresis" unicode="&#xff;" horiz-adv-x="430" 
d="M192 -131c-9 -27 -20 -45 -33 -56c-12 -11 -26 -19 -43 -24c-16 -5 -32 -7 -48 -7h-24v45h19c14 0 25 1 35 3c8 3 16 7 23 12s12 12 17 20c5 9 9 19 13 31l39 107l-176 482h56l145 -422l145 422h56zM83 600v77h58v-77h-58zM291 600v77h58v-77h-58z" />
    <glyph glyph-name="dotlessi" unicode="&#x131;" horiz-adv-x="245" 
d="M97 0v482h51v-482h-51z" />
    <glyph glyph-name="IJ" unicode="&#x132;" horiz-adv-x="772" 
d="M110 0v712h54v-712h-54zM672 210c0 -33 -5 -62 -15 -88c-10 -27 -24 -50 -43 -68c-18 -20 -40 -34 -66 -44c-27 -11 -56 -16 -88 -16c-63 0 -115 20 -156 61l37 37c13 -13 29 -25 46 -35s42 -15 73 -15c52 0 91 15 118 46s40 75 40 133v491h54v-502z" />
    <glyph glyph-name="ij" unicode="&#x133;" horiz-adv-x="490" 
d="M97 0v482h51v-482h-51zM91 649v63h63v-63h-63zM393 -105c0 -38 -9 -68 -28 -91s-48 -34 -88 -34h-44v45h35c29 0 48 7 58 19c11 14 16 34 16 62v586h51v-587zM336 649v63h63v-63h-63z" />
    <glyph glyph-name="Lslash" unicode="&#x141;" horiz-adv-x="578" 
d="M116 0v306l-76 -48v48l76 48v358h54v-324l164 104v-48l-164 -104v-292h378v-48h-432z" />
    <glyph glyph-name="lslash" unicode="&#x142;" horiz-adv-x="308" 
d="M222 0c-40 0 -69 11 -88 34s-28 53 -28 91v231l-66 -41v45l66 41v311h51v-279l88 55v-45l-88 -55v-262c0 -28 5 -48 15 -62c11 -12 30 -19 59 -19h35v-45h-44z" />
    <glyph glyph-name="OE" unicode="&#x152;" horiz-adv-x="997" 
d="M516 0v85c-24 -30 -52 -53 -86 -68c-32 -15 -67 -23 -104 -23c-36 0 -68 6 -98 18c-28 12 -54 29 -75 50c-17 17 -30 33 -39 50c-9 16 -16 35 -21 57s-8 48 -9 77c-1 30 -2 67 -2 110s1 80 2 110c1 29 4 55 9 77s12 41 21 57c9 17 22 33 39 50c21 21 47 38 75 50
c30 12 62 18 98 18c78 0 141 -30 190 -91v85h422v-47h-369c0 -48 0 -95 1 -143v-142h313v-42h-313v-146c-1 -48 -1 -96 -1 -145h372v-47h-425zM516 356c0 37 0 70 -2 96c0 28 -3 51 -6 70c-4 20 -10 37 -17 52s-17 28 -30 41c-37 37 -82 55 -135 55s-98 -18 -135 -55
c-13 -13 -23 -26 -30 -41s-13 -32 -17 -52c-3 -19 -6 -42 -6 -70c-2 -26 -2 -59 -2 -96s0 -70 2 -96c0 -28 3 -51 6 -70c4 -20 10 -37 17 -52s17 -28 30 -41c37 -37 82 -55 135 -55s98 18 135 55c13 13 23 26 30 41s13 32 17 52c3 19 6 42 6 70c2 26 2 59 2 96z" />
    <glyph glyph-name="oe" unicode="&#x153;" horiz-adv-x="860" 
d="M457 230c0 -62 13 -109 39 -142c27 -32 66 -48 118 -48c29 0 53 4 72 14c20 8 40 23 61 44l38 -30c-12 -12 -24 -23 -37 -32c-12 -9 -25 -17 -38 -24c-14 -6 -29 -10 -45 -14c-16 -2 -34 -4 -54 -4c-86 0 -145 35 -178 105c-15 -34 -38 -60 -68 -78s-64 -27 -102 -27
c-54 0 -99 18 -134 53c-25 25 -42 55 -49 90s-11 69 -11 104s4 69 11 104s24 65 49 90c35 35 80 53 134 53c38 0 72 -9 102 -27s53 -44 68 -78c15 34 37 60 65 78c29 18 62 27 101 27c61 0 108 -20 142 -62c34 -40 51 -98 51 -173v-23h-335zM406 241c0 14 0 28 -1 43
s-3 29 -5 44c-4 14 -8 27 -14 40c-5 13 -13 24 -23 34c-27 27 -61 41 -100 41s-73 -14 -100 -41c-10 -10 -18 -21 -23 -34c-6 -13 -10 -26 -14 -40c-2 -15 -4 -29 -5 -44s-1 -29 -1 -43s0 -28 1 -43s3 -29 5 -44c4 -14 8 -27 14 -40c5 -13 13 -24 23 -34
c27 -27 61 -41 100 -41s73 14 100 41c10 10 18 21 23 34c6 13 10 26 14 40c2 15 4 29 5 44s1 29 1 43zM741 271c-1 11 -1 21 -2 29c-1 9 -1 16 -3 23c0 7 -2 13 -4 19s-5 13 -8 20c-11 25 -27 45 -50 60c-22 14 -47 21 -75 21s-53 -7 -77 -21c-22 -15 -39 -35 -48 -60
c-5 -13 -9 -26 -12 -38c-2 -12 -4 -30 -5 -53h284z" />
    <glyph glyph-name="Scaron" unicode="&#x160;" horiz-adv-x="587" 
d="M528 191c0 -30 -6 -57 -16 -81c-12 -25 -27 -46 -48 -62c-21 -18 -46 -31 -76 -40c-29 -9 -63 -14 -100 -14c-53 0 -97 8 -134 22c-36 16 -70 39 -103 72l38 38c16 -16 31 -29 47 -40c14 -11 30 -19 46 -26s33 -11 50 -14c18 -3 38 -4 59 -4c57 0 101 13 134 38
c33 26 49 62 49 109c0 45 -13 78 -39 100c-6 5 -12 10 -19 14c-6 4 -13 7 -20 10c-8 3 -17 5 -28 7c-10 3 -22 5 -36 7l-83 13c-55 8 -97 25 -127 51c-37 31 -56 75 -56 132c0 30 5 57 16 81c10 24 24 44 44 62c18 16 42 30 69 38c27 10 58 14 92 14c44 0 81 -6 113 -18
c30 -13 61 -32 92 -59l-35 -35c-11 10 -22 19 -33 27s-24 15 -38 21c-13 6 -28 10 -46 14c-16 2 -35 4 -56 4c-52 0 -92 -13 -122 -39c-28 -26 -43 -62 -43 -108c0 -43 12 -74 36 -94c13 -11 28 -19 45 -26c18 -7 37 -12 57 -15l83 -13c17 -3 31 -5 43 -8s23 -6 33 -9
c9 -4 18 -9 26 -14c9 -5 17 -11 25 -18c19 -17 34 -36 45 -59s16 -49 16 -78zM314 780h-54l-123 147h57l93 -109l93 109h57z" />
    <glyph glyph-name="scaron" unicode="&#x161;" horiz-adv-x="494" 
d="M438 137c0 -44 -17 -79 -52 -105c-34 -25 -81 -38 -141 -38c-42 0 -79 6 -111 17c-31 11 -59 29 -84 52l35 35c37 -39 90 -59 158 -59c97 0 145 33 145 98c0 25 -7 44 -22 57s-38 21 -70 24l-80 7c-97 8 -145 50 -145 126c0 42 16 75 47 100s73 37 126 37
c34 0 65 -4 94 -14c29 -8 54 -21 75 -37l-34 -34c-37 27 -82 41 -135 41c-40 0 -70 -8 -92 -24c-20 -16 -31 -39 -31 -69c0 -25 8 -44 23 -57c16 -13 41 -21 75 -24l78 -7c20 -2 39 -5 56 -10s32 -12 45 -21c12 -9 22 -22 29 -37s11 -35 11 -58zM271 590h-54l-123 147h57
l93 -109l93 109h57z" />
    <glyph glyph-name="Ydieresis" unicode="&#x178;" horiz-adv-x="494" 
d="M274 295v-295h-54v295l-210 417h58l181 -360l177 360h58zM115 790v77h58v-77h-58zM323 790v77h58v-77h-58z" />
    <glyph glyph-name="Zcaron" unicode="&#x17d;" horiz-adv-x="559" 
d="M63 0v57l375 607h-360v48h418v-48l-378 -616h378v-48h-433zM314 780h-54l-123 147h57l93 -109l93 109h57z" />
    <glyph glyph-name="zcaron" unicode="&#x17e;" horiz-adv-x="452" 
d="M54 0v48l290 389h-274v45h328v-48l-291 -389h291v-45h-344zM261 590h-54l-123 147h57l93 -109l93 109h57z" />
    <glyph glyph-name="longs" unicode="&#x17f;" horiz-adv-x="245" 
d="M222 667c-25 0 -44 -7 -56 -21s-18 -34 -18 -59v-587h-51v586c0 37 10 67 29 90c20 24 49 36 87 36h44v-45h-35z" />
    <glyph glyph-name="florin" unicode="&#x192;" horiz-adv-x="394" 
d="M321 667c-25 0 -45 -7 -59 -21c-15 -14 -24 -34 -29 -59l-36 -207h109v-38h-116l-101 -572h-51l101 572h-109v38h116l36 206c7 37 22 67 46 90c23 24 54 36 92 36h44v-45h-43z" />
    <glyph glyph-name="uni02BB" unicode="&#x2bb;" horiz-adv-x="260" 
d="M95 642v70l70 70v-140h-70z" />
    <glyph glyph-name="afii57929" unicode="&#x2bc;" horiz-adv-x="260" 
d="M95 572v140h70v-70z" />
    <glyph glyph-name="circumflex" unicode="&#x2c6;" horiz-adv-x="500" 
d="M344 590l-93 109l-93 -109h-57l123 147h54l123 -147h-57z" />
    <glyph glyph-name="caron" unicode="&#x2c7;" horiz-adv-x="500" 
d="M277 590h-54l-123 147h57l93 -109l93 109h57z" />
    <glyph glyph-name="breve" unicode="&#x2d8;" horiz-adv-x="500" 
d="M415 722c-5 -43 -20 -76 -45 -100c-26 -23 -66 -35 -120 -35s-94 12 -120 35c-25 24 -40 57 -45 100h45c4 -28 16 -50 37 -66s48 -24 83 -24s62 8 83 24s33 38 37 66h45v0z" />
    <glyph glyph-name="dotaccent" unicode="&#x2d9;" horiz-adv-x="500" 
d="M219 610v63h62v-63h-62z" />
    <glyph glyph-name="ring" unicode="&#x2da;" horiz-adv-x="500" 
d="M364 677c0 -16 -3 -31 -9 -45c-6 -13 -14 -25 -25 -36c-10 -11 -22 -19 -36 -25c-13 -6 -28 -9 -44 -9s-31 3 -44 9c-14 6 -26 14 -36 25c-11 11 -19 23 -25 36c-6 14 -9 29 -9 45s3 31 9 45c6 13 14 25 25 36c10 10 22 18 36 24c13 6 28 9 44 9s31 -3 44 -9
c14 -6 26 -14 36 -24c11 -11 19 -23 25 -36c6 -14 9 -29 9 -45zM323 677c0 20 -7 37 -21 51c-15 14 -32 21 -52 21s-37 -7 -52 -21c-14 -14 -21 -31 -21 -51s7 -37 21 -51c15 -15 32 -22 52 -22s37 7 52 22c14 14 21 31 21 51z" />
    <glyph glyph-name="ogonek" unicode="&#x2db;" horiz-adv-x="500" 
d="M291 -220h-63l72 150h55z" />
    <glyph glyph-name="tilde" unicode="&#x2dc;" horiz-adv-x="500" 
d="M399 653c-11 -11 -21 -20 -31 -27c-8 -7 -17 -12 -24 -14c-7 -4 -14 -5 -19 -6s-10 -1 -15 -1c-11 0 -22 2 -32 5c-9 3 -22 10 -37 19c-9 5 -19 10 -27 15c-10 4 -19 6 -29 6c-8 0 -16 -2 -24 -5s-20 -13 -35 -28l-30 29c11 11 22 20 30 27c10 7 18 11 24 15
c8 2 14 4 20 5c5 1 10 1 15 1c15 0 27 -2 37 -6c9 -5 20 -11 32 -18c11 -7 20 -12 28 -16c9 -3 18 -5 28 -5c7 0 15 2 24 5c8 3 20 13 35 28l30 -29v0z" />
    <glyph glyph-name="hungarumlaut" unicode="&#x2dd;" horiz-adv-x="500" 
d="M188 590h-58l97 147h67zM334 590h-57l97 147h67z" />
    <glyph glyph-name="uni037E" unicode="&#x37e;" horiz-adv-x="292" 
d="M125 -136v204h68v-136zM123 312v74h74v-74h-74z" />
    <glyph glyph-name="uni0394" unicode="&#x394;" horiz-adv-x="591" 
d="M10 0l262 712h47l262 -712h-571zM295 640l-215 -592h431z" />
    <glyph glyph-name="uni03A9" unicode="&#x3a9;" horiz-adv-x="652" 
d="M570 356c0 -57 -1 -105 -4 -143s-11 -70 -25 -95c-7 -13 -16 -26 -25 -36c-9 -12 -22 -23 -37 -35h91v-47h-186v47c23 11 43 23 60 37c17 12 32 30 45 51s20 49 23 85c3 37 4 82 4 136c0 37 0 70 -2 96c0 28 -3 51 -6 70c-4 20 -10 37 -17 52s-17 28 -30 41
c-37 37 -82 55 -135 55s-98 -18 -135 -55c-13 -13 -23 -26 -30 -41s-13 -32 -17 -52c-3 -19 -6 -42 -6 -70c-2 -26 -2 -59 -2 -96c0 -54 1 -99 4 -136c3 -36 10 -64 23 -85s28 -39 45 -51c17 -14 37 -26 60 -37v-47h-186v47h91c-15 12 -28 23 -37 35c-9 10 -18 23 -25 36
c-14 25 -22 57 -25 95s-4 86 -4 143c0 43 1 80 2 110c1 29 4 55 9 77s12 41 21 57c9 17 22 33 39 50c21 21 47 38 75 50c30 12 62 18 98 18s68 -6 98 -18c28 -12 54 -29 75 -50c17 -17 30 -33 39 -50c9 -16 16 -35 21 -57s8 -48 9 -77c1 -30 2 -67 2 -110z" />
    <glyph glyph-name="uni03BC" unicode="&#x3bc;" horiz-adv-x="556" 
d="M408 0v57c-36 -42 -83 -63 -142 -63c-53 0 -95 15 -127 45v-269h-51v712h51v-299c0 -47 11 -82 33 -107c23 -25 56 -37 100 -37s78 13 101 37c23 26 35 61 35 107v299h51v-482h-51z" />
    <glyph glyph-name="pi" unicode="&#x3c0;" horiz-adv-x="559" 
d="M417 0v437h-269v-437h-51v482h371v-482h-51z" />
    <glyph glyph-name="uni2007" unicode="&#x2007;" 
 />
    <glyph glyph-name="uni2008" unicode="&#x2008;" horiz-adv-x="264" 
 />
    <glyph glyph-name="uni200B" unicode="&#x200b;" horiz-adv-x="0" 
 />
    <glyph glyph-name="endash" unicode="&#x2013;" 
d="M53 240v47h408v-47h-408z" />
    <glyph glyph-name="emdash" unicode="&#x2014;" horiz-adv-x="873" 
d="M82 240v47h709v-47h-709z" />
    <glyph glyph-name="quoteleft" unicode="&#x2018;" horiz-adv-x="260" 
d="M95 642v70l70 70v-140h-70z" />
    <glyph glyph-name="quoteright" unicode="&#x2019;" horiz-adv-x="260" 
d="M95 572v140h70v-70z" />
    <glyph glyph-name="quotesinglbase" unicode="&#x201a;" horiz-adv-x="260" 
d="M95 -70v140h70v-70z" />
    <glyph glyph-name="quotedblleft" unicode="&#x201c;" horiz-adv-x="416" 
d="M95 642v70l70 70v-140h-70zM251 642v70l70 70v-140h-70z" />
    <glyph glyph-name="quotedblright" unicode="&#x201d;" horiz-adv-x="416" 
d="M95 572v140h70v-70zM251 572v140h70v-70z" />
    <glyph glyph-name="quotedblbase" unicode="&#x201e;" horiz-adv-x="416" 
d="M95 -70v140h70v-70zM251 -70v140h70v-70z" />
    <glyph glyph-name="dagger" unicode="&#x2020;" horiz-adv-x="614" 
d="M331 457v-457h-51v457h-200v45h200v210h51v-210h203v-45h-203z" />
    <glyph glyph-name="daggerdbl" unicode="&#x2021;" horiz-adv-x="614" 
d="M331 -20v-210h-51v210h-200v45h200v432h-200v45h200v210h51v-210h203v-45h-203v-432h203v-45h-203z" />
    <glyph glyph-name="bullet" unicode="&#x2022;" horiz-adv-x="546" 
d="M436 334c0 -23 -4 -44 -13 -64c-9 -19 -20 -36 -35 -51s-32 -26 -52 -35c-19 -9 -40 -13 -63 -13s-44 4 -63 13c-20 9 -37 20 -52 35s-26 32 -35 51c-9 20 -13 41 -13 64s4 44 13 64c9 19 20 36 35 51s32 26 52 35c19 9 40 13 63 13s44 -4 63 -13c20 -9 37 -20 52 -35
s26 -32 35 -51c9 -20 13 -41 13 -64z" />
    <glyph glyph-name="ellipsis" unicode="&#x2026;" horiz-adv-x="724" 
d="M95 0v74h74v-74h-74zM325 0v74h74v-74h-74zM555 0v74h74v-74h-74z" />
    <glyph glyph-name="perthousand" unicode="&#x2030;" horiz-adv-x="1168" 
d="M288 583c0 30 -6 54 -20 71c-12 18 -35 27 -67 27s-55 -9 -68 -27c-13 -17 -20 -41 -20 -71v-103c0 -30 7 -54 20 -71s36 -26 68 -26s55 9 67 26c14 17 20 41 20 71v103zM332 478c0 -40 -12 -72 -36 -96c-24 -25 -56 -37 -95 -37s-71 12 -95 37c-25 24 -37 56 -37 96v107
c0 40 12 72 37 97c24 25 56 37 95 37s71 -12 95 -37s36 -57 36 -97v-107zM226 0l332 712h45l-332 -712h-45zM715 231c0 30 -7 54 -19 71c-14 18 -36 27 -68 27s-55 -9 -68 -27c-13 -17 -20 -41 -20 -71v-103c0 -30 7 -54 20 -71s36 -26 68 -26s54 9 68 26c12 17 19 41 19 71
v103zM759 126c0 -40 -12 -72 -36 -96c-24 -25 -56 -37 -95 -37s-71 12 -96 37c-24 24 -36 56 -36 96v107c0 40 12 72 36 97c25 25 57 37 96 37s71 -12 95 -37s36 -57 36 -97v-107zM1055 231c0 30 -7 54 -19 71c-14 18 -36 27 -68 27s-55 -9 -68 -27c-13 -17 -20 -41 -20 -71
v-103c0 -30 7 -54 20 -71s36 -26 68 -26s54 9 68 26c12 17 19 41 19 71v103zM1099 126c0 -40 -12 -72 -36 -96c-24 -25 -56 -37 -95 -37s-71 12 -96 37c-24 24 -36 56 -36 96v107c0 40 12 72 36 97c25 25 57 37 96 37s71 -12 95 -37s36 -57 36 -97v-107z" />
    <glyph glyph-name="guilsinglleft" unicode="&#x2039;" horiz-adv-x="320" 
d="M42 265l196 196v-66l-130 -130l130 -130v-66z" />
    <glyph glyph-name="guilsinglright" unicode="&#x203a;" horiz-adv-x="320" 
d="M82 69v66l130 130l-130 130v66l196 -196z" />
    <glyph glyph-name="fraction" unicode="&#x2044;" horiz-adv-x="177" 
d="M-55 0h-45l332 712h45z" />
    <glyph glyph-name="uni2070" unicode="&#x2070;" horiz-adv-x="313" 
d="M274 399c0 -36 -11 -65 -33 -86s-50 -32 -84 -32s-62 11 -84 32s-33 50 -33 86v199c0 36 11 65 33 86s50 32 84 32s62 -11 84 -32s33 -50 33 -86v-199zM230 596c0 23 -6 43 -19 58s-31 23 -54 23s-41 -8 -54 -23s-19 -35 -19 -58v-195c0 -23 6 -43 19 -57
c13 -16 31 -23 54 -23s41 7 54 23c13 14 19 34 19 57v195z" />
    <glyph glyph-name="uni2074" unicode="&#x2074;" horiz-adv-x="313" 
d="M238 352v-67h-44v67h-170v40l154 320h47l-153 -320h122v120h44v-120h52v-40h-52z" />
    <glyph glyph-name="uni2075" unicode="&#x2075;" horiz-adv-x="313" 
d="M278 426c0 -21 -2 -42 -6 -61c-3 -19 -13 -37 -28 -52c-10 -10 -22 -18 -36 -23c-15 -6 -31 -9 -50 -9c-37 0 -66 10 -86 30c-10 10 -17 21 -22 34c-4 13 -7 26 -8 41h44c3 -21 10 -38 21 -48c11 -12 28 -17 51 -17s40 6 53 19c11 11 18 25 20 40s3 31 3 46
c0 13 -1 25 -3 38s-5 24 -11 33c-4 9 -12 17 -22 23c-9 6 -21 9 -36 9c-19 0 -34 -4 -46 -11s-20 -18 -24 -31h-40v225h216v-40h-176v-133c17 19 42 28 76 28c32 0 57 -9 74 -26c15 -16 25 -34 30 -55c4 -20 6 -40 6 -60z" />
    <glyph glyph-name="uni2076" unicode="&#x2076;" horiz-adv-x="313" 
d="M276 408c0 -37 -10 -67 -32 -91c-20 -24 -49 -36 -86 -36s-66 11 -87 34s-32 53 -32 90c0 15 2 29 6 43c4 15 11 32 20 52l105 212h46l-95 -191c7 3 14 5 21 7c7 0 15 1 23 1c33 0 60 -11 81 -34c20 -23 30 -52 30 -87zM232 406c0 23 -6 44 -19 60c-13 18 -31 26 -56 26
c-23 0 -41 -8 -54 -23s-20 -36 -20 -63c0 -26 7 -47 20 -62s31 -23 54 -23s41 8 55 23c13 15 20 36 20 62z" />
    <glyph glyph-name="uni2077" unicode="&#x2077;" horiz-adv-x="313" 
d="M135 285h-44l148 387h-151v-71h-43v111h238v-39z" />
    <glyph glyph-name="uni2078" unicode="&#x2078;" horiz-adv-x="313" 
d="M283 403c0 -18 -3 -35 -9 -49c-7 -16 -16 -28 -27 -39s-25 -19 -40 -25s-32 -9 -50 -9s-35 3 -50 9s-29 14 -40 25s-20 23 -27 39c-6 14 -9 31 -9 49c0 25 6 47 19 63c12 18 27 31 45 41c-17 9 -31 22 -41 37c-10 16 -15 35 -15 57c0 17 3 32 9 46s14 26 24 37
c11 10 23 18 38 24c14 5 30 8 47 8s32 -3 47 -8c15 -6 27 -14 38 -24c10 -11 18 -23 24 -37s9 -29 9 -46c0 -22 -5 -41 -15 -57c-10 -15 -24 -28 -41 -37c18 -10 33 -23 45 -41c13 -16 19 -38 19 -63zM239 403c0 23 -8 43 -23 59c-16 16 -36 24 -59 24s-43 -8 -59 -24
c-15 -16 -23 -36 -23 -59s8 -43 23 -59c16 -15 36 -23 59 -23s43 8 59 23c15 16 23 36 23 59zM231 601c0 22 -7 40 -20 54s-31 21 -54 21s-41 -7 -54 -21s-20 -32 -20 -54s7 -40 21 -55c13 -14 31 -21 53 -21s40 7 53 21c14 15 21 33 21 55z" />
    <glyph glyph-name="uni2079" unicode="&#x2079;" horiz-adv-x="313" 
d="M275 592c0 -15 -2 -30 -7 -44c-4 -14 -11 -31 -20 -50l-105 -213h-46l96 191c-14 -5 -29 -8 -45 -8c-34 0 -61 11 -81 34s-30 52 -30 87c0 37 11 67 32 91s50 36 87 36s66 -11 87 -34s32 -53 32 -90zM231 591c0 26 -7 47 -20 62s-32 23 -55 23s-42 -8 -55 -23
s-20 -36 -20 -62c0 -23 6 -43 19 -61c13 -16 31 -25 56 -25c23 0 41 8 54 23c14 15 21 36 21 63z" />
    <glyph glyph-name="uni2080" unicode="&#x2080;" horiz-adv-x="313" 
d="M274 -36c0 -36 -11 -65 -33 -86s-50 -32 -84 -32s-62 11 -84 32s-33 50 -33 86v199c0 36 11 65 33 86s50 32 84 32s62 -11 84 -32s33 -50 33 -86v-199zM230 161c0 23 -6 43 -19 58s-31 23 -54 23s-41 -8 -54 -23s-19 -35 -19 -58v-195c0 -23 6 -42 19 -58
c13 -14 31 -22 54 -22s41 8 54 22c13 15 19 35 19 58v195z" />
    <glyph glyph-name="uni2081" unicode="&#x2081;" horiz-adv-x="313" 
d="M152 -150v378l-80 -71v51l80 69h44v-427h-44z" />
    <glyph glyph-name="uni2082" unicode="&#x2082;" horiz-adv-x="313" 
d="M44 -150v40l168 213c15 21 23 41 23 62c0 23 -6 42 -19 55c-13 14 -31 21 -54 21c-19 0 -37 -6 -52 -17c-14 -11 -22 -31 -22 -59h-44c0 34 11 62 32 83c21 22 50 33 86 33s65 -10 86 -31s32 -49 32 -85c0 -17 -3 -32 -8 -45s-14 -27 -26 -42l-149 -188h183v-40h-236z
" />
    <glyph glyph-name="uni2083" unicode="&#x2083;" horiz-adv-x="313" 
d="M287 -32c0 -20 -3 -38 -9 -52c-7 -16 -16 -28 -27 -38c-11 -11 -25 -19 -40 -24s-32 -8 -49 -8s-34 2 -48 7c-16 5 -29 12 -40 21s-20 21 -28 36c-6 14 -10 31 -11 50h45c1 -27 10 -46 26 -57c17 -11 35 -17 56 -17c23 0 42 7 58 22c15 15 23 35 23 60s-7 45 -21 60
c-13 14 -34 21 -63 21h-8v39h8c25 0 44 7 57 20c13 14 19 33 19 56c0 25 -7 44 -23 58c-14 12 -32 19 -51 19c-23 0 -41 -6 -53 -19c-14 -13 -21 -30 -23 -51h-44c3 35 15 62 37 81c23 19 50 29 83 29c36 0 65 -10 86 -31s32 -49 32 -85c0 -46 -19 -77 -57 -94
c43 -16 65 -50 65 -103z" />
    <glyph glyph-name="uni2084" unicode="&#x2084;" horiz-adv-x="313" 
d="M238 -83v-67h-44v67h-170v40l154 320h47l-153 -320h122v120h44v-120h52v-40h-52z" />
    <glyph glyph-name="uni2085" unicode="&#x2085;" horiz-adv-x="313" 
d="M278 -9c0 -21 -2 -42 -6 -61c-3 -19 -13 -37 -28 -52c-10 -10 -22 -18 -36 -24c-15 -5 -31 -8 -50 -8c-37 0 -66 10 -86 30c-10 10 -17 21 -22 34c-4 13 -7 26 -8 41h44c3 -21 10 -37 21 -49c11 -10 28 -16 51 -16s40 6 53 19c11 11 18 25 20 40s3 31 3 46
c0 13 -1 25 -3 38s-5 24 -11 33c-4 9 -12 17 -22 23c-9 6 -21 9 -36 9c-19 0 -34 -4 -46 -11s-20 -18 -24 -31h-40v225h216v-40h-176v-133c17 19 42 28 76 28c32 0 57 -9 74 -26c15 -16 25 -34 30 -54c4 -21 6 -41 6 -61z" />
    <glyph glyph-name="uni2086" unicode="&#x2086;" horiz-adv-x="313" 
d="M276 -27c0 -37 -10 -67 -32 -91c-20 -24 -49 -36 -86 -36s-66 11 -87 34s-32 53 -32 90c0 15 2 29 6 44c4 14 11 31 20 51l105 212h46l-95 -191c7 3 14 6 21 6c7 2 15 2 23 2c33 0 60 -11 81 -34c20 -23 30 -52 30 -87zM232 -29c0 23 -6 43 -19 61c-13 16 -31 25 -56 25
c-23 0 -41 -8 -54 -23s-20 -36 -20 -63c0 -26 7 -47 20 -62s31 -23 54 -23s41 8 55 23c13 15 20 36 20 62z" />
    <glyph glyph-name="uni2087" unicode="&#x2087;" horiz-adv-x="313" 
d="M135 -150h-44l148 387h-151v-71h-43v111h238v-39z" />
    <glyph glyph-name="uni2088" unicode="&#x2088;" horiz-adv-x="313" 
d="M283 -32c0 -18 -3 -34 -9 -50c-7 -14 -16 -27 -27 -38s-25 -19 -40 -25s-32 -9 -50 -9s-35 3 -50 9s-29 14 -40 25s-20 24 -27 38c-6 16 -9 32 -9 50c0 25 6 46 19 64c12 16 27 30 45 40c-17 9 -31 22 -41 38c-10 15 -15 34 -15 56c0 17 3 32 9 46s14 26 24 36
c11 11 23 19 38 24c14 6 30 9 47 9s32 -3 47 -9c15 -5 27 -13 38 -24c10 -10 18 -22 24 -36s9 -29 9 -46c0 -22 -5 -41 -15 -56c-10 -16 -24 -29 -41 -38c18 -10 33 -24 45 -40c13 -18 19 -39 19 -64zM239 -32c0 23 -8 43 -23 59c-16 16 -36 24 -59 24s-43 -8 -59 -24
c-15 -16 -23 -36 -23 -59s8 -43 23 -58c16 -16 36 -24 59 -24s43 8 59 24c15 15 23 35 23 58zM231 166c0 22 -7 40 -20 54s-31 21 -54 21s-41 -7 -54 -21s-20 -32 -20 -54s7 -40 21 -54c13 -15 31 -22 53 -22s40 7 53 22c14 14 21 32 21 54z" />
    <glyph glyph-name="uni2089" unicode="&#x2089;" horiz-adv-x="313" 
d="M275 157c0 -15 -2 -30 -7 -44c-4 -14 -11 -31 -20 -50l-105 -213h-46l96 191c-14 -5 -29 -8 -45 -8c-34 0 -61 11 -81 34s-30 52 -30 87c0 37 11 67 32 91s50 36 87 36s66 -11 87 -34s32 -53 32 -90zM231 156c0 26 -7 47 -20 62s-32 23 -55 23s-42 -8 -55 -23
s-20 -36 -20 -62c0 -23 6 -44 19 -60c13 -18 31 -26 56 -26c23 0 41 8 54 23c14 15 21 36 21 63z" />
    <glyph glyph-name="Euro" unicode="&#x20ac;" horiz-adv-x="676" 
d="M600 202c-6 -32 -16 -61 -30 -86c-14 -26 -32 -48 -52 -66c-22 -18 -46 -32 -72 -42c-28 -9 -57 -14 -88 -14c-36 0 -68 6 -98 18c-28 12 -54 29 -75 50c-13 13 -24 26 -33 40c-9 13 -16 27 -21 42c-5 16 -9 34 -11 54c-3 20 -4 43 -5 70h-65v38h64v106h-64v38h65
c1 25 2 48 5 67s7 37 12 52s12 29 20 42c9 13 20 26 33 39c21 21 47 38 75 50c30 12 62 18 98 18c65 0 118 -18 160 -56c43 -36 70 -87 82 -152h-55c-11 50 -33 89 -65 118c-34 28 -74 42 -122 42c-53 0 -98 -18 -135 -55c-19 -19 -33 -41 -40 -66s-12 -58 -14 -99h244v-38
h-245v-106h245v-38h-244c1 -44 6 -79 13 -104s21 -48 41 -67c37 -37 82 -55 135 -55c48 0 89 14 122 42c34 29 56 68 67 118h53z" />
    <glyph glyph-name="uni20B4" unicode="&#x20b4;" horiz-adv-x="651" 
d="M524 412c-6 -8 -13 -15 -21 -21c-30 -26 -72 -43 -127 -51l-83 -13c-19 -3 -35 -6 -47 -9c-13 -3 -24 -7 -33 -12h388v-38h-430c-13 -20 -20 -46 -20 -79c0 -47 16 -83 49 -109c33 -25 77 -38 134 -38c21 0 41 1 58 4c18 3 35 7 51 14s31 15 47 26c14 11 30 24 46 40
l38 -38c-33 -33 -67 -56 -104 -72c-36 -14 -80 -22 -133 -22c-37 0 -71 5 -101 14c-29 9 -54 22 -75 40c-21 16 -37 37 -47 62c-12 24 -17 51 -17 81c0 28 5 54 15 77h-62v38h86c7 8 14 15 22 22s16 13 24 18c9 5 18 10 28 14c9 3 20 6 32 9s26 5 43 8l83 13c13 2 26 5 38 8
c12 4 23 9 34 14h-390v38h437c13 19 19 44 19 75c0 46 -14 82 -44 108c-28 26 -69 39 -121 39c-42 0 -76 -6 -103 -18c-26 -12 -49 -28 -70 -48l-35 35c31 27 61 46 93 59c30 12 68 18 112 18c34 0 65 -4 92 -14c27 -8 50 -22 70 -38c18 -18 33 -38 44 -62
c10 -24 15 -51 15 -81c0 -14 -1 -27 -3 -39c-3 -12 -6 -23 -10 -34h55v-38h-77z" />
    <glyph glyph-name="afii61352" unicode="&#x2116;" horiz-adv-x="940" 
d="M497 0l-361 616v-616h-51v712h51l361 -614v614h51v-712h-51zM834 542c0 19 -1 39 -4 60c-3 20 -10 36 -21 47c-16 16 -36 24 -60 24s-44 -8 -60 -24c-11 -11 -18 -27 -21 -47c-3 -21 -4 -41 -4 -60s1 -39 4 -60c3 -20 10 -36 21 -47c16 -16 36 -24 60 -24s44 8 60 24
c11 11 18 27 21 47c3 21 4 41 4 60zM881 542c0 -25 -3 -51 -7 -76c-6 -24 -17 -46 -34 -63c-23 -23 -54 -35 -91 -35s-68 12 -91 35c-17 17 -28 39 -34 63c-4 26 -7 51 -7 76s3 50 7 76c6 24 17 46 34 63c23 23 54 35 91 35s68 -12 91 -35c17 -17 28 -39 34 -63
c4 -26 7 -51 7 -76zM617 285v44h262v-44h-262z" />
    <glyph glyph-name="trademark" unicode="&#x2122;" horiz-adv-x="809" 
d="M709 285v328l-110 -218h-46l-110 218v-328h-44v427h44l133 -270l133 270h44v-427h-44zM198 671v-386h-44v386h-122v41h288v-41h-122z" />
    <glyph glyph-name="Omega" unicode="&#x3a9;" horiz-adv-x="652" 
d="M570 356c0 -57 -1 -105 -4 -143s-11 -70 -25 -95c-7 -13 -16 -26 -25 -36c-9 -12 -22 -23 -37 -35h91v-47h-186v47c23 11 43 23 60 37c17 12 32 30 45 51s20 49 23 85c3 37 4 82 4 136c0 37 0 70 -2 96c0 28 -3 51 -6 70c-4 20 -10 37 -17 52s-17 28 -30 41
c-37 37 -82 55 -135 55s-98 -18 -135 -55c-13 -13 -23 -26 -30 -41s-13 -32 -17 -52c-3 -19 -6 -42 -6 -70c-2 -26 -2 -59 -2 -96c0 -54 1 -99 4 -136c3 -36 10 -64 23 -85s28 -39 45 -51c17 -14 37 -26 60 -37v-47h-186v47h91c-15 12 -28 23 -37 35c-9 10 -18 23 -25 36
c-14 25 -22 57 -25 95s-4 86 -4 143c0 43 1 80 2 110c1 29 4 55 9 77s12 41 21 57c9 17 22 33 39 50c21 21 47 38 75 50c30 12 62 18 98 18s68 -6 98 -18c28 -12 54 -29 75 -50c17 -17 30 -33 39 -50c9 -16 16 -35 21 -57s8 -48 9 -77c1 -30 2 -67 2 -110z" />
    <glyph glyph-name="uni2150" unicode="&#x2150;" horiz-adv-x="803" 
d="M152 285v378l-80 -71v51l80 69h44v-427h-44zM258 0h-45l332 712h45zM625 0h-44l148 387h-151v-71h-43v111h238v-39z" />
    <glyph glyph-name="uni2151" unicode="&#x2151;" horiz-adv-x="803" 
d="M152 285v378l-80 -71v51l80 69h44v-427h-44zM258 0h-45l332 712h45zM765 307c0 -15 -2 -30 -7 -44c-4 -14 -11 -31 -20 -50l-105 -213h-46l96 191c-14 -5 -29 -8 -45 -8c-34 0 -61 11 -81 34s-30 52 -30 87c0 37 11 67 32 91s50 36 87 36s66 -11 87 -34s32 -53 32 -90z
M721 306c0 26 -7 47 -20 62s-32 23 -55 23s-42 -8 -55 -23s-20 -36 -20 -62c0 -23 6 -44 19 -60c13 -18 31 -26 56 -26c23 0 41 8 54 23c14 15 21 36 21 63z" />
    <glyph glyph-name="uni2152" unicode="&#x2152;" horiz-adv-x="1116" 
d="M152 285v378l-80 -71v51l80 69h44v-427h-44zM258 0h-45l332 712h45zM642 0v378l-80 -71v51l80 69h44v-427h-44zM1077 114c0 -36 -11 -65 -33 -86s-50 -32 -84 -32s-62 11 -84 32s-33 50 -33 86v199c0 36 11 65 33 86s50 32 84 32s62 -11 84 -32s33 -50 33 -86v-199z
M1033 311c0 23 -6 43 -19 58s-31 23 -54 23s-41 -8 -54 -23s-19 -35 -19 -58v-195c0 -23 6 -42 19 -58c13 -14 31 -22 54 -22s41 8 54 22c13 16 19 35 19 58v195z" />
    <glyph glyph-name="onethird" unicode="&#x2153;" horiz-adv-x="803" 
d="M152 285v378l-80 -71v51l80 69h44v-427h-44zM258 0h-45l332 712h45zM772 118c0 -20 -3 -38 -10 -52c-6 -16 -15 -28 -26 -38c-11 -11 -25 -19 -40 -24s-32 -8 -49 -8s-33 2 -49 7c-14 5 -28 12 -39 21s-21 21 -27 36c-8 14 -11 31 -12 50h45c1 -27 10 -46 27 -57
c16 -11 34 -17 55 -17c23 0 42 7 57 22c16 15 24 35 24 60s-7 45 -20 60c-14 14 -35 21 -64 21h-8v39h8c25 0 44 7 57 20c13 14 19 33 19 56c0 25 -8 44 -22 58c-16 12 -33 19 -52 19c-23 0 -40 -6 -54 -19c-12 -13 -20 -30 -22 -51h-44c3 35 15 62 38 81c22 19 49 29 82 29
c36 0 65 -10 86 -31s32 -49 32 -85c0 -46 -19 -77 -57 -94c43 -16 65 -50 65 -103z" />
    <glyph glyph-name="twothirds" unicode="&#x2154;" horiz-adv-x="803" 
d="M44 285v40l168 213c15 21 23 41 23 62c0 23 -6 42 -19 56c-13 13 -31 20 -54 20c-19 0 -37 -6 -52 -17c-14 -11 -22 -31 -22 -59h-44c0 34 11 62 32 84c21 21 50 32 86 32s65 -10 86 -31s32 -49 32 -85c0 -17 -3 -32 -8 -45s-14 -27 -26 -42l-149 -188h183v-40h-236z
M258 0h-45l332 712h45zM772 118c0 -20 -3 -38 -10 -52c-6 -16 -15 -28 -26 -38c-11 -11 -25 -19 -40 -24s-32 -8 -49 -8s-33 2 -49 7c-14 5 -28 12 -39 21s-21 21 -27 36c-8 14 -11 31 -12 50h45c1 -27 10 -46 27 -57c16 -11 34 -17 55 -17c23 0 42 7 57 22
c16 15 24 35 24 60s-7 45 -20 60c-14 14 -35 21 -64 21h-8v39h8c25 0 44 7 57 20c13 14 19 33 19 56c0 25 -8 44 -22 58c-16 12 -33 19 -52 19c-23 0 -40 -6 -54 -19c-12 -13 -20 -30 -22 -51h-44c3 35 15 62 38 81c22 19 49 29 82 29c36 0 65 -10 86 -31s32 -49 32 -85
c0 -46 -19 -77 -57 -94c43 -16 65 -50 65 -103z" />
    <glyph glyph-name="uni2155" unicode="&#x2155;" horiz-adv-x="803" 
d="M152 285v378l-80 -71v51l80 69h44v-427h-44zM258 0h-45l332 712h45zM768 141c0 -21 -2 -42 -6 -61c-3 -19 -13 -37 -28 -52c-10 -10 -22 -18 -36 -24c-15 -5 -31 -8 -50 -8c-37 0 -66 10 -86 30c-10 10 -17 21 -22 34c-4 13 -7 26 -8 41h44c3 -21 10 -37 21 -49
c11 -10 28 -16 51 -16s40 6 53 19c11 11 18 25 20 40s3 31 3 46c0 13 -1 25 -3 38s-5 24 -11 33c-4 9 -12 17 -22 23c-9 6 -21 9 -36 9c-19 0 -34 -4 -46 -11s-20 -18 -24 -31h-40v225h216v-40h-176v-133c17 19 42 28 76 28c32 0 57 -9 74 -26c15 -16 25 -34 30 -54
c4 -21 6 -41 6 -61z" />
    <glyph glyph-name="uni2156" unicode="&#x2156;" horiz-adv-x="803" 
d="M44 285v40l168 213c15 21 23 41 23 62c0 23 -6 42 -19 56c-13 13 -31 20 -54 20c-19 0 -37 -6 -52 -17c-14 -11 -22 -31 -22 -59h-44c0 34 11 62 32 84c21 21 50 32 86 32s65 -10 86 -31s32 -49 32 -85c0 -17 -3 -32 -8 -45s-14 -27 -26 -42l-149 -188h183v-40h-236z
M258 0h-45l332 712h45zM768 141c0 -21 -2 -42 -6 -61c-3 -19 -13 -37 -28 -52c-10 -10 -22 -18 -36 -24c-15 -5 -31 -8 -50 -8c-37 0 -66 10 -86 30c-10 10 -17 21 -22 34c-4 13 -7 26 -8 41h44c3 -21 10 -37 21 -49c11 -10 28 -16 51 -16s40 6 53 19c11 11 18 25 20 40
s3 31 3 46c0 13 -1 25 -3 38s-5 24 -11 33c-4 9 -12 17 -22 23c-9 6 -21 9 -36 9c-19 0 -34 -4 -46 -11s-20 -18 -24 -31h-40v225h216v-40h-176v-133c17 19 42 28 76 28c32 0 57 -9 74 -26c15 -16 25 -34 30 -54c4 -21 6 -41 6 -61z" />
    <glyph glyph-name="uni2157" unicode="&#x2157;" horiz-adv-x="803" 
d="M282 403c0 -20 -3 -37 -10 -53c-6 -14 -15 -27 -26 -38c-11 -10 -25 -18 -40 -23s-32 -8 -49 -8s-34 2 -49 7c-14 5 -28 12 -39 21s-21 21 -27 35c-8 15 -11 32 -12 51h45c1 -27 10 -46 27 -57c16 -11 34 -17 55 -17c23 0 42 7 57 22c16 15 24 35 24 60s-7 45 -20 59
c-14 15 -35 22 -64 22h-8v39h8c25 0 44 7 57 21c13 13 19 32 19 55c0 25 -8 45 -22 57c-16 14 -33 20 -52 20c-23 0 -40 -6 -54 -19c-12 -13 -20 -30 -22 -51h-44c3 35 15 62 38 81c22 19 49 29 82 29c36 0 65 -10 86 -31s32 -49 32 -85c0 -46 -19 -77 -57 -94
c43 -16 65 -50 65 -103zM258 0h-45l332 712h45zM768 141c0 -21 -2 -42 -6 -61c-3 -19 -13 -37 -28 -52c-10 -10 -22 -18 -36 -24c-15 -5 -31 -8 -50 -8c-37 0 -66 10 -86 30c-10 10 -17 21 -22 34c-4 13 -7 26 -8 41h44c3 -21 10 -37 21 -49c11 -10 28 -16 51 -16
s40 6 53 19c11 11 18 25 20 40s3 31 3 46c0 13 -1 25 -3 38s-5 24 -11 33c-4 9 -12 17 -22 23c-9 6 -21 9 -36 9c-19 0 -34 -4 -46 -11s-20 -18 -24 -31h-40v225h216v-40h-176v-133c17 19 42 28 76 28c32 0 57 -9 74 -26c15 -16 25 -34 30 -54c4 -21 6 -41 6 -61z" />
    <glyph glyph-name="uni2158" unicode="&#x2158;" horiz-adv-x="803" 
d="M238 352v-67h-44v67h-170v40l154 320h47l-153 -320h122v120h44v-120h52v-40h-52zM258 0h-45l332 712h45zM768 141c0 -21 -2 -42 -6 -61c-3 -19 -13 -37 -28 -52c-10 -10 -22 -18 -36 -24c-15 -5 -31 -8 -50 -8c-37 0 -66 10 -86 30c-10 10 -17 21 -22 34
c-4 13 -7 26 -8 41h44c3 -21 10 -37 21 -49c11 -10 28 -16 51 -16s40 6 53 19c11 11 18 25 20 40s3 31 3 46c0 13 -1 25 -3 38s-5 24 -11 33c-4 9 -12 17 -22 23c-9 6 -21 9 -36 9c-19 0 -34 -4 -46 -11s-20 -18 -24 -31h-40v225h216v-40h-176v-133c17 19 42 28 76 28
c32 0 57 -9 74 -26c15 -16 25 -34 30 -54c4 -21 6 -41 6 -61z" />
    <glyph glyph-name="uni2159" unicode="&#x2159;" horiz-adv-x="803" 
d="M152 285v378l-80 -71v51l80 69h44v-427h-44zM258 0h-45l332 712h45zM766 123c0 -37 -10 -67 -32 -91c-20 -24 -49 -36 -86 -36s-66 11 -87 34s-32 53 -32 90c0 15 2 29 6 44c4 14 11 31 20 51l105 212h46l-95 -191c7 3 14 6 21 6c7 2 15 2 23 2c33 0 60 -11 81 -34
c20 -23 30 -52 30 -87zM722 121c0 23 -6 43 -19 61c-13 16 -31 25 -56 25c-23 0 -41 -8 -54 -23s-20 -36 -20 -63c0 -26 7 -47 20 -62s31 -23 54 -23s41 8 55 23c13 15 20 36 20 62z" />
    <glyph glyph-name="uni215A" unicode="&#x215a;" horiz-adv-x="803" 
d="M278 426c0 -21 -2 -42 -6 -61c-3 -19 -13 -37 -28 -52c-10 -10 -22 -18 -36 -23c-15 -6 -31 -9 -50 -9c-37 0 -66 10 -86 30c-10 10 -17 21 -22 34c-4 13 -7 26 -8 41h44c3 -21 10 -38 21 -48c11 -12 28 -17 51 -17s40 6 53 19c11 11 18 25 20 40s3 31 3 46
c0 13 -1 25 -3 38s-5 24 -11 33c-4 9 -12 17 -22 23c-9 6 -21 9 -36 9c-19 0 -34 -4 -46 -11s-20 -18 -24 -31h-40v225h216v-40h-176v-133c17 19 42 28 76 28c32 0 57 -9 74 -26c15 -16 25 -34 30 -55c4 -20 6 -40 6 -60zM258 0h-45l332 712h45zM766 123
c0 -37 -10 -67 -32 -91c-20 -24 -49 -36 -86 -36s-66 11 -87 34s-32 53 -32 90c0 15 2 29 6 44c4 14 11 31 20 51l105 212h46l-95 -191c7 3 14 6 21 6c7 2 15 2 23 2c33 0 60 -11 81 -34c20 -23 30 -52 30 -87zM722 121c0 23 -6 43 -19 61c-13 16 -31 25 -56 25
c-23 0 -41 -8 -54 -23s-20 -36 -20 -63c0 -26 7 -47 20 -62s31 -23 54 -23s41 8 55 23c13 15 20 36 20 62z" />
    <glyph glyph-name="oneeighth" unicode="&#x215b;" horiz-adv-x="803" 
d="M152 285v378l-80 -71v51l80 69h44v-427h-44zM258 0h-45l332 712h45zM773 118c0 -18 -3 -34 -9 -50c-7 -14 -16 -27 -27 -38s-25 -19 -40 -25s-32 -9 -50 -9s-35 3 -50 9s-29 14 -40 25s-20 24 -27 38c-6 16 -9 32 -9 50c0 25 6 46 19 64c12 16 27 30 45 40
c-17 9 -31 22 -41 38c-10 15 -15 34 -15 56c0 17 3 32 9 46s14 26 24 36c11 11 23 19 38 24c14 6 30 9 47 9s32 -3 47 -9c15 -5 27 -13 38 -24c10 -10 18 -22 24 -36s9 -29 9 -46c0 -22 -5 -41 -15 -56c-10 -16 -24 -29 -41 -38c18 -10 33 -24 45 -40c13 -18 19 -39 19 -64z
M729 118c0 23 -8 43 -23 59c-16 16 -36 24 -59 24s-43 -8 -59 -24c-15 -16 -23 -36 -23 -59s8 -43 23 -58c16 -16 36 -24 59 -24s43 8 59 24c15 15 23 35 23 58zM721 316c0 22 -7 40 -20 54s-31 21 -54 21s-41 -7 -54 -21s-20 -32 -20 -54s7 -40 21 -54
c13 -15 31 -22 53 -22s40 7 53 22c14 14 21 32 21 54z" />
    <glyph glyph-name="threeeighths" unicode="&#x215c;" horiz-adv-x="803" 
d="M282 403c0 -20 -3 -37 -10 -53c-6 -14 -15 -27 -26 -38c-11 -10 -25 -18 -40 -23s-32 -8 -49 -8s-34 2 -49 7c-14 5 -28 12 -39 21s-21 21 -27 35c-8 15 -11 32 -12 51h45c1 -27 10 -46 27 -57c16 -11 34 -17 55 -17c23 0 42 7 57 22c16 15 24 35 24 60s-7 45 -20 59
c-14 15 -35 22 -64 22h-8v39h8c25 0 44 7 57 21c13 13 19 32 19 55c0 25 -8 45 -22 57c-16 14 -33 20 -52 20c-23 0 -40 -6 -54 -19c-12 -13 -20 -30 -22 -51h-44c3 35 15 62 38 81c22 19 49 29 82 29c36 0 65 -10 86 -31s32 -49 32 -85c0 -46 -19 -77 -57 -94
c43 -16 65 -50 65 -103zM258 0h-45l332 712h45zM773 118c0 -18 -3 -34 -9 -50c-7 -14 -16 -27 -27 -38s-25 -19 -40 -25s-32 -9 -50 -9s-35 3 -50 9s-29 14 -40 25s-20 24 -27 38c-6 16 -9 32 -9 50c0 25 6 46 19 64c12 16 27 30 45 40c-17 9 -31 22 -41 38
c-10 15 -15 34 -15 56c0 17 3 32 9 46s14 26 24 36c11 11 23 19 38 24c14 6 30 9 47 9s32 -3 47 -9c15 -5 27 -13 38 -24c10 -10 18 -22 24 -36s9 -29 9 -46c0 -22 -5 -41 -15 -56c-10 -16 -24 -29 -41 -38c18 -10 33 -24 45 -40c13 -18 19 -39 19 -64zM729 118
c0 23 -8 43 -23 59c-16 16 -36 24 -59 24s-43 -8 -59 -24c-15 -16 -23 -36 -23 -59s8 -43 23 -58c16 -16 36 -24 59 -24s43 8 59 24c15 15 23 35 23 58zM721 316c0 22 -7 40 -20 54s-31 21 -54 21s-41 -7 -54 -21s-20 -32 -20 -54s7 -40 21 -54c13 -15 31 -22 53 -22
s40 7 53 22c14 14 21 32 21 54z" />
    <glyph glyph-name="fiveeighths" unicode="&#x215d;" horiz-adv-x="803" 
d="M278 426c0 -21 -2 -42 -6 -61c-3 -19 -13 -37 -28 -52c-10 -10 -22 -18 -36 -23c-15 -6 -31 -9 -50 -9c-37 0 -66 10 -86 30c-10 10 -17 21 -22 34c-4 13 -7 26 -8 41h44c3 -21 10 -38 21 -48c11 -12 28 -17 51 -17s40 6 53 19c11 11 18 25 20 40s3 31 3 46
c0 13 -1 25 -3 38s-5 24 -11 33c-4 9 -12 17 -22 23c-9 6 -21 9 -36 9c-19 0 -34 -4 -46 -11s-20 -18 -24 -31h-40v225h216v-40h-176v-133c17 19 42 28 76 28c32 0 57 -9 74 -26c15 -16 25 -34 30 -55c4 -20 6 -40 6 -60zM258 0h-45l332 712h45zM773 118
c0 -18 -3 -34 -9 -50c-7 -14 -16 -27 -27 -38s-25 -19 -40 -25s-32 -9 -50 -9s-35 3 -50 9s-29 14 -40 25s-20 24 -27 38c-6 16 -9 32 -9 50c0 25 6 46 19 64c12 16 27 30 45 40c-17 9 -31 22 -41 38c-10 15 -15 34 -15 56c0 17 3 32 9 46s14 26 24 36c11 11 23 19 38 24
c14 6 30 9 47 9s32 -3 47 -9c15 -5 27 -13 38 -24c10 -10 18 -22 24 -36s9 -29 9 -46c0 -22 -5 -41 -15 -56c-10 -16 -24 -29 -41 -38c18 -10 33 -24 45 -40c13 -18 19 -39 19 -64zM729 118c0 23 -8 43 -23 59c-16 16 -36 24 -59 24s-43 -8 -59 -24c-15 -16 -23 -36 -23 -59
s8 -43 23 -58c16 -16 36 -24 59 -24s43 8 59 24c15 15 23 35 23 58zM721 316c0 22 -7 40 -20 54s-31 21 -54 21s-41 -7 -54 -21s-20 -32 -20 -54s7 -40 21 -54c13 -15 31 -22 53 -22s40 7 53 22c14 14 21 32 21 54z" />
    <glyph glyph-name="seveneighths" unicode="&#x215e;" horiz-adv-x="803" 
d="M135 285h-44l148 387h-151v-71h-43v111h238v-39zM258 0h-45l332 712h45zM773 118c0 -18 -3 -34 -9 -50c-7 -14 -16 -27 -27 -38s-25 -19 -40 -25s-32 -9 -50 -9s-35 3 -50 9s-29 14 -40 25s-20 24 -27 38c-6 16 -9 32 -9 50c0 25 6 46 19 64c12 16 27 30 45 40
c-17 9 -31 22 -41 38c-10 15 -15 34 -15 56c0 17 3 32 9 46s14 26 24 36c11 11 23 19 38 24c14 6 30 9 47 9s32 -3 47 -9c15 -5 27 -13 38 -24c10 -10 18 -22 24 -36s9 -29 9 -46c0 -22 -5 -41 -15 -56c-10 -16 -24 -29 -41 -38c18 -10 33 -24 45 -40c13 -18 19 -39 19 -64z
M729 118c0 23 -8 43 -23 59c-16 16 -36 24 -59 24s-43 -8 -59 -24c-15 -16 -23 -36 -23 -59s8 -43 23 -58c16 -16 36 -24 59 -24s43 8 59 24c15 15 23 35 23 58zM721 316c0 22 -7 40 -20 54s-31 21 -54 21s-41 -7 -54 -21s-20 -32 -20 -54s7 -40 21 -54
c13 -15 31 -22 53 -22s40 7 53 22c14 14 21 32 21 54z" />
    <glyph glyph-name="uni215F" unicode="&#x215f;" horiz-adv-x="490" 
d="M152 285v378l-80 -71v51l80 69h44v-427h-44zM258 0h-45l332 712h45z" />
    <glyph glyph-name="uni2189" unicode="&#x2189;" horiz-adv-x="803" 
d="M274 399c0 -36 -11 -65 -33 -86s-50 -32 -84 -32s-62 11 -84 32s-33 50 -33 86v199c0 36 11 65 33 86s50 32 84 32s62 -11 84 -32s33 -50 33 -86v-199zM230 596c0 23 -6 43 -19 58s-31 23 -54 23s-41 -8 -54 -23s-19 -35 -19 -58v-195c0 -23 6 -43 19 -57
c13 -16 31 -23 54 -23s41 7 54 23c13 14 19 34 19 57v195zM258 0h-45l332 712h45zM772 118c0 -20 -3 -38 -10 -52c-6 -16 -15 -28 -26 -38c-11 -11 -25 -19 -40 -24s-32 -8 -49 -8s-33 2 -49 7c-14 5 -28 12 -39 21s-21 21 -27 36c-8 14 -11 31 -12 50h45
c1 -27 10 -46 27 -57c16 -11 34 -17 55 -17c23 0 42 7 57 22c16 15 24 35 24 60s-7 45 -20 60c-14 14 -35 21 -64 21h-8v39h8c25 0 44 7 57 20c13 14 19 33 19 56c0 25 -8 44 -22 58c-16 12 -33 19 -52 19c-23 0 -40 -6 -54 -19c-12 -13 -20 -30 -22 -51h-44
c3 35 15 62 38 81c22 19 49 29 82 29c36 0 65 -10 86 -31s32 -49 32 -85c0 -46 -19 -77 -57 -94c43 -16 65 -50 65 -103z" />
    <glyph glyph-name="arrowleft" unicode="&#x2190;" horiz-adv-x="1027" 
d="M152 238l379 -379h-69l-404 404l404 404h69l-379 -379h819v-50h-819z" />
    <glyph glyph-name="arrowup" unicode="&#x2191;" horiz-adv-x="1027" 
d="M539 626v-819h-50v819l-379 -379v69l404 404l404 -404v-69z" />
    <glyph glyph-name="arrowright" unicode="&#x2192;" horiz-adv-x="1027" 
d="M567 -141h-69l379 379h-819v50h819l-379 379h69l404 -404z" />
    <glyph glyph-name="arrowdown" unicode="&#x2193;" horiz-adv-x="1027" 
d="M514 -193l-404 404v69l379 -379v819h50v-819l379 379v-69z" />
    <glyph glyph-name="uni2196" unicode="&#x2196;" horiz-adv-x="1027" 
d="M819 -77l-580 579v-536l-48 48v572h571l49 -49h-536l579 -579z" />
    <glyph glyph-name="uni2197" unicode="&#x2197;" horiz-adv-x="1027" 
d="M788 -34v536l-580 -579l-35 35l579 579h-536l49 49h571v-572z" />
    <glyph glyph-name="uni2198" unicode="&#x2198;" horiz-adv-x="1027" 
d="M265 -77l-49 48h536l-579 579l35 36l580 -579v536l48 -49v-571h-571z" />
    <glyph glyph-name="uni2199" unicode="&#x2199;" horiz-adv-x="1027" 
d="M275 -29h536l-49 -48h-571v571l48 49v-536l580 579l35 -36z" />
    <glyph glyph-name="partialdiff" unicode="&#x2202;" horiz-adv-x="540" 
d="M443 241c0 -17 -1 -35 -2 -53c-1 -17 -4 -34 -9 -51c-4 -17 -10 -33 -18 -48c-7 -15 -17 -29 -29 -42c-34 -35 -77 -53 -129 -53s-95 18 -129 53c-12 13 -22 27 -29 42c-8 15 -14 31 -18 48c-5 17 -8 34 -9 51c-1 18 -2 36 -2 53c0 38 3 74 11 109c6 34 22 63 47 88
c13 13 31 25 51 35c22 10 45 15 71 15c27 0 53 -4 76 -13s46 -27 67 -55v86c0 24 -3 46 -8 66c-6 21 -15 38 -27 54c-12 14 -27 26 -45 34c-19 9 -41 13 -66 13c-15 0 -29 -1 -40 -3c-11 -3 -22 -6 -31 -11s-18 -10 -27 -17c-9 -6 -18 -13 -27 -22l-33 33c13 11 25 21 36 29
s23 15 35 20s25 9 39 12s30 4 48 4c31 0 59 -5 84 -15s45 -24 62 -43s29 -41 38 -66c9 -26 13 -54 13 -85v-268zM392 241c0 14 0 28 -1 43s-2 29 -5 44c-3 14 -7 27 -12 40c-6 13 -14 24 -23 34c-26 27 -58 41 -95 41s-69 -14 -95 -41c-9 -10 -17 -21 -23 -34
c-5 -13 -9 -26 -12 -40c-3 -15 -4 -29 -5 -44s-1 -29 -1 -43s0 -28 1 -43s2 -29 5 -44c3 -14 7 -27 12 -40c6 -13 14 -24 23 -34c26 -27 58 -41 95 -41s69 14 95 41c9 10 17 21 23 34c5 13 9 26 12 40c3 15 4 29 5 44s1 29 1 43z" />
    <glyph glyph-name="Delta" unicode="&#x394;" horiz-adv-x="591" 
d="M10 0l262 712h47l262 -712h-571zM295 640l-215 -592h431z" />
    <glyph glyph-name="product" unicode="&#x220f;" horiz-adv-x="699" 
d="M535 -230v942h-371v-942h-54v990h479v-990h-54z" />
    <glyph glyph-name="summation" unicode="&#x2211;" horiz-adv-x="551" 
d="M63 -230v48l207 461l-207 433v48h432v-48h-371l195 -409v-48l-195 -437h371v-48h-432z" />
    <glyph glyph-name="minus" unicode="&#x2212;" 
d="M53 240v47h408v-47h-408z" />
    <glyph glyph-name="uni2219" unicode="&#x2219;" 
d="M421 334c0 -23 -4 -44 -13 -64c-9 -19 -20 -36 -35 -51s-32 -26 -51 -35c-20 -9 -41 -13 -64 -13s-44 4 -64 13c-19 9 -36 20 -51 35s-26 32 -35 51c-9 20 -13 41 -13 64s4 44 13 64c9 19 20 36 35 51s32 26 51 35c20 9 41 13 64 13s44 -4 64 -13c19 -9 36 -20 51 -35
s26 -32 35 -51c9 -20 13 -41 13 -64z" />
    <glyph glyph-name="radical" unicode="&#x221a;" horiz-adv-x="550" 
d="M432 664l-217 -664h-46l-159 482h56l126 -387l199 617h129v-48h-88z" />
    <glyph glyph-name="infinity" unicode="&#x221e;" horiz-adv-x="792" 
d="M720 260c0 -21 -4 -41 -11 -59s-17 -34 -31 -47c-12 -13 -28 -24 -46 -31s-38 -11 -59 -11c-17 0 -33 2 -48 6s-29 10 -43 19s-28 20 -42 33c-14 14 -29 31 -44 50c-15 -19 -30 -36 -44 -50c-14 -13 -28 -24 -42 -34c-14 -8 -28 -15 -43 -19s-30 -6 -47 -6
c-21 0 -41 4 -60 11c-18 8 -34 19 -46 32c-14 13 -24 29 -31 47s-11 38 -11 59s4 41 11 60c7 18 17 34 31 47c12 13 28 24 46 31c19 8 39 12 60 12c33 0 62 -9 89 -26s56 -45 87 -84c15 19 30 36 44 50c14 13 28 24 42 34c13 8 28 15 42 20c16 4 32 6 49 6
c21 0 41 -4 59 -12c18 -7 34 -18 46 -31c14 -13 24 -29 31 -47c7 -19 11 -39 11 -60zM366 260c-26 31 -50 57 -71 76s-45 29 -72 29c-31 0 -55 -10 -75 -29c-18 -20 -28 -45 -28 -76s10 -55 28 -74c20 -19 44 -28 75 -28c27 0 51 9 72 28c21 18 45 43 71 74zM672 260
c0 31 -10 56 -28 74c-20 20 -44 29 -75 29c-13 0 -26 -2 -37 -7c-12 -5 -24 -12 -35 -20c-11 -10 -23 -20 -35 -33c-11 -13 -23 -27 -36 -43c13 -16 25 -30 36 -42c12 -13 24 -24 35 -32c11 -10 23 -16 35 -21c11 -5 24 -7 37 -7c31 0 55 9 75 28c18 19 28 43 28 74z" />
    <glyph glyph-name="integral" unicode="&#x222b;" horiz-adv-x="329" 
d="M264 667c-25 0 -44 -7 -56 -21s-18 -34 -18 -59v-691c0 -37 -10 -67 -30 -90c-19 -24 -48 -36 -86 -36h-44v45h35c25 0 44 7 56 21s18 34 18 59v691c0 37 10 67 29 90c20 24 49 36 87 36h44v-45h-35z" />
    <glyph glyph-name="approxequal" unicode="&#x2248;" 
d="M461 357c-13 -13 -25 -24 -35 -33c-11 -8 -20 -14 -29 -18c-9 -5 -17 -8 -25 -9s-17 -2 -27 -2c-17 0 -33 3 -50 10s-34 14 -52 21c-14 6 -27 11 -39 16c-11 5 -24 7 -37 7c-7 0 -14 -1 -19 -1l-18 -6c-6 -4 -13 -8 -20 -14s-16 -14 -26 -24l-31 31c13 13 25 24 35 33
c11 8 20 14 29 18c9 5 17 8 25 9s17 2 27 2c17 0 33 -3 50 -10s34 -14 52 -21c14 -6 27 -11 39 -16c11 -5 24 -7 37 -7c7 0 13 1 19 1l18 6c6 4 13 8 20 14s16 14 26 24zM461 197c-13 -13 -25 -24 -35 -33c-11 -8 -20 -14 -29 -18c-9 -5 -17 -8 -25 -9s-17 -2 -27 -2
c-17 0 -33 3 -50 10s-34 14 -52 21c-14 6 -27 11 -39 16c-11 5 -24 7 -37 7c-7 0 -14 -1 -19 -1l-18 -6c-6 -4 -13 -8 -20 -14s-16 -14 -26 -24l-31 31c13 13 25 24 35 33c11 8 20 14 29 18c9 5 17 8 25 9s17 2 27 2c17 0 33 -3 50 -10s34 -14 52 -21c14 -6 27 -11 39 -16
c11 -5 24 -7 37 -7c7 0 13 1 19 1l18 6c6 4 13 8 20 14s16 14 26 24z" />
    <glyph glyph-name="notequal" unicode="&#x2260;" 
d="M190 163l-104 -104l-33 33l71 71h-71v47h118l106 106h-224v47h271l104 104l33 -33l-71 -71h71v-47h-118l-106 -106h224v-47h-271z" />
    <glyph glyph-name="lessequal" unicode="&#x2264;" 
d="M105 280v48l304 161v-55l-254 -130l254 -130v-55zM105 155v55l304 -161v-55z" />
    <glyph glyph-name="greaterequal" unicode="&#x2265;" 
d="M105 119v55l254 130l-254 130v55l304 -161v-48zM105 -6v55l304 161v-55z" />
    <glyph glyph-name="dotmath" unicode="&#x22c5;" 
d="M220 227v74h74v-74h-74z" />
    <glyph glyph-name="lozenge" unicode="&#x25ca;" horiz-adv-x="654" 
d="M327 -7l-255 363l255 363l255 -363zM327 641l-198 -285l198 -287l198 287z" />
    <glyph glyph-name="fi" unicode="&#xfb01;" horiz-adv-x="547" 
d="M163 444v-444h-51v444h-66v38h66v104c0 37 10 67 30 90c19 24 48 36 86 36h44v-45h-35c-25 0 -44 -7 -56 -21s-18 -34 -18 -59v-105h109v-38h-109zM399 0v482h51v-482h-51zM393 649v63h63v-63h-63z" />
    <glyph glyph-name="fl" unicode="&#xfb02;" horiz-adv-x="586" 
d="M163 444v-444h-51v444h-66v38h66v104c0 37 10 67 30 90c19 24 48 36 86 36h44v-45h-35c-25 0 -44 -7 -56 -21s-18 -34 -18 -59v-105h109v-38h-109zM510 0c-40 0 -69 11 -88 34s-28 53 -28 91v587h51v-586c0 -28 5 -48 15 -62c11 -12 30 -19 59 -19h35v-45h-44z" />
    <glyph glyph-name="uniFEFF" unicode="&#xfeff;" horiz-adv-x="0" 
 />
    <glyph glyph-name="zero.osf" 
d="M444 184c0 -28 -5 -54 -14 -76c-9 -24 -22 -44 -38 -60c-17 -18 -36 -31 -60 -40c-22 -9 -48 -14 -75 -14s-53 5 -75 14c-24 9 -43 22 -60 40c-17 16 -30 36 -38 60c-10 22 -14 48 -14 76v229c0 28 4 53 14 77c8 22 21 42 38 60c17 16 36 30 60 39c22 9 48 14 75 14
s53 -5 75 -14c24 -9 43 -23 60 -39c16 -18 29 -38 38 -60c9 -24 14 -49 14 -77v-229zM393 408c0 21 -3 40 -9 58c-5 19 -14 35 -26 48c-11 14 -26 25 -42 32c-18 8 -37 12 -59 12s-41 -4 -59 -12c-16 -7 -31 -18 -42 -32c-12 -13 -21 -29 -26 -48c-6 -18 -9 -37 -9 -58v-219
c0 -21 3 -41 9 -59c5 -18 14 -34 26 -48c11 -13 26 -24 42 -32c18 -7 37 -11 59 -11s41 4 59 11c16 8 31 19 42 32c12 14 21 30 26 48c6 18 9 38 9 59v219z" />
    <glyph glyph-name="one.osf" horiz-adv-x="350" 
d="M179 0v539l-129 -114v61l129 111h51v-597h-51z" />
    <glyph glyph-name="two.osf" horiz-adv-x="491" 
d="M40 0v45l258 258c21 21 38 44 50 67c11 23 17 49 17 76c0 18 -3 35 -10 51s-16 30 -28 42s-26 21 -43 29c-17 6 -35 10 -55 10c-19 0 -36 -3 -53 -10s-31 -16 -44 -28c-12 -11 -22 -25 -28 -42c-8 -16 -11 -34 -11 -53h-51c0 25 5 48 14 69c9 22 22 41 38 57
c17 16 36 29 60 38c22 9 48 14 75 14c29 0 55 -5 77 -14c24 -9 43 -22 60 -38c16 -16 28 -35 37 -57c9 -21 13 -44 13 -68c0 -35 -8 -67 -22 -94c-16 -28 -35 -54 -58 -77l-230 -230h330v-45h-396z" />
    <glyph glyph-name="three.osf" horiz-adv-x="509" 
d="M445 74c0 -32 -5 -60 -15 -84c-11 -25 -25 -45 -43 -62s-39 -29 -64 -38s-51 -13 -80 -13c-28 0 -54 4 -77 11c-24 7 -45 18 -63 33s-33 33 -43 56c-12 23 -18 49 -20 80h51c2 -24 7 -45 17 -62c8 -17 20 -31 34 -42s30 -19 47 -23c17 -6 35 -8 54 -8c21 0 41 4 59 10
c19 8 35 18 48 30c14 14 25 29 32 48c8 19 12 40 12 64c0 48 -12 85 -36 112c-25 27 -64 40 -119 40h-12v45h12c48 0 83 12 107 37c22 25 34 60 34 106c0 23 -4 44 -10 62c-8 18 -17 33 -30 45s-27 21 -44 27c-17 7 -35 10 -54 10c-42 0 -75 -12 -99 -35s-38 -55 -43 -95
h-51c3 28 9 53 20 74c11 22 25 40 41 56c18 14 37 26 60 34c22 7 46 11 72 11c28 0 54 -5 77 -13c23 -10 43 -22 59 -38c17 -17 30 -37 39 -60s14 -49 14 -78c0 -38 -8 -71 -23 -98c-16 -27 -42 -49 -78 -64c40 -13 69 -35 88 -64c18 -30 27 -68 27 -114z" />
    <glyph glyph-name="four.osf" horiz-adv-x="523" 
d="M388 30v-153h-51v153h-302v45l272 550h53l-272 -550h249v226h51v-226h95v-45h-95z" />
    <glyph glyph-name="five.osf" horiz-adv-x="505" 
d="M437 118c0 -17 -1 -34 -1 -52c-2 -16 -4 -33 -8 -49c-3 -16 -9 -31 -16 -47c-7 -14 -17 -28 -30 -41c-34 -34 -80 -51 -137 -51c-61 0 -106 16 -137 48c-28 28 -44 67 -48 116h51c5 -38 19 -67 39 -88c22 -21 53 -31 95 -31c19 0 38 3 55 9c17 7 32 16 43 27s19 22 25 35
c5 13 9 26 12 40s4 28 5 42c1 15 1 29 1 42c0 22 -2 44 -4 67c-4 23 -10 43 -19 61c-9 19 -23 34 -41 45c-17 11 -40 17 -69 17c-33 0 -61 -6 -83 -20c-24 -12 -39 -31 -46 -55h-45v364h342v-45h-297v-252c31 35 76 53 135 53c51 0 91 -14 120 -43c13 -13 23 -27 31 -42
c7 -15 13 -31 17 -48s7 -34 8 -51s2 -34 2 -51z" />
    <glyph glyph-name="six.osf" horiz-adv-x="519" 
d="M464 219c0 -31 -4 -61 -14 -87c-8 -28 -22 -51 -39 -72s-39 -37 -64 -48c-25 -12 -54 -18 -87 -18s-62 5 -87 16s-47 26 -65 45c-17 19 -30 42 -40 69c-8 26 -13 55 -13 87c0 25 4 51 11 79c7 27 19 55 35 83l202 355h53l-183 -314c16 8 31 14 45 16c13 4 29 5 46 5
c32 0 60 -5 85 -17c25 -10 45 -26 63 -46c16 -19 30 -42 38 -68c10 -27 14 -55 14 -85zM413 214c0 23 -3 46 -9 68c-7 21 -16 40 -30 56c-12 17 -29 30 -48 40c-19 9 -42 14 -67 14c-47 0 -85 -16 -112 -48c-27 -33 -41 -76 -41 -130c0 -53 14 -96 41 -128
c27 -33 65 -49 112 -49s85 16 113 49c27 32 41 75 41 128z" />
    <glyph glyph-name="seven.osf" horiz-adv-x="483" 
d="M148 -125h-53l300 677h-299v-112h-51v157h403v-45z" />
    <glyph glyph-name="eight.osf" horiz-adv-x="526" 
d="M466 192c0 -29 -5 -55 -16 -79c-10 -24 -24 -45 -42 -63c-19 -17 -40 -31 -65 -41s-51 -15 -80 -15s-55 5 -80 15s-46 24 -65 41c-18 18 -32 39 -42 63c-11 24 -16 50 -16 79c0 42 10 78 31 107s48 53 82 71c-65 36 -98 90 -98 162c0 26 5 50 14 73s22 42 39 59
c16 17 36 30 58 40c24 9 49 14 77 14s53 -5 77 -14c22 -10 42 -23 58 -40c17 -17 30 -36 39 -59s14 -47 14 -73c0 -73 -32 -127 -97 -162c34 -18 61 -42 82 -71c20 -29 30 -65 30 -107zM415 192c0 22 -4 42 -11 61c-8 19 -19 35 -32 49c-14 13 -30 24 -49 32s-39 12 -60 12
s-41 -4 -60 -12s-35 -19 -49 -32c-13 -14 -24 -30 -32 -49c-7 -19 -11 -39 -11 -61s4 -42 11 -61c8 -19 19 -35 32 -49c14 -13 30 -24 49 -32c19 -7 39 -11 60 -11s41 4 60 11c19 8 35 19 49 32c13 14 24 30 32 49c7 19 11 39 11 61zM400 532c0 21 -3 40 -10 57
s-16 32 -28 45c-12 12 -26 22 -44 28c-16 8 -35 11 -55 11s-39 -3 -55 -11c-18 -6 -32 -16 -44 -28c-12 -13 -21 -28 -28 -45s-10 -36 -10 -57s3 -40 10 -57s16 -32 28 -45c12 -12 26 -22 44 -28c16 -8 35 -11 55 -11s39 3 55 11c18 6 32 16 44 28c12 13 21 28 28 45
s10 36 10 57z" />
    <glyph glyph-name="nine.osf" horiz-adv-x="519" 
d="M464 386c0 -25 -4 -51 -11 -78c-7 -28 -19 -56 -35 -84l-202 -355h-53l183 314c-16 -8 -31 -13 -44 -17c-14 -2 -30 -4 -47 -4c-32 0 -60 6 -85 16c-25 12 -46 27 -62 46c-18 20 -30 43 -40 70c-8 26 -13 54 -13 84c0 31 5 60 13 87c10 27 23 51 40 72s39 37 64 49
c25 11 54 17 87 17s62 -5 87 -16s47 -26 64 -45s31 -42 40 -68c9 -27 14 -56 14 -88zM413 383c0 53 -14 96 -41 129c-27 32 -65 48 -112 48s-85 -16 -112 -48c-28 -33 -42 -76 -42 -129c0 -23 3 -46 10 -67c6 -22 16 -41 28 -58c14 -16 30 -29 49 -38c19 -10 42 -15 67 -15
c47 0 85 16 112 49c27 32 41 75 41 129z" />
    <glyph glyph-name="commaaccent" horiz-adv-x="258" 
d="M106 -220h-63l72 150h55z" />
    <glyph glyph-name="grave.lc" horiz-adv-x="500" 
d="M239 590l-106 147h67l97 -147h-58z" />
    <glyph glyph-name="dieresis.lc" horiz-adv-x="526" 
d="M130 600v77h58v-77h-58zM338 600v77h58v-77h-58z" />
    <glyph glyph-name="acute.lc" horiz-adv-x="526" 
d="M274 590h-58l97 147h67z" />
    <glyph glyph-name="circumflex.lc" horiz-adv-x="526" 
d="M356 590l-93 109l-93 -109h-57l123 147h54l123 -147h-57z" />
    <glyph glyph-name="caron.lc" horiz-adv-x="452" 
d="M261 590h-54l-123 147h57l93 -109l93 109h57z" />
    <glyph glyph-name="ring.lc" horiz-adv-x="524" 
d="M363 677c0 -16 -3 -31 -9 -45c-6 -13 -14 -25 -24 -36c-11 -11 -23 -19 -36 -25c-14 -6 -29 -9 -45 -9s-31 3 -45 9c-13 6 -25 14 -36 25c-10 11 -18 23 -24 36c-6 14 -9 29 -9 45s3 31 9 45c6 13 14 25 24 36c11 10 23 18 36 24c14 6 29 9 45 9s31 -3 45 -9
c13 -6 25 -14 36 -24c10 -11 18 -23 24 -36c6 -14 9 -29 9 -45zM322 677c0 20 -7 37 -22 51c-14 14 -31 21 -51 21s-37 -7 -51 -21c-15 -14 -22 -31 -22 -51s7 -37 22 -51c14 -15 31 -22 51 -22s37 7 51 22c15 14 22 31 22 51z" />
    <glyph glyph-name="tilde.lc" horiz-adv-x="526" 
d="M412 653c-11 -11 -22 -20 -30 -27c-10 -7 -18 -12 -25 -14c-7 -4 -14 -5 -19 -6s-10 -1 -15 -1c-11 0 -22 2 -31 5c-10 3 -23 10 -38 19c-9 5 -18 10 -28 15c-8 4 -18 6 -28 6c-8 0 -16 -2 -24 -5s-20 -13 -35 -28l-30 29c11 11 21 20 31 27c8 7 16 11 24 15
c6 2 13 4 18 5c6 1 11 1 16 1c15 0 27 -2 36 -6c10 -5 21 -11 33 -18c11 -7 20 -12 29 -16c8 -3 17 -5 27 -5c7 0 15 2 23 5c9 3 21 13 36 28l30 -29v0z" />
    <glyph glyph-name="grave.uc" horiz-adv-x="652" 
d="M315 780l-106 147h67l97 -147h-58z" />
    <glyph glyph-name="dieresis.uc" horiz-adv-x="652" 
d="M193 790v77h58v-77h-58zM401 790v77h58v-77h-58z" />
    <glyph glyph-name="acute.uc" horiz-adv-x="652" 
d="M337 780h-58l97 147h67z" />
    <glyph glyph-name="circumflex.uc" horiz-adv-x="652" 
d="M419 780l-93 109l-93 -109h-57l123 147h54l123 -147h-57z" />
    <glyph glyph-name="caron.uc" horiz-adv-x="559" 
d="M314 780h-54l-123 147h57l93 -109l93 109h57z" />
    <glyph glyph-name="ring.uc" horiz-adv-x="500" 
d="M364 861c0 -16 -3 -31 -9 -45c-6 -13 -14 -25 -25 -36c-10 -11 -22 -19 -36 -25c-13 -6 -28 -9 -44 -9s-31 3 -44 9c-14 6 -26 14 -36 25c-11 11 -19 23 -25 36c-6 14 -9 29 -9 45s3 31 9 45c6 13 14 25 25 36c10 10 22 18 36 24c13 6 28 9 44 9s31 -3 44 -9
c14 -6 26 -14 36 -24c11 -11 19 -23 25 -36c6 -14 9 -29 9 -45zM323 861c0 20 -7 37 -21 51c-15 14 -32 21 -52 21s-37 -7 -52 -21c-14 -14 -21 -31 -21 -51s7 -37 21 -51c15 -15 32 -22 52 -22s37 7 52 22c14 14 21 31 21 51z" />
    <glyph glyph-name="tilde.uc" horiz-adv-x="652" 
d="M475 843c-11 -11 -21 -20 -31 -27c-8 -7 -17 -12 -24 -14c-7 -4 -14 -5 -19 -6s-10 -1 -15 -1c-11 0 -22 2 -32 5c-9 3 -22 10 -37 19c-9 5 -19 10 -27 15c-10 4 -19 6 -29 6c-8 0 -16 -2 -24 -5s-20 -13 -35 -28l-30 29c11 11 22 20 30 27c10 7 18 11 24 15
c8 2 14 4 20 5c5 1 10 1 15 1c15 0 27 -2 37 -6c9 -5 20 -11 32 -18c11 -7 20 -12 28 -16c9 -3 18 -5 28 -5c7 0 15 2 24 5c8 3 20 13 35 28l30 -29v0z" />
  </font>
</defs>
</svg>
